<svg id="Layer_1" data-name="Layer 1" xmlns="http://www.w3.org/2000/svg" xmlns:xlink="http://www.w3.org/1999/xlink" width="268.94124" height="358.58" viewBox="0 0 268.94124 358.58">
  <defs>
    <style>
      .cls-1, .cls-4, .cls-6 {
        fill: none;
      }

      .cls-2 {
        clip-path: url(#clip-path);
      }

      .cls-3 {
        clip-path: url(#clip-path-2);
      }

      .cls-4, .cls-6 {
        stroke: #000;
        stroke-width: 0.71935px;
      }

      .cls-4 {
        stroke-miterlimit: 10;
      }

      .cls-5 {
        fill: #fff;
      }

      .cls-7 {
        opacity: 0.051;
      }

      .cls-8 {
        opacity: 0.102;
      }
    </style>
    <clipPath id="clip-path">
      <rect class="cls-1" x="-260.11765" y="-126.27292" width="792" height="613.91998"/>
    </clipPath>
    <clipPath id="clip-path-2">
      <rect class="cls-1" x="-260.11765" y="-126.27292" width="791.99994" height="612.16351"/>
    </clipPath>
  </defs>
  <g class="cls-2">
    <g class="cls-3">
      <line class="cls-4" x1="121.49539" y1="111.47091" x2="121.49539" y2="48.34112"/>
      <polyline class="cls-4" points="124.013 52.571 121.495 47.535 118.978 52.571"/>
      <line class="cls-4" x1="135.88229" y1="46.72976" x2="135.88229" y2="109.85958"/>
      <polyline class="cls-4" points="133.365 105.63 135.882 110.665 138.4 105.63"/>
      <rect class="cls-5" x="58.19293" y="3.56899" width="143.8692" height="43.16077"/>
      <rect class="cls-6" x="58.19293" y="3.56899" width="143.8692" height="43.16077"/>
      <g>
        <path d="M86.92142,18.90585h1.63574V26.0455a8.4431,8.4431,0,0,1-.42188,2.959,3.61186,3.61186,0,0,1-1.52148,1.7832,5.39031,5.39031,0,0,1-2.8877.687,5.93631,5.93631,0,0,1-2.84082-.59864,3.41441,3.41441,0,0,1-1.57617-1.73242,8.26148,8.26148,0,0,1-.47168-3.09814V18.90585H80.4722V26.0372a6.95479,6.95479,0,0,0,.2998,2.373A2.26687,2.26687,0,0,0,81.80032,29.586a3.56752,3.56752,0,0,0,1.7832.41309,3.40607,3.40607,0,0,0,2.57032-.81738,4.70959,4.70959,0,0,0,.76758-3.14453Z"/>
        <path d="M90.479,28.59139l1.5-.23584a2.10015,2.10015,0,0,0,.7041,1.38233,2.45267,2.45267,0,0,0,1.61426.48047,2.37205,2.37205,0,0,0,1.55176-.42578A1.27247,1.27247,0,0,0,96.354,28.794a.92175.92175,0,0,0-.44629-.80957A6.58705,6.58705,0,0,0,94.357,27.4703a14.123,14.123,0,0,1-2.31445-.729A2.2095,2.2095,0,0,1,90.732,24.68856a2.3049,2.3049,0,0,1,.27344-1.1084,2.45445,2.45445,0,0,1,.74609-.84716,3.13018,3.13018,0,0,1,.96582-.44287,4.59272,4.59272,0,0,1,1.31055-.18116,5.18868,5.18868,0,0,1,1.85059.30323,2.5175,2.5175,0,0,1,1.17578.82226,3.21244,3.21244,0,0,1,.52246,1.38672l-1.4834.20215a1.62273,1.62273,0,0,0-.58594-1.0791,2.14566,2.14566,0,0,0-1.37011-.3877,2.48189,2.48189,0,0,0-1.49219.3457,1.00543,1.00543,0,0,0-.44629.80909.8355.8355,0,0,0,.18555.53125,1.33562,1.33562,0,0,0,.58105.40478q.22851.08422,1.34082.3877a18.64347,18.64347,0,0,1,2.24609.70361,2.27648,2.27648,0,0,1,.999.79688,2.22042,2.22042,0,0,1,.3623,1.29834,2.54881,2.54881,0,0,1-.44238,1.42871,2.85642,2.85642,0,0,1-1.27734,1.03662,4.6419,4.6419,0,0,1-1.8877.3667A4.20934,4.20934,0,0,1,91.646,30.7413,3.37092,3.37092,0,0,1,90.479,28.59139Z"/>
        <path d="M105.84622,28.381l1.56738.19384a3.824,3.824,0,0,1-1.374,2.13282,4.65513,4.65513,0,0,1-5.67676-.45118,4.72536,4.72536,0,0,1-1.15137-3.39306,4.94433,4.94433,0,0,1,1.16407-3.50684A3.93764,3.93764,0,0,1,103.3931,22.109a3.82858,3.82858,0,0,1,2.93359,1.22217,4.85633,4.85633,0,0,1,1.13769,3.43945c0,.08985-.00293.2251-.00781.40479h-6.67676a3.43457,3.43457,0,0,0,.835,2.25928,2.48247,2.48247,0,0,0,1.8711.78369,2.32058,2.32058,0,0,0,1.4248-.43848A2.9132,2.9132,0,0,0,105.84622,28.381Zm-4.98242-2.45313h4.999a3.03438,3.03438,0,0,0-.57324-1.69434,2.32515,2.32515,0,0,0-1.87988-.877,2.41361,2.41361,0,0,0-1.75782.69971A2.77123,2.77123,0,0,0,100.8638,25.92782Z"/>
        <path d="M109.30227,31.26376V22.31112h1.36524v1.35742a3.71051,3.71051,0,0,1,.96582-1.25634,1.68451,1.68451,0,0,1,.97363-.30323,2.96394,2.96394,0,0,1,1.55957.48877l-.52246,1.40772a2.17677,2.17677,0,0,0-1.11328-.32862,1.449,1.449,0,0,0-.89355.29932,1.62237,1.62237,0,0,0-.56446.83057,5.89586,5.89586,0,0,0-.25293,1.77v4.687Z"/>
        <path d="M113.9302,31.4747l3.583-12.77979h1.21387L115.15286,31.4747Z"/>
        <path d="M119.99173,31.26376V18.90585h4.63672a5.74051,5.74051,0,0,1,2.27148.375,2.92208,2.92208,0,0,1,1.33984,1.15478,3.04464,3.04464,0,0,1,.48536,1.63135,2.79677,2.79677,0,0,1-.43067,1.4917,3.06254,3.06254,0,0,1-1.29785,1.12988,3.22662,3.22662,0,0,1,1.72363,1.1211,3.00088,3.00088,0,0,1,.60352,1.87158,3.61564,3.61564,0,0,1-.36719,1.61426,3.12463,3.12463,0,0,1-.90625,1.15039,3.77569,3.77569,0,0,1-1.35254.61133,8.23486,8.23486,0,0,1-1.99414.20654Zm1.63476-7.16553h2.67286a5.96371,5.96371,0,0,0,1.55957-.14307,1.73147,1.73147,0,0,0,.93945-.61523,1.772,1.772,0,0,0,.3164-1.0791,1.99214,1.99214,0,0,0-.29492-1.0835,1.49445,1.49445,0,0,0-.84277-.64062,7.03971,7.03971,0,0,0-1.87988-.17285h-2.47071Zm0,5.707h3.07715a7.06384,7.06384,0,0,0,1.11328-.05908,2.66766,2.66766,0,0,0,.94336-.33691,1.78953,1.78953,0,0,0,.624-.687,2.15038,2.15038,0,0,0,.24511-1.041,2.05086,2.05086,0,0,0-.35449-1.20117,1.86726,1.86726,0,0,0-.98242-.7168,6.084,6.084,0,0,0-1.80762-.20654h-2.8584Z"/>
        <path d="M131.3638,31.26376V22.31112H132.729v1.35742a3.71064,3.71064,0,0,1,.96582-1.25634,1.68451,1.68451,0,0,1,.97364-.30323,2.96394,2.96394,0,0,1,1.55957.48877l-.52246,1.40772a2.1768,2.1768,0,0,0-1.11329-.32862,1.449,1.449,0,0,0-.89355.29932,1.62236,1.62236,0,0,0-.56445.83057,5.89555,5.89555,0,0,0-.25293,1.77v4.687Z"/>
        <path d="M136.565,26.78768a4.61505,4.61505,0,0,1,1.38281-3.68408,4.16442,4.16442,0,0,1,2.81543-.99463,4.01745,4.01745,0,0,1,3.01758,1.20948,4.603,4.603,0,0,1,1.17188,3.34277,5.91981,5.91981,0,0,1-.51856,2.71826,3.66921,3.66921,0,0,1-1.50879,1.53857,4.39236,4.39236,0,0,1-2.16211.54786,4.02244,4.02244,0,0,1-3.03906-1.20508A4.81657,4.81657,0,0,1,136.565,26.78768Zm1.55957,0a3.81353,3.81353,0,0,0,.75,2.5752,2.49868,2.49868,0,0,0,3.76856-.0044,3.90374,3.90374,0,0,0,.75-2.62158,3.69872,3.69872,0,0,0-.75489-2.51611,2.5008,2.5008,0,0,0-3.76367-.0044A3.79792,3.79792,0,0,0,138.12454,26.78768Z"/>
        <path d="M148.38333,31.26376l-2.73926-8.95264h1.56738l1.42481,5.16748.53125,1.92237q.03369-.14357.46387-1.8462l1.4248-5.24365h1.55957L153.9556,27.504l.44726,1.71143.51367-1.728,1.53418-5.17627h1.47559l-2.79883,8.95264H153.5513l-1.42481-5.36133-.3457-1.52588-1.8125,6.88721Z"/>
        <path d="M158.59231,28.59139l1.5-.23584a2.10012,2.10012,0,0,0,.70411,1.38233,2.45262,2.45262,0,0,0,1.61425.48047,2.37205,2.37205,0,0,0,1.55176-.42578,1.27244,1.27244,0,0,0,.50488-.99854.92175.92175,0,0,0-.44629-.80957,6.58687,6.58687,0,0,0-1.55078-.51416,14.123,14.123,0,0,1-2.31445-.729,2.2095,2.2095,0,0,1-1.31055-2.05274,2.3049,2.3049,0,0,1,.27344-1.1084,2.45445,2.45445,0,0,1,.74609-.84716,3.13014,3.13014,0,0,1,.96583-.44287,4.59265,4.59265,0,0,1,1.31054-.18116,5.18868,5.18868,0,0,1,1.85059.30323,2.5175,2.5175,0,0,1,1.17578.82226,3.21244,3.21244,0,0,1,.52246,1.38672l-1.4834.20215a1.62273,1.62273,0,0,0-.58594-1.0791,2.14566,2.14566,0,0,0-1.37011-.3877,2.48189,2.48189,0,0,0-1.49219.3457,1.00543,1.00543,0,0,0-.44629.80909.8355.8355,0,0,0,.18555.53125,1.33562,1.33562,0,0,0,.58105.40478q.22852.08422,1.34082.3877a18.6444,18.6444,0,0,1,2.2461.70361,2.27651,2.27651,0,0,1,.999.79688,2.22042,2.22042,0,0,1,.3623,1.29834,2.54881,2.54881,0,0,1-.44238,1.42871,2.85642,2.85642,0,0,1-1.27734,1.03662,4.6419,4.6419,0,0,1-1.8877.3667,4.20929,4.20929,0,0,1-2.66015-.72461A3.37088,3.37088,0,0,1,158.59231,28.59139Z"/>
        <path d="M173.9595,28.381l1.56738.19384a3.824,3.824,0,0,1-1.374,2.13282,4.65513,4.65513,0,0,1-5.67676-.45118,4.72536,4.72536,0,0,1-1.15136-3.39306,4.94433,4.94433,0,0,1,1.16406-3.50684,3.93764,3.93764,0,0,1,3.01758-1.24756A3.82858,3.82858,0,0,1,174.44,23.33114a4.85633,4.85633,0,0,1,1.1377,3.43945c0,.08985-.00293.2251-.00782.40479H168.8931a3.43446,3.43446,0,0,0,.835,2.25928,2.48245,2.48245,0,0,0,1.87109.78369,2.32058,2.32058,0,0,0,1.4248-.43848A2.9132,2.9132,0,0,0,173.9595,28.381Zm-4.98242-2.45313h4.999a3.03438,3.03438,0,0,0-.57324-1.69434,2.32513,2.32513,0,0,0-1.87988-.877,2.41357,2.41357,0,0,0-1.75781.69971A2.77123,2.77123,0,0,0,168.97708,25.92782Z"/>
        <path d="M177.41556,31.26376V22.31112h1.36523v1.35742a3.71051,3.71051,0,0,1,.96582-1.25634,1.68451,1.68451,0,0,1,.97363-.30323,2.96391,2.96391,0,0,1,1.55957.48877l-.52246,1.40772a2.17674,2.17674,0,0,0-1.11328-.32862,1.449,1.449,0,0,0-.89355.29932,1.62243,1.62243,0,0,0-.56446.83057,5.89586,5.89586,0,0,0-.25293,1.77v4.687Z"/>
      </g>
      <polyline class="cls-4" points="135.882 284.114 135.882 302.098 135.472 318.722"/>
      <polyline class="cls-4" points="133.062 314.434 135.458 319.527 138.098 314.557"/>
      <polygon class="cls-5" points="265.365 111.471 20.787 111.471 6.4 125.858 6.4 284.114 250.978 284.114 265.365 269.727 265.365 111.471"/>
      <polygon class="cls-4" points="265.365 111.471 20.787 111.471 6.4 125.858 6.4 284.114 250.978 284.114 265.365 269.727 265.365 111.471"/>
      <polygon class="cls-7" points="265.365 111.471 20.787 111.471 6.4 125.858 250.978 125.858 265.365 111.471"/>
      <polygon class="cls-8" points="265.365 111.471 250.978 125.858 250.978 284.114 265.365 269.727 265.365 111.471"/>
      <path class="cls-4" d="M250.97763,125.85781H6.4M250.97763,284.114V125.85781l14.387-14.3869"/>
      <line class="cls-4" x1="123.65341" y1="320.08123" x2="123.65341" y2="285.72528"/>
      <polyline class="cls-4" points="126.171 289.955 123.653 284.92 121.136 289.955"/>
      <polygon class="cls-5" points="194.869 320.081 72.58 320.081 65.386 327.275 65.386 356.049 187.675 356.049 194.869 348.855 194.869 320.081"/>
      <polygon class="cls-4" points="194.869 320.081 72.58 320.081 65.386 327.275 65.386 356.049 187.675 356.049 194.869 348.855 194.869 320.081"/>
      <polygon class="cls-7" points="194.869 320.081 72.58 320.081 65.386 327.275 187.675 327.275 194.869 320.081"/>
      <polygon class="cls-8" points="194.869 320.081 187.675 327.275 187.675 356.049 194.869 348.855 194.869 320.081"/>
      <path class="cls-4" d="M187.67523,327.27468H65.38641m122.28882,28.77387V327.27468l7.19348-7.19345"/>
      <g>
        <path d="M75.939,347.776v-9.78321h3.37012a8.21879,8.21879,0,0,1,1.74121.13965,3.32166,3.32166,0,0,1,1.43555.70117,3.98,3.98,0,0,1,1.15723,1.67188,6.55528,6.55528,0,0,1,.38378,2.32519,6.85932,6.85932,0,0,1-.25976,1.97559,4.795,4.795,0,0,1-.668,1.4248,3.55118,3.55118,0,0,1-.89063.8877,3.62975,3.62975,0,0,1-1.168.49023,6.65636,6.65636,0,0,1-1.57129.167Zm1.29395-1.1543h2.08887a5.068,5.068,0,0,0,1.51855-.18067,2.173,2.173,0,0,0,.87793-.50683,3.08231,3.08231,0,0,0,.7168-1.23828,6.02775,6.02775,0,0,0,.25781-1.88477,4.55366,4.55366,0,0,0-.50391-2.35937,2.53278,2.53278,0,0,0-1.22461-1.1045,5.06166,5.06166,0,0,0-1.67578-.20019H77.23294Z"/>
        <path d="M90.27981,346.90194a4.48566,4.48566,0,0,1-1.28418.80078,3.72627,3.72627,0,0,1-1.32519.2334,2.57839,2.57839,0,0,1-1.79492-.57031,1.88406,1.88406,0,0,1-.627-1.458,1.94611,1.94611,0,0,1,.23633-.95117,1.96837,1.96837,0,0,1,.6211-.69141,2.93288,2.93288,0,0,1,.86425-.39355,8.51327,8.51327,0,0,1,1.06739-.17969,11.0205,11.0205,0,0,0,2.14257-.41406c.00391-.16406.00684-.26953.00684-.31348a1.32355,1.32355,0,0,0-.34082-1.03418,2.00885,2.00885,0,0,0-1.36816-.40722,2.12044,2.12044,0,0,0-1.251.29687,1.81157,1.81157,0,0,0-.59766,1.05078l-1.17382-.16015a2.91294,2.91294,0,0,1,.52636-1.21778,2.31174,2.31174,0,0,1,1.06153-.71387,4.7311,4.7311,0,0,1,1.60839-.25,4.25323,4.25323,0,0,1,1.47461.2129,1.94393,1.94393,0,0,1,.834.5371,1.88283,1.88283,0,0,1,.374.81739,6.75715,6.75715,0,0,1,.06055,1.1084v1.60156a17.12845,17.12845,0,0,0,.07617,2.11914,2.68429,2.68429,0,0,0,.30371.85059H90.52005A2.57385,2.57385,0,0,1,90.27981,346.90194Zm-.09961-2.68262a8.80594,8.80594,0,0,1-1.96191.45313,4.5402,4.5402,0,0,0-1.04785.24023,1.03938,1.03938,0,0,0-.47363.39063,1.0615,1.0615,0,0,0,.19629,1.37109,1.56341,1.56341,0,0,0,1.06445.32032,2.47829,2.47829,0,0,0,1.23437-.30274,1.87988,1.87988,0,0,0,.79493-.83105,2.90469,2.90469,0,0,0,.19335-1.20118Z"/>
        <path d="M95.87942,346.70175l.17383,1.06054a4.4504,4.4504,0,0,1-.90723.10743,2.05674,2.05674,0,0,1-1.01464-.207,1.163,1.163,0,0,1-.50782-.54394,4.30914,4.30914,0,0,1-.14648-1.418v-4.07813h-.88086v-.93359h.88086v-1.75586l1.19434-.7207v2.47656h1.208v.93359h-1.208v4.14454a2.10735,2.10735,0,0,0,.06347.66113.4985.4985,0,0,0,.207.2334.801.801,0,0,0,.41016.08691A3.88885,3.88885,0,0,0,95.87942,346.70175Z"/>
        <path d="M101.67825,346.90194a4.4858,4.4858,0,0,1-1.28418.80078,3.72627,3.72627,0,0,1-1.32519.2334,2.57841,2.57841,0,0,1-1.79493-.57031,1.88409,1.88409,0,0,1-.62695-1.458,1.946,1.946,0,0,1,.23633-.95117,1.96825,1.96825,0,0,1,.62109-.69141,2.93294,2.93294,0,0,1,.86426-.39355,8.513,8.513,0,0,1,1.06738-.17969,11.02064,11.02064,0,0,0,2.14258-.41406c.00391-.16406.00684-.26953.00684-.31348a1.32355,1.32355,0,0,0-.34082-1.03418,2.00886,2.00886,0,0,0-1.36817-.40722,2.12042,2.12042,0,0,0-1.251.29687,1.81157,1.81157,0,0,0-.59766,1.05078l-1.17383-.16015a2.91307,2.91307,0,0,1,.52637-1.21778,2.3117,2.3117,0,0,1,1.06152-.71387,4.73116,4.73116,0,0,1,1.6084-.25,4.25326,4.25326,0,0,1,1.47461.2129,1.94393,1.94393,0,0,1,.834.5371,1.88283,1.88283,0,0,1,.374.81739,6.75715,6.75715,0,0,1,.06055,1.1084v1.60156a17.12845,17.12845,0,0,0,.07617,2.11914,2.68429,2.68429,0,0,0,.30371.85059h-1.25488A2.57362,2.57362,0,0,1,101.67825,346.90194Zm-.09961-2.68262a8.80594,8.80594,0,0,1-1.96191.45313,4.5402,4.5402,0,0,0-1.04785.24023,1.03946,1.03946,0,0,0-.47364.39063,1.06153,1.06153,0,0,0,.19629,1.37109,1.56345,1.56345,0,0,0,1.06446.32032,2.47829,2.47829,0,0,0,1.23437-.30274,1.8798,1.8798,0,0,0,.79492-.83105,2.9045,2.9045,0,0,0,.19336-1.20118Z"/>
        <path d="M105.76321,347.776H104.649v-9.78321h1.20118V341.483a2.37422,2.37422,0,0,1,1.9414-.95411,2.98919,2.98919,0,0,1,1.23828.2627,2.52116,2.52116,0,0,1,.96094.74121,3.57879,3.57879,0,0,1,.59082,1.15137,4.73819,4.73819,0,0,1,.21387,1.4414,4.04912,4.04912,0,0,1-.90137,2.81641,2.81681,2.81681,0,0,1-2.16211.99414,2.25642,2.25642,0,0,1-1.96875-1.04785Zm-.01367-3.59668a3.67557,3.67557,0,0,0,.34766,1.84179,1.71671,1.71671,0,0,0,2.89648.24317,3.11345,3.11345,0,0,0,.57324-2.03907,3.16245,3.16245,0,0,0-.55078-2.04882,1.67448,1.67448,0,0,0-1.331-.66016,1.72668,1.72668,0,0,0-1.36133.68359A3.00388,3.00388,0,0,0,105.74954,344.17929Z"/>
        <path d="M116.88138,346.90194a4.48593,4.48593,0,0,1-1.28418.80078,3.72632,3.72632,0,0,1-1.3252.2334,2.57839,2.57839,0,0,1-1.79492-.57031,1.88405,1.88405,0,0,1-.627-1.458,1.94611,1.94611,0,0,1,.23632-.95117,1.96837,1.96837,0,0,1,.6211-.69141,2.93282,2.93282,0,0,1,.86426-.39355,8.51271,8.51271,0,0,1,1.06738-.17969,11.02064,11.02064,0,0,0,2.14258-.41406c.0039-.16406.00683-.26953.00683-.31348a1.32355,1.32355,0,0,0-.34082-1.03418,2.00883,2.00883,0,0,0-1.36816-.40722,2.12046,2.12046,0,0,0-1.251.29687,1.81151,1.81151,0,0,0-.59765,1.05078l-1.17383-.16015a2.91294,2.91294,0,0,1,.52636-1.21778,2.31174,2.31174,0,0,1,1.06153-.71387,4.73112,4.73112,0,0,1,1.6084-.25,4.25326,4.25326,0,0,1,1.47461.2129,1.94383,1.94383,0,0,1,.834.5371,1.88283,1.88283,0,0,1,.374.81739,6.75715,6.75715,0,0,1,.06055,1.1084v1.60156a17.12845,17.12845,0,0,0,.07617,2.11914,2.68454,2.68454,0,0,0,.30371.85059h-1.25488A2.57385,2.57385,0,0,1,116.88138,346.90194Zm-.09961-2.68262a8.8062,8.8062,0,0,1-1.96192.45313,4.5402,4.5402,0,0,0-1.04785.24023,1.03938,1.03938,0,0,0-.47363.39063,1.06153,1.06153,0,0,0,.19629,1.37109,1.56342,1.56342,0,0,0,1.06445.32032,2.47836,2.47836,0,0,0,1.23438-.30274,1.8798,1.8798,0,0,0,.79492-.83105,2.90466,2.90466,0,0,0,.19336-1.20118Z"/>
        <path d="M119.37747,345.66073l1.1875-.1875a1.65548,1.65548,0,0,0,.55762,1.09473,1.93924,1.93924,0,0,0,1.27734.38086,1.88075,1.88075,0,0,0,1.22852-.33692,1.00884,1.00884,0,0,0,.40039-.791.72855.72855,0,0,0-.35449-.64063,5.12973,5.12973,0,0,0-1.22754-.40722,11.27839,11.27839,0,0,1-1.832-.57715,1.74738,1.74738,0,0,1-1.0371-1.625,1.82688,1.82688,0,0,1,.21679-.87793,1.93851,1.93851,0,0,1,.58985-.6709,2.49636,2.49636,0,0,1,.76464-.35059,3.66371,3.66371,0,0,1,1.03809-.14258,4.10565,4.10565,0,0,1,1.46484.24024,1.99479,1.99479,0,0,1,.93067.65039,2.54932,2.54932,0,0,1,.41406,1.09766l-1.1748.16015a1.28656,1.28656,0,0,0-.46387-.85449,1.70022,1.70022,0,0,0-1.085-.30664,1.95951,1.95951,0,0,0-1.18067.27344.79594.79594,0,0,0-.35351.64062.66513.66513,0,0,0,.14648.4209,1.06127,1.06127,0,0,0,.46.32031q.18165.06592,1.06153.30664a14.7102,14.7102,0,0,1,1.77832.55762,1.80653,1.80653,0,0,1,.791.62988,1.763,1.763,0,0,1,.28711,1.02832,2.0171,2.0171,0,0,1-.35058,1.13086,2.2637,2.2637,0,0,1-1.01075.82129,3.68237,3.68237,0,0,1-1.49511.29,3.32826,3.32826,0,0,1-2.10547-.57422A2.66328,2.66328,0,0,1,119.37747,345.66073Z"/>
        <path d="M131.54349,345.49374l1.24121.15332a3.031,3.031,0,0,1-1.08789,1.68848,3.6854,3.6854,0,0,1-4.49512-.35743,3.73834,3.73834,0,0,1-.91016-2.68554,3.91478,3.91478,0,0,1,.9209-2.77637,3.11638,3.11638,0,0,1,2.38867-.98731,3.03153,3.03153,0,0,1,2.32227.9668,3.84661,3.84661,0,0,1,.90137,2.72363c0,.07129-.00293.17774-.00684.32032h-5.28516a2.7228,2.7228,0,0,0,.66016,1.78808,1.96619,1.96619,0,0,0,1.48145.6211,1.83836,1.83836,0,0,0,1.12792-.34766A2.30573,2.30573,0,0,0,131.54349,345.49374Zm-3.94434-1.94238h3.957a2.39557,2.39557,0,0,0-.45312-1.34082,1.84134,1.84134,0,0,0-1.48829-.69434,1.909,1.909,0,0,0-1.3916.55371A2.1922,2.1922,0,0,0,127.59915,343.55136Z"/>
        <path d="M137.80325,344.63241l1.2207-.10644a2.6849,2.6849,0,0,0,.4043,1.2041,2.19292,2.19292,0,0,0,.98438.76074,3.71125,3.71125,0,0,0,1.501.291,3.58913,3.58913,0,0,0,1.3086-.2207,1.81056,1.81056,0,0,0,.84375-.60351,1.40244,1.40244,0,0,0,.27734-.83789,1.26754,1.26754,0,0,0-.26758-.80372,1.96412,1.96412,0,0,0-.88086-.57714,17.06559,17.06559,0,0,0-1.74121-.47754,8.88622,8.88622,0,0,1-1.88867-.61035,2.65394,2.65394,0,0,1-1.04492-.91114,2.23679,2.23679,0,0,1-.34375-1.21777,2.4849,2.4849,0,0,1,.4209-1.38477,2.59646,2.59646,0,0,1,1.22754-.97754,4.65845,4.65845,0,0,1,1.79589-.334,4.88752,4.88752,0,0,1,1.918.35059,2.76447,2.76447,0,0,1,1.27832,1.03027,2.96682,2.96682,0,0,1,.48047,1.542l-1.24121.09375a2.00155,2.00155,0,0,0-.67773-1.40137,2.6332,2.6332,0,0,0-1.70508-.47461,2.73591,2.73591,0,0,0-1.71192.43067,1.29305,1.29305,0,0,0-.5371,1.03808,1.11052,1.11052,0,0,0,.38085.86719,5.12706,5.12706,0,0,0,1.95215.69727,12.964,12.964,0,0,1,2.165.624,2.97307,2.97307,0,0,1,1.26172.998,2.42887,2.42887,0,0,1,.40723,1.3916,2.66492,2.66492,0,0,1-.44727,1.47168,2.946,2.946,0,0,1-1.28515,1.07422,4.47106,4.47106,0,0,1-1.88477.38379,5.61133,5.61133,0,0,1-2.22559-.3877,3.10943,3.10943,0,0,1-1.4082-1.16406A3.2967,3.2967,0,0,1,137.80325,344.63241Z"/>
        <path d="M152.05813,345.49374l1.24122.15332a3.031,3.031,0,0,1-1.0879,1.68848,3.68539,3.68539,0,0,1-4.49511-.35743,3.73834,3.73834,0,0,1-.91016-2.68554,3.91478,3.91478,0,0,1,.9209-2.77637,3.11638,3.11638,0,0,1,2.38867-.98731,3.03153,3.03153,0,0,1,2.32227.9668,3.84661,3.84661,0,0,1,.90136,2.72363c0,.07129-.00293.17774-.00683.32032h-5.28516a2.7228,2.7228,0,0,0,.66016,1.78808,1.96619,1.96619,0,0,0,1.48144.6211,1.83837,1.83837,0,0,0,1.12793-.34766A2.30565,2.30565,0,0,0,152.05813,345.49374Zm-3.94433-1.94238h3.957a2.39549,2.39549,0,0,0-.45313-1.34082,1.84131,1.84131,0,0,0-1.48828-.69434,1.909,1.909,0,0,0-1.3916.55371A2.1922,2.1922,0,0,0,148.1138,343.55136Z"/>
        <path d="M154.79446,347.776v-7.08692h1.08106v1.07422a2.92518,2.92518,0,0,1,.76367-.99414,1.33781,1.33781,0,0,1,.77148-.24024,2.3447,2.3447,0,0,1,1.23438.38672l-.41406,1.11426a1.71215,1.71215,0,0,0-.88086-.25976,1.14615,1.14615,0,0,0-.707.23632,1.28445,1.28445,0,0,0-.44727.65723,4.67292,4.67292,0,0,0-.2002,1.40137V347.776Z"/>
        <path d="M161.32767,347.776l-2.69629-7.08692H159.899l1.52149,4.24414q.24756.687.4541,1.42774.15967-.55957.44727-1.34766l1.57519-4.32422h1.23438l-2.68262,7.08692Z"/>
        <path d="M171.04446,345.49374l1.24121.15332a3.03094,3.03094,0,0,1-1.08789,1.68848,3.68539,3.68539,0,0,1-4.49511-.35743,3.7383,3.7383,0,0,1-.91016-2.68554,3.91478,3.91478,0,0,1,.9209-2.77637,3.11636,3.11636,0,0,1,2.38867-.98731,3.03153,3.03153,0,0,1,2.32227.9668,3.84661,3.84661,0,0,1,.90136,2.72363c0,.07129-.00293.17774-.00683.32032h-5.28516a2.7228,2.7228,0,0,0,.66016,1.78808,1.96617,1.96617,0,0,0,1.48144.6211,1.83837,1.83837,0,0,0,1.12793-.34766A2.30572,2.30572,0,0,0,171.04446,345.49374Zm-3.94433-1.94238h3.957a2.39557,2.39557,0,0,0-.45313-1.34082,1.84131,1.84131,0,0,0-1.48828-.69434,1.909,1.909,0,0,0-1.3916.55371A2.19216,2.19216,0,0,0,167.10013,343.55136Z"/>
        <path d="M173.78079,347.776v-7.08692h1.08106v1.07422a2.92518,2.92518,0,0,1,.76367-.99414,1.33781,1.33781,0,0,1,.77148-.24024,2.3447,2.3447,0,0,1,1.23438.38672l-.41407,1.11426a1.7121,1.7121,0,0,0-.88086-.25976,1.14619,1.14619,0,0,0-.707.23632,1.28444,1.28444,0,0,0-.44726.65723,4.67292,4.67292,0,0,0-.2002,1.40137V347.776Z"/>
      </g>
      <path d="M98.31692,144.9205l-2.459-9.26856h1.25781l1.41016,6.07617q.227.95363.3916,1.89649.3545-1.48536.418-1.71387l1.76367-6.25879h1.47949l1.32715,4.69141a24.82489,24.82489,0,0,1,.7207,3.28125q.17725-.87891.46192-2.0166l1.4541-5.95606h1.2334l-2.542,9.26856H104.0513l-1.95313-7.0625q-.24756-.88478-.291-1.08692-.145.63867-.27149,1.08692l-1.96679,7.0625Z"/>
      <g>
        <path d="M113.13724,142.75839l1.17578.1455a2.87611,2.87611,0,0,1-1.03028,1.59961,3.10287,3.10287,0,0,1-1.92285.56836,3.06939,3.06939,0,0,1-2.33594-.90722,3.54414,3.54414,0,0,1-.8623-2.54395,3.71013,3.71013,0,0,1,.87207-2.63086,2.95634,2.95634,0,0,1,2.26367-.93554,2.87112,2.87112,0,0,1,2.2002.917,3.6448,3.6448,0,0,1,.85351,2.5791c0,.06738-.00293.16894-.00683.30371h-5.00684a2.57468,2.57468,0,0,0,.626,1.69434,1.86008,1.86008,0,0,0,1.40332.58789,1.74369,1.74369,0,0,0,1.06836-.32813A2.18772,2.18772,0,0,0,113.13724,142.75839Zm-3.73731-1.83985h3.75a2.27327,2.27327,0,0,0-.43066-1.2705,1.74318,1.74318,0,0,0-1.40918-.65821,1.8034,1.8034,0,0,0-1.31836.52539A2.07558,2.07558,0,0,0,109.39993,140.91854Z"/>
        <path d="M116.79153,144.9205h-1.05566v-9.26856h1.13769v3.30664a2.25249,2.25249,0,0,1,1.83985-.90429,2.81131,2.81131,0,0,1,1.17285.25,2.39985,2.39985,0,0,1,.91016.70117,3.392,3.392,0,0,1,.55957,1.09082,4.5012,4.5012,0,0,1,.20214,1.36621,3.83409,3.83409,0,0,1-.85351,2.668,2.66815,2.66815,0,0,1-2.04785.9414,2.13547,2.13547,0,0,1-1.86524-.99218Zm-.01269-3.40821a3.48747,3.48747,0,0,0,.32812,1.74512,1.62718,1.62718,0,0,0,2.74414.23145,2.9476,2.9476,0,0,0,.54395-1.93164,2.99839,2.99839,0,0,0-.52149-1.94141,1.59,1.59,0,0,0-1.26171-.626,1.63722,1.63722,0,0,0-1.28907.64844A2.83862,2.83862,0,0,0,116.77884,141.51229Z"/>
        <path d="M126.26907,141.943l1.15625-.10157a2.55777,2.55777,0,0,0,.38281,1.14161,2.08964,2.08964,0,0,0,.93262.7207,3.54519,3.54519,0,0,0,1.42285.27441,3.41923,3.41923,0,0,0,1.23926-.208,1.73314,1.73314,0,0,0,.79981-.57227,1.32724,1.32724,0,0,0,.26171-.794,1.2048,1.2048,0,0,0-.25293-.76171,1.86947,1.86947,0,0,0-.834-.54688,16.59331,16.59331,0,0,0-1.65039-.45215,8.37667,8.37667,0,0,1-1.78906-.57812,2.50337,2.50337,0,0,1-.98926-.86328,2.10828,2.10828,0,0,1-.32617-1.15332,2.3584,2.3584,0,0,1,.39843-1.3125,2.47069,2.47069,0,0,1,1.16309-.92579,4.41066,4.41066,0,0,1,1.70117-.3164,4.638,4.638,0,0,1,1.81739.332,2.62636,2.62636,0,0,1,1.21093.97656,2.811,2.811,0,0,1,.45508,1.46094l-1.17578.08789a1.8993,1.8993,0,0,0-.6416-1.32715,2.49623,2.49623,0,0,0-1.61524-.44922,2.588,2.588,0,0,0-1.62207.40821,1.22325,1.22325,0,0,0-.50879.98242,1.0545,1.0545,0,0,0,.36036.82226,4.88736,4.88736,0,0,0,1.84961.66114,12.19563,12.19563,0,0,1,2.05078.59082,2.8061,2.8061,0,0,1,1.19531.94531,2.30454,2.30454,0,0,1,.38574,1.31836,2.5193,2.5193,0,0,1-.42383,1.39355,2.79582,2.79582,0,0,1-1.21679,1.01856,4.2459,4.2459,0,0,1-1.78614.36328,5.3182,5.3182,0,0,1-2.10839-.36719,2.951,2.951,0,0,1-1.334-1.10254A3.12914,3.12914,0,0,1,126.26907,141.943Z"/>
        <path d="M139.773,142.75839l1.17578.1455a2.87615,2.87615,0,0,1-1.03027,1.59961,3.10292,3.10292,0,0,1-1.92286.56836,3.06935,3.06935,0,0,1-2.33593-.90722,3.5441,3.5441,0,0,1-.86231-2.54395,3.71013,3.71013,0,0,1,.87207-2.63086,2.95634,2.95634,0,0,1,2.26367-.93554,2.8711,2.8711,0,0,1,2.2002.917,3.6448,3.6448,0,0,1,.85352,2.5791c0,.06738-.00293.16894-.00684.30371h-5.00684a2.57473,2.57473,0,0,0,.626,1.69434,1.86008,1.86008,0,0,0,1.40332.58789,1.74369,1.74369,0,0,0,1.06836-.32813A2.18765,2.18765,0,0,0,139.773,142.75839Zm-3.73731-1.83985h3.75a2.27327,2.27327,0,0,0-.43066-1.2705,1.74318,1.74318,0,0,0-1.40918-.65821,1.8034,1.8034,0,0,0-1.31836.52539A2.07558,2.07558,0,0,0,136.03567,140.91854Z"/>
        <path d="M142.36477,144.9205v-6.71485h1.02442v1.01856a2.78329,2.78329,0,0,1,.72363-.94239,1.26776,1.26776,0,0,1,.73047-.22753,2.21585,2.21585,0,0,1,1.16992.36718l-.39258,1.05567a1.62085,1.62085,0,0,0-.834-.24707,1.08688,1.08688,0,0,0-.6709.22461,1.2115,1.2115,0,0,0-.42285.623,4.41143,4.41143,0,0,0-.19043,1.32715v3.51563Z"/>
        <path d="M148.5552,144.9205l-2.55468-6.71485h1.20117l1.44238,4.02149q.23292.65186.42969,1.35254.15089-.53028.42383-1.27637l1.49121-4.09766h1.16992l-2.541,6.71485Z"/>
        <path d="M157.76028,142.75839l1.17578.1455a2.876,2.876,0,0,1-1.03027,1.59961,3.10289,3.10289,0,0,1-1.92285.56836,3.06937,3.06937,0,0,1-2.33594-.90722,3.54414,3.54414,0,0,1-.8623-2.54395,3.71013,3.71013,0,0,1,.87207-2.63086,2.95632,2.95632,0,0,1,2.26367-.93554,2.87108,2.87108,0,0,1,2.20019.917,3.6448,3.6448,0,0,1,.85352,2.5791c0,.06738-.00293.16894-.00684.30371h-5.00683a2.57473,2.57473,0,0,0,.626,1.69434,1.86009,1.86009,0,0,0,1.40332.58789,1.74367,1.74367,0,0,0,1.06836-.32813A2.18758,2.18758,0,0,0,157.76028,142.75839Zm-3.7373-1.83985h3.75a2.27327,2.27327,0,0,0-.43067-1.2705,1.74316,1.74316,0,0,0-1.40918-.65821,1.80341,1.80341,0,0,0-1.31836.52539A2.07557,2.07557,0,0,0,154.023,140.91854Z"/>
        <path d="M160.35208,144.9205v-6.71485h1.02441v1.01856a2.78329,2.78329,0,0,1,.72364-.94239,1.26774,1.26774,0,0,1,.73047-.22753,2.21591,2.21591,0,0,1,1.16992.36718l-.39258,1.05567a1.62089,1.62089,0,0,0-.834-.24707,1.08685,1.08685,0,0,0-.67089.22461,1.21151,1.21151,0,0,0-.42286.623,4.41143,4.41143,0,0,0-.19043,1.32715v3.51563Z"/>
      </g>
      <rect class="cls-5" x="23.66434" y="154.63165" width="212.92636" height="122.28882"/>
      <rect class="cls-6" x="23.66434" y="154.63165" width="212.92636" height="122.28882"/>
      <rect class="cls-5" x="59.63159" y="183.40548" width="143.86923" height="28.77386"/>
      <rect class="cls-6" x="59.63159" y="183.40548" width="143.86923" height="28.77386"/>
      <rect class="cls-5" x="59.63159" y="240.95318" width="143.86923" height="28.77383"/>
      <rect class="cls-6" x="59.63159" y="240.95318" width="143.86923" height="28.77383"/>
      <rect class="cls-5" x="59.63159" y="212.17935" width="143.86923" height="28.77383"/>
      <rect class="cls-6" x="59.63159" y="212.17935" width="143.86923" height="28.77383"/>
      <g>
        <path d="M117.397,172.97518v-9.26855h1.22656v8.1748H123.188v1.09375Z"/>
        <path d="M124.61087,172.97518v-9.26855h1.84668l2.19336,6.5625q.30322.917.44238,1.37207.1582-.50536.49316-1.48535l2.21973-6.44922h1.64942v9.26855H132.274v-7.75781l-2.69335,7.75781h-1.10645l-2.68066-7.89062v7.89062Z"/>
        <path d="M135.0181,169.99764l1.15625-.10156a2.55743,2.55743,0,0,0,.38281,1.1416,2.08957,2.08957,0,0,0,.93261.72071,3.54537,3.54537,0,0,0,1.42286.27441,3.419,3.419,0,0,0,1.23925-.208,1.733,1.733,0,0,0,.79981-.57226,1.32725,1.32725,0,0,0,.26172-.79395,1.20491,1.20491,0,0,0-.25293-.76172,1.86964,1.86964,0,0,0-.834-.54687,16.59247,16.59247,0,0,0-1.65039-.45215,8.37667,8.37667,0,0,1-1.78906-.57812,2.50345,2.50345,0,0,1-.98926-.86329,2.10828,2.10828,0,0,1-.32617-1.15332,2.35838,2.35838,0,0,1,.39844-1.3125,2.4706,2.4706,0,0,1,1.16308-.92578,4.41049,4.41049,0,0,1,1.70118-.3164,4.638,4.638,0,0,1,1.81738.332,2.62644,2.62644,0,0,1,1.21094.97656,2.811,2.811,0,0,1,.45507,1.46094l-1.17578.08789a1.89926,1.89926,0,0,0-.6416-1.32715,2.49614,2.49614,0,0,0-1.61523-.44922,2.58792,2.58792,0,0,0-1.62207.4082,1.22325,1.22325,0,0,0-.50879.98243,1.05454,1.05454,0,0,0,.36035.82226,4.8873,4.8873,0,0,0,1.84961.66113,12.19759,12.19759,0,0,1,2.05078.59082,2.80612,2.80612,0,0,1,1.19531.94532,2.30452,2.30452,0,0,1,.38574,1.31836,2.51939,2.51939,0,0,1-.42382,1.39355,2.796,2.796,0,0,1-1.2168,1.01856,4.246,4.246,0,0,1-1.78613.36328,5.31822,5.31822,0,0,1-2.1084-.36719,2.95112,2.95112,0,0,1-1.334-1.10254A3.12914,3.12914,0,0,1,135.0181,169.99764Z"/>
      </g>
      <g>
        <path d="M98.34134,195.275v-8.23828h3.1084a7.48705,7.48705,0,0,1,1.25293.07812,2.50075,2.50075,0,0,1,1.01757.38477,2.02706,2.02706,0,0,1,.66016.7959,2.681,2.681,0,0,1-.41895,2.90234,3.20782,3.20782,0,0,1-2.417.72754h-2.1123V195.275Zm1.09082-4.32129H101.562a2.26062,2.26062,0,0,0,1.5-.39356,1.40377,1.40377,0,0,0,.44434-1.10742,1.48351,1.48351,0,0,0-.26172-.88476,1.21351,1.21351,0,0,0-.68848-.48633,4.643,4.643,0,0,0-1.0166-.07324H99.43216Z"/>
        <path d="M105.87747,195.275v-5.96875h.91113v.90527a2.45869,2.45869,0,0,1,.64356-.83789,1.12252,1.12252,0,0,1,.64844-.20215,1.98045,1.98045,0,0,1,1.04.32617l-.34863.93848a1.45112,1.45112,0,0,0-.74219-.21875.96637.96637,0,0,0-.5957.19922,1.08171,1.08171,0,0,0-.376.55371,3.94025,3.94025,0,0,0-.16894,1.17969v3.125Z"/>
        <path d="M113.80813,193.35311l1.04493.12891a2.551,2.551,0,0,1-.916,1.42187,3.10314,3.10314,0,0,1-3.78516-.30078,3.14747,3.14747,0,0,1-.7666-2.26172,3.296,3.296,0,0,1,.77539-2.33789,2.62374,2.62374,0,0,1,2.01172-.832,2.55409,2.55409,0,0,1,1.95606.81543,3.23714,3.23714,0,0,1,.75879,2.293q0,.08936-.00586.26953H110.4302a2.28939,2.28939,0,0,0,.55665,1.50586,1.65358,1.65358,0,0,0,1.24707.52246,1.54642,1.54642,0,0,0,.95019-.292A1.947,1.947,0,0,0,113.80813,193.35311Zm-3.32128-1.63574h3.332a2.01815,2.01815,0,0,0-.38184-1.1289,1.55164,1.55164,0,0,0-1.25391-.585,1.604,1.604,0,0,0-1.17089.4668A1.83835,1.83835,0,0,0,110.48685,191.71737Z"/>
        <path d="M115.71829,193.49374l1-.15723a1.39647,1.39647,0,0,0,.46875.9209,1.63566,1.63566,0,0,0,1.07617.32031,1.57929,1.57929,0,0,0,1.03418-.2832.84746.84746,0,0,0,.33789-.666.61676.61676,0,0,0-.29785-.54,4.39536,4.39536,0,0,0-1.03418-.34278,9.38744,9.38744,0,0,1-1.543-.48535,1.47717,1.47717,0,0,1-.874-1.36914,1.54255,1.54255,0,0,1,.18262-.73828,1.64019,1.64019,0,0,1,.498-.56543,2.08948,2.08948,0,0,1,.64258-.29492,3.08383,3.08383,0,0,1,.874-.1211,3.45238,3.45238,0,0,1,1.2334.20215,1.67977,1.67977,0,0,1,.78418.54883,2.1322,2.1322,0,0,1,.34864.92383l-.98926.13476a1.079,1.079,0,0,0-.39063-.71875,1.42372,1.42372,0,0,0-.91308-.25879,1.65258,1.65258,0,0,0-.99414.23047.668.668,0,0,0-.29786.53907.55906.55906,0,0,0,.12305.35449.894.894,0,0,0,.3877.26953q.15234.05712.89355.25879a12.66954,12.66954,0,0,1,1.49805.46875,1.525,1.525,0,0,1,.666.53125,1.48461,1.48461,0,0,1,.24122.86621,1.6931,1.6931,0,0,1-.29493.95215,1.90521,1.90521,0,0,1-.85156.6914,3.09606,3.09606,0,0,1-1.25879.24414,2.80189,2.80189,0,0,1-1.77246-.48339A2.24387,2.24387,0,0,1,115.71829,193.49374Z"/>
        <path d="M125.96341,193.35311l1.04492.12891a2.551,2.551,0,0,1-.916,1.42187,3.10312,3.10312,0,0,1-3.78515-.30078,3.14743,3.14743,0,0,1-.7666-2.26172,3.296,3.296,0,0,1,.77539-2.33789,2.62374,2.62374,0,0,1,2.01172-.832,2.55407,2.55407,0,0,1,1.95605.81543,3.23714,3.23714,0,0,1,.75879,2.293q0,.08936-.00586.26953h-4.45117a2.28938,2.28938,0,0,0,.55664,1.50586,1.65359,1.65359,0,0,0,1.24707.52246,1.54642,1.54642,0,0,0,.95019-.292A1.94706,1.94706,0,0,0,125.96341,193.35311Zm-3.32129-1.63574h3.332a2.01807,2.01807,0,0,0-.38184-1.1289,1.55162,1.55162,0,0,0-1.2539-.585,1.604,1.604,0,0,0-1.1709.4668A1.83839,1.83839,0,0,0,122.64212,191.71737Z"/>
        <path d="M128.27884,195.275v-5.96875h.91015v.84863a2.146,2.146,0,0,1,1.89942-.9834,2.49766,2.49766,0,0,1,.99219.19434,1.55168,1.55168,0,0,1,.67675.50879,1.956,1.956,0,0,1,.31543.74707,5.8516,5.8516,0,0,1,.05567.9834V195.275h-1.01172v-3.63086a2.73849,2.73849,0,0,0-.11719-.92383.97851.97851,0,0,0-.41894-.48926,1.32813,1.32813,0,0,0-.70508-.18261,1.64052,1.64052,0,0,0-1.11621.41015,2.02591,2.02591,0,0,0-.46875,1.55664V195.275Z"/>
        <path d="M136.88919,194.36972l.14551.89355a3.70906,3.70906,0,0,1-.76465.09082,1.72558,1.72558,0,0,1-.85352-.1748.97984.97984,0,0,1-.42773-.458,3.63826,3.63826,0,0,1-.12305-1.19434v-3.43359h-.74219v-.78711h.74219V187.8287l1.00586-.60742v2.085h1.01758v.78711h-1.01758v3.49023a1.74926,1.74926,0,0,0,.05371.55664.417.417,0,0,0,.17383.19629.66937.66937,0,0,0,.3457.07324A3.30733,3.30733,0,0,0,136.88919,194.36972Z"/>
        <path d="M141.772,194.53866a3.79065,3.79065,0,0,1-1.082.67481,3.13334,3.13334,0,0,1-1.11523.19628,2.16782,2.16782,0,0,1-1.51172-.48046,1.58432,1.58432,0,0,1-.52832-1.22754,1.63146,1.63146,0,0,1,.19922-.80078,1.65462,1.65462,0,0,1,.52246-.582,2.45617,2.45617,0,0,1,.72851-.332,7.38857,7.38857,0,0,1,.89844-.15136,9.28272,9.28272,0,0,0,1.80469-.34864c.00293-.13867.00488-.22656.00488-.26367a1.11471,1.11471,0,0,0-.28613-.87109,1.69391,1.69391,0,0,0-1.15235-.34278,1.78475,1.78475,0,0,0-1.05371.25,1.5288,1.5288,0,0,0-.50293.88477l-.98926-.13477a2.45425,2.45425,0,0,1,.44434-1.02539,1.94462,1.94462,0,0,1,.89356-.60156,3.98138,3.98138,0,0,1,1.35449-.21094,3.61075,3.61075,0,0,1,1.24219.17969,1.6424,1.6424,0,0,1,.70214.45313,1.5909,1.5909,0,0,1,.31446.68847,5.6312,5.6312,0,0,1,.05078.93262V192.774a14.35006,14.35006,0,0,0,.06445,1.78418,2.2615,2.2615,0,0,0,.25586.7168h-1.05664A2.16084,2.16084,0,0,1,141.772,194.53866Zm-.084-2.25879a7.42713,7.42713,0,0,1-1.65235.38184,3.8525,3.8525,0,0,0-.88281.20215.87636.87636,0,0,0-.39844.3291.89382.89382,0,0,0,.165,1.15429,1.31352,1.31352,0,0,0,.89649.27051,2.094,2.094,0,0,0,1.04-.25586,1.57857,1.57857,0,0,0,.66894-.70019,2.44475,2.44475,0,0,0,.16309-1.01074Z"/>
        <path d="M146.48782,194.36972l.14551.89355a3.709,3.709,0,0,1-.76465.09082,1.72552,1.72552,0,0,1-.85351-.1748.97987.97987,0,0,1-.42774-.458,3.63826,3.63826,0,0,1-.12305-1.19434v-3.43359h-.74218v-.78711h.74218V187.8287l1.00586-.60742v2.085h1.01758v.78711h-1.01758v3.49023a1.74926,1.74926,0,0,0,.05371.55664.417.417,0,0,0,.17383.19629.66941.66941,0,0,0,.34571.07324A3.30734,3.30734,0,0,0,146.48782,194.36972Z"/>
        <path d="M147.482,188.19979v-1.16308h1.01172v1.16308Zm0,7.0752v-5.96875h1.01172V195.275Z"/>
        <path d="M149.65677,192.29061a3.07866,3.07866,0,0,1,.92187-2.456,2.78065,2.78065,0,0,1,1.877-.66309,2.67924,2.67924,0,0,1,2.01171.80664,3.06591,3.06591,0,0,1,.78125,2.22852,3.94983,3.94983,0,0,1-.3457,1.8125,2.44169,2.44169,0,0,1-1.00586,1.02539,2.93361,2.93361,0,0,1-1.4414.36523,2.68016,2.68016,0,0,1-2.0254-.80371A3.20736,3.20736,0,0,1,149.65677,192.29061Zm1.04,0a2.54291,2.54291,0,0,0,.5,1.7168,1.66615,1.66615,0,0,0,2.51269-.00293,2.60176,2.60176,0,0,0,.5-1.74707,2.46723,2.46723,0,0,0-.50293-1.67773,1.66853,1.66853,0,0,0-2.50976-.00293A2.53438,2.53438,0,0,0,150.69681,192.29061Z"/>
        <path d="M156.43411,195.275v-5.96875h.91016v.84863a2.146,2.146,0,0,1,1.89941-.9834,2.49766,2.49766,0,0,1,.99219.19434,1.55171,1.55171,0,0,1,.67676.50879,1.95618,1.95618,0,0,1,.31543.74707,5.8519,5.8519,0,0,1,.05566.9834V195.275H160.272v-3.63086a2.73849,2.73849,0,0,0-.11719-.92383.97851.97851,0,0,0-.41894-.48926,1.32813,1.32813,0,0,0-.70508-.18261,1.64054,1.64054,0,0,0-1.11621.41015,2.02591,2.02591,0,0,0-.46875,1.55664V195.275Z"/>
      </g>
      <g>
        <path d="M116.21243,208.942V200.7037h1.09082v7.26562h4.05762v.97266Z"/>
        <path d="M126.42435,208.20565a3.79069,3.79069,0,0,1-1.082.67481,3.13312,3.13312,0,0,1-1.11523.19629,2.16782,2.16782,0,0,1-1.51172-.48047,1.58429,1.58429,0,0,1-.52832-1.22754,1.63157,1.63157,0,0,1,.19922-.80078,1.65459,1.65459,0,0,1,.52246-.582,2.456,2.456,0,0,1,.72852-.332,7.39232,7.39232,0,0,1,.89843-.15136,9.28256,9.28256,0,0,0,1.80469-.34864c.00293-.13867.00488-.22656.00488-.26367a1.11467,1.11467,0,0,0-.28613-.87109,1.6939,1.6939,0,0,0-1.15234-.34277,1.78466,1.78466,0,0,0-1.05371.25,1.52863,1.52863,0,0,0-.50293.88476l-.98926-.13476a2.454,2.454,0,0,1,.44433-1.02539,1.94456,1.94456,0,0,1,.89356-.60157,3.98143,3.98143,0,0,1,1.35449-.21093,3.61078,3.61078,0,0,1,1.24219.17968,1.64247,1.64247,0,0,1,.70215.45313,1.591,1.591,0,0,1,.31445.68847,5.6312,5.6312,0,0,1,.05078.93262V206.441a14.35216,14.35216,0,0,0,.06445,1.78418,2.26142,2.26142,0,0,0,.25586.7168h-1.05664A2.16084,2.16084,0,0,1,126.42435,208.20565Zm-.084-2.25879a7.42716,7.42716,0,0,1-1.65234.38184,3.85262,3.85262,0,0,0-.88282.20215.87628.87628,0,0,0-.39843.3291.8938.8938,0,0,0,.165,1.1543,1.31355,1.31355,0,0,0,.89648.2705,2.09391,2.09391,0,0,0,1.04-.25586,1.57846,1.57846,0,0,0,.66894-.70019,2.44475,2.44475,0,0,0,.16309-1.01074Z"/>
        <path d="M128.88528,211.24081l-.1123-.9502a2.26868,2.26868,0,0,0,.5791.08985,1.106,1.106,0,0,0,.53906-.11231.91886.91886,0,0,0,.33106-.31445,4.92385,4.92385,0,0,0,.30957-.75293c.01855-.05664.04883-.13867.08984-.24707l-2.26465-5.98047h1.08985l1.24218,3.457q.24171.65625.43262,1.38184a13.60854,13.60854,0,0,1,.416-1.35938l1.27539-3.47949h1.01172l-2.27051,6.07031a11.85939,11.85939,0,0,1-.56738,1.35352,1.98913,1.98913,0,0,1-.61817.7334,1.45548,1.45548,0,0,1-.832.2334A2.03141,2.03141,0,0,1,128.88528,211.24081Z"/>
        <path d="M138.771,207.02011l1.04493.1289a2.5511,2.5511,0,0,1-.916,1.42188,3.10314,3.10314,0,0,1-3.78516-.30078,3.14749,3.14749,0,0,1-.7666-2.26172,3.296,3.296,0,0,1,.77539-2.33789,2.62372,2.62372,0,0,1,2.01172-.832,2.55412,2.55412,0,0,1,1.95606.81542,3.23714,3.23714,0,0,1,.75879,2.293q0,.08936-.00586.26953H135.3931a2.28933,2.28933,0,0,0,.55664,1.50586,1.65355,1.65355,0,0,0,1.24707.52247,1.54636,1.54636,0,0,0,.95019-.292A1.94694,1.94694,0,0,0,138.771,207.02011Zm-3.32128-1.63575h3.332a2.01807,2.01807,0,0,0-.38184-1.1289,1.55162,1.55162,0,0,0-1.25391-.585,1.604,1.604,0,0,0-1.17089.46679A1.83837,1.83837,0,0,0,135.44974,205.38436Z"/>
        <path d="M141.07474,208.942v-5.96875h.91113v.90527a2.45889,2.45889,0,0,1,.64355-.83789,1.12253,1.12253,0,0,1,.64844-.20214,1.98042,1.98042,0,0,1,1.04.32617l-.34863.93847a1.45122,1.45122,0,0,0-.74219-.21875.96635.96635,0,0,0-.5957.19922,1.08175,1.08175,0,0,0-.376.55371,3.94024,3.94024,0,0,0-.16895,1.17969v3.125Z"/>
      </g>
      <g>
        <path d="M101.59524,224.04843l3.16407-8.23829h1.17382l3.37207,8.23829H108.063l-.96094-2.49512h-3.44434l-.90527,2.49512Zm2.377-3.38282h2.793l-.85938-2.28222q-.394-1.04-.585-1.708a10.51261,10.51261,0,0,1-.44336,1.57324Z"/>
        <path d="M110.04739,226.33554v-8.25586h.92188v.77636a2.26479,2.26479,0,0,1,.73633-.68359,2.02434,2.02434,0,0,1,.99414-.22754,2.36163,2.36163,0,0,1,1.34863.39356,2.42352,2.42352,0,0,1,.88281,1.11035,4.05629,4.05629,0,0,1,.29785,1.57031,3.9765,3.9765,0,0,1-.3291,1.64941,2.4984,2.4984,0,0,1-2.27344,1.51465,1.89976,1.89976,0,0,1-.90722-.21387,2.047,2.047,0,0,1-.66016-.53906v2.90528Zm.916-5.23731a2.59175,2.59175,0,0,0,.46679,1.70215,1.42945,1.42945,0,0,0,1.12891.55078,1.46035,1.46035,0,0,0,1.15527-.57031,2.70456,2.70456,0,0,0,.48047-1.76758,2.63417,2.63417,0,0,0-.46972-1.708,1.41332,1.41332,0,0,0-1.1211-.56738,1.45794,1.45794,0,0,0-1.14355.60351A2.708,2.708,0,0,0,110.96341,221.09823Z"/>
        <path d="M116.44876,226.33554v-8.25586h.92187v.77636a2.265,2.265,0,0,1,.73633-.68359,2.02437,2.02437,0,0,1,.99414-.22754,2.36164,2.36164,0,0,1,1.34864.39356,2.42358,2.42358,0,0,1,.88281,1.11035,4.05629,4.05629,0,0,1,.29785,1.57031,3.97665,3.97665,0,0,1-.3291,1.64941,2.4984,2.4984,0,0,1-2.27344,1.51465,1.8998,1.8998,0,0,1-.90723-.21387,2.047,2.047,0,0,1-.66015-.53906v2.90528Zm.916-5.23731a2.59174,2.59174,0,0,0,.4668,1.70215,1.42945,1.42945,0,0,0,1.12891.55078,1.46037,1.46037,0,0,0,1.15527-.57031,2.70461,2.70461,0,0,0,.48047-1.76758,2.63411,2.63411,0,0,0-.46973-1.708,1.4133,1.4133,0,0,0-1.12109-.56738,1.45794,1.45794,0,0,0-1.14355.60351A2.708,2.708,0,0,0,117.36477,221.09823Z"/>
        <path d="M122.82669,224.04843v-8.23829h1.01172v8.23829Z"/>
        <path d="M125.41263,216.97323v-1.16309h1.01172v1.16309Zm0,7.0752v-5.96875h1.01172v5.96875Z"/>
        <path d="M131.85794,221.8619l.99512.12989a2.58413,2.58413,0,0,1-.835,1.60937,2.429,2.429,0,0,1-1.64942.582,2.56141,2.56141,0,0,1-1.96973-.80078,3.24657,3.24657,0,0,1-.74511-2.2959,4.16445,4.16445,0,0,1,.32031-1.6914,2.23219,2.23219,0,0,1,.97559-1.08692,2.8876,2.8876,0,0,1,1.4248-.36328,2.47461,2.47461,0,0,1,1.58984.49219,2.25564,2.25564,0,0,1,.793,1.39648l-.9834.15137a1.63164,1.63164,0,0,0-.498-.9043,1.2865,1.2865,0,0,0-.86231-.30371,1.57017,1.57017,0,0,0-1.24218.54785,2.60155,2.60155,0,0,0-.47754,1.7334,2.68527,2.68527,0,0,0,.46093,1.74805,1.49867,1.49867,0,0,0,1.20215.54492,1.41442,1.41442,0,0,0,.99512-.36523A1.81452,1.81452,0,0,0,131.85794,221.8619Z"/>
        <path d="M137.61282,223.3121a3.79037,3.79037,0,0,1-1.082.6748,3.13312,3.13312,0,0,1-1.11523.19629,2.16777,2.16777,0,0,1-1.51172-.48047,1.58429,1.58429,0,0,1-.52832-1.22754,1.63149,1.63149,0,0,1,.19922-.80078,1.65467,1.65467,0,0,1,.52246-.582,2.45617,2.45617,0,0,1,.72851-.332,7.39016,7.39016,0,0,1,.89844-.15137,9.28211,9.28211,0,0,0,1.80469-.34863c.00293-.13867.00488-.22656.00488-.26367a1.11473,1.11473,0,0,0-.28613-.8711,1.694,1.694,0,0,0-1.15235-.34277,1.78477,1.78477,0,0,0-1.05371.25,1.52877,1.52877,0,0,0-.50293.88477l-.98925-.13477a2.45406,2.45406,0,0,1,.44433-1.02539,1.94455,1.94455,0,0,1,.89356-.60156,3.98114,3.98114,0,0,1,1.35449-.21094,3.61075,3.61075,0,0,1,1.24219.17969,1.64248,1.64248,0,0,1,.70214.45312,1.59094,1.59094,0,0,1,.31446.68848,5.63112,5.63112,0,0,1,.05078.93262v1.34863a14.35006,14.35006,0,0,0,.06445,1.78418,2.26159,2.26159,0,0,0,.25586.7168H137.815A2.16107,2.16107,0,0,1,137.61282,223.3121Zm-.084-2.25879a7.4278,7.4278,0,0,1-1.65235.38183,3.853,3.853,0,0,0-.88281.20215.87642.87642,0,0,0-.39844.3291.89383.89383,0,0,0,.165,1.1543,1.31352,1.31352,0,0,0,.89649.27051,2.094,2.094,0,0,0,1.04-.25586,1.57859,1.57859,0,0,0,.66894-.7002,2.44469,2.44469,0,0,0,.16309-1.01074Z"/>
        <path d="M142.32864,223.14315l.14551.89356a3.70968,3.70968,0,0,1-.76465.09082,1.72551,1.72551,0,0,1-.85351-.17481.9798.9798,0,0,1-.42774-.458,3.63826,3.63826,0,0,1-.123-1.19434v-3.43359H139.563v-.78711h.74218v-1.47754l1.00586-.60742v2.085h1.01758v.78711h-1.01758V222.357a1.7493,1.7493,0,0,0,.05371.55664.417.417,0,0,0,.17383.19629.66941.66941,0,0,0,.34571.07324A3.306,3.306,0,0,0,142.32864,223.14315Z"/>
        <path d="M143.32278,216.97323v-1.16309h1.01172v1.16309Zm0,7.0752v-5.96875h1.01172v5.96875Z"/>
        <path d="M145.49759,221.06405a3.07864,3.07864,0,0,1,.92187-2.45605,2.78065,2.78065,0,0,1,1.877-.66309,2.67924,2.67924,0,0,1,2.01171.80664,3.06589,3.06589,0,0,1,.78125,2.22852,3.94986,3.94986,0,0,1-.3457,1.8125,2.44174,2.44174,0,0,1-1.00586,1.02539,2.93361,2.93361,0,0,1-1.4414.36523,2.6802,2.6802,0,0,1-2.0254-.80371A3.20739,3.20739,0,0,1,145.49759,221.06405Zm1.04,0a2.54291,2.54291,0,0,0,.5,1.7168,1.66615,1.66615,0,0,0,2.51269-.00293,2.60176,2.60176,0,0,0,.5-1.74707,2.46728,2.46728,0,0,0-.50293-1.67774,1.66855,1.66855,0,0,0-2.50976-.00293A2.53443,2.53443,0,0,0,146.53763,221.06405Z"/>
        <path d="M152.27493,224.04843v-5.96875h.91016v.84863a2.146,2.146,0,0,1,1.89941-.9834,2.49766,2.49766,0,0,1,.99219.19434,1.55156,1.55156,0,0,1,.67676.50879,1.95618,1.95618,0,0,1,.31543.74707,5.85184,5.85184,0,0,1,.05566.98339v3.66993h-1.01172v-3.63086a2.73849,2.73849,0,0,0-.11719-.92383.97851.97851,0,0,0-.41894-.48926,1.32814,1.32814,0,0,0-.70508-.18262,1.64054,1.64054,0,0,0-1.11621.41016,2.02591,2.02591,0,0,0-.46875,1.55664v3.25977Z"/>
      </g>
      <g>
        <path d="M116.21243,237.71639v-8.23828h1.09082v7.26563h4.05762v.97265Z"/>
        <path d="M126.42435,236.98007a3.79041,3.79041,0,0,1-1.082.6748,3.13312,3.13312,0,0,1-1.11523.19629,2.16782,2.16782,0,0,1-1.51172-.48047,1.58429,1.58429,0,0,1-.52832-1.22754,1.63157,1.63157,0,0,1,.19922-.80078,1.65459,1.65459,0,0,1,.52246-.582,2.456,2.456,0,0,1,.72852-.332,7.38992,7.38992,0,0,1,.89843-.15137,9.28272,9.28272,0,0,0,1.80469-.34863c.00293-.13867.00488-.22656.00488-.26367a1.1147,1.1147,0,0,0-.28613-.8711,1.694,1.694,0,0,0-1.15234-.34277,1.78473,1.78473,0,0,0-1.05371.25,1.52863,1.52863,0,0,0-.50293.88477l-.98926-.13477a2.45406,2.45406,0,0,1,.44433-1.02539,1.94455,1.94455,0,0,1,.89356-.60156,3.98118,3.98118,0,0,1,1.35449-.21094,3.61075,3.61075,0,0,1,1.24219.17969,1.64237,1.64237,0,0,1,.70215.45312,1.591,1.591,0,0,1,.31445.68848,5.63112,5.63112,0,0,1,.05078.93262v1.34863a14.35228,14.35228,0,0,0,.06445,1.78418,2.26145,2.26145,0,0,0,.25586.71679h-1.05664A2.16078,2.16078,0,0,1,126.42435,236.98007Zm-.084-2.25879a7.42782,7.42782,0,0,1-1.65234.38183,3.85262,3.85262,0,0,0-.88282.20215.87634.87634,0,0,0-.39843.3291.8938.8938,0,0,0,.165,1.1543,1.31356,1.31356,0,0,0,.89648.27051,2.094,2.094,0,0,0,1.04-.25586,1.57853,1.57853,0,0,0,.66894-.7002,2.44472,2.44472,0,0,0,.16309-1.01074Z"/>
        <path d="M128.88528,240.01522l-.1123-.95019a2.26862,2.26862,0,0,0,.5791.08984,1.10614,1.10614,0,0,0,.53906-.1123.919.919,0,0,0,.33106-.31446,4.92385,4.92385,0,0,0,.30957-.75293c.01855-.05664.04883-.13867.08984-.24707l-2.26465-5.98047h1.08985l1.24218,3.457q.24171.65625.43262,1.38183a13.60754,13.60754,0,0,1,.416-1.35937l1.27539-3.4795h1.01172l-2.27051,6.07032a11.85982,11.85982,0,0,1-.56738,1.35351,1.989,1.989,0,0,1-.61817.7334,1.45548,1.45548,0,0,1-.832.2334A2.03141,2.03141,0,0,1,128.88528,240.01522Z"/>
        <path d="M138.771,235.79452l1.04493.12891a2.55107,2.55107,0,0,1-.916,1.42187,3.10314,3.10314,0,0,1-3.78516-.30078,3.14749,3.14749,0,0,1-.7666-2.26172,3.296,3.296,0,0,1,.77539-2.33789,2.62372,2.62372,0,0,1,2.01172-.832,2.55409,2.55409,0,0,1,1.95606.81543,3.23714,3.23714,0,0,1,.75879,2.293q0,.08935-.00586.26953H135.3931a2.28935,2.28935,0,0,0,.55664,1.50586,1.65358,1.65358,0,0,0,1.24707.52246,1.54642,1.54642,0,0,0,.95019-.292A1.947,1.947,0,0,0,138.771,235.79452Zm-3.32128-1.63574h3.332a2.01811,2.01811,0,0,0-.38184-1.12891,1.55162,1.55162,0,0,0-1.25391-.585,1.60393,1.60393,0,0,0-1.17089.4668A1.83833,1.83833,0,0,0,135.44974,234.15878Z"/>
        <path d="M141.07474,237.71639v-5.96875h.91113v.90528a2.45869,2.45869,0,0,1,.64355-.83789,1.12247,1.12247,0,0,1,.64844-.20215,1.98042,1.98042,0,0,1,1.04.32617l-.34863.93848a1.45112,1.45112,0,0,0-.74219-.21875.96629.96629,0,0,0-.5957.19922,1.08171,1.08171,0,0,0-.376.55371,3.94017,3.94017,0,0,0-.16895,1.17968v3.125Z"/>
      </g>
      <g>
        <path d="M98.35208,252.82186v-8.23828H101.19a6.92962,6.92962,0,0,1,1.4668.11719,2.79738,2.79738,0,0,1,1.209.59082,3.35367,3.35367,0,0,1,.97461,1.40723,5.51949,5.51949,0,0,1,.32324,1.959,5.77717,5.77717,0,0,1-.21875,1.66309,4.04434,4.04434,0,0,1-.5625,1.20019,2.9864,2.9864,0,0,1-.75.74707,3.06163,3.06163,0,0,1-.9834.41309,5.61191,5.61191,0,0,1-1.32324.14062Zm1.09082-.97265h1.75879a4.25484,4.25484,0,0,0,1.27832-.15137,1.83093,1.83093,0,0,0,.73926-.42676,2.603,2.603,0,0,0,.60449-1.043,5.12,5.12,0,0,0,.21582-1.58789,3.84074,3.84074,0,0,0-.42383-1.98633,2.13573,2.13573,0,0,0-1.03125-.92968,4.26855,4.26855,0,0,0-1.41113-.16895H99.4429Z"/>
        <path d="M110.42923,252.08554a3.79082,3.79082,0,0,1-1.082.6748,3.13313,3.13313,0,0,1-1.11524.19629,2.16784,2.16784,0,0,1-1.51172-.48047,1.58429,1.58429,0,0,1-.52832-1.22754,1.63157,1.63157,0,0,1,.19922-.80078,1.65459,1.65459,0,0,1,.52246-.582,2.45572,2.45572,0,0,1,.72852-.332,7.39016,7.39016,0,0,1,.89844-.15137,9.28351,9.28351,0,0,0,1.80468-.34863c.00293-.13867.00489-.22656.00489-.26367a1.1147,1.1147,0,0,0-.28614-.8711,1.69393,1.69393,0,0,0-1.15234-.34277,1.78473,1.78473,0,0,0-1.05371.25,1.52874,1.52874,0,0,0-.50293.88476l-.98926-.13476a2.45407,2.45407,0,0,1,.44434-1.02539,1.94446,1.94446,0,0,1,.89355-.60156,3.98118,3.98118,0,0,1,1.35449-.21094,3.61047,3.61047,0,0,1,1.24219.17969,1.64237,1.64237,0,0,1,.70215.45312,1.591,1.591,0,0,1,.31445.68848,5.63106,5.63106,0,0,1,.05078.93261v1.34864a14.34936,14.34936,0,0,0,.06446,1.78418,2.2612,2.2612,0,0,0,.25586.71679h-1.05664A2.16056,2.16056,0,0,1,110.42923,252.08554Zm-.084-2.25879a7.42768,7.42768,0,0,1-1.65234.38183,3.85236,3.85236,0,0,0-.88281.20215.87632.87632,0,0,0-.39844.3291.8938.8938,0,0,0,.165,1.1543,1.31356,1.31356,0,0,0,.89648.27051,2.094,2.094,0,0,0,1.04-.25586,1.57861,1.57861,0,0,0,.66895-.7002,2.44474,2.44474,0,0,0,.16308-1.01074Z"/>
        <path d="M115.14505,251.91659l.14551.89355a3.70913,3.70913,0,0,1-.76465.09083,1.72558,1.72558,0,0,1-.85352-.17481.97975.97975,0,0,1-.42773-.458,3.63815,3.63815,0,0,1-.123-1.19433v-3.4336h-.74219v-.78711h.74219v-1.47754l1.00586-.60742v2.085h1.01758v.78711h-1.01758v3.49024a1.74935,1.74935,0,0,0,.05371.55664.417.417,0,0,0,.17383.19629.66937.66937,0,0,0,.3457.07324A3.306,3.306,0,0,0,115.14505,251.91659Z"/>
        <path d="M120.02786,252.08554a3.79082,3.79082,0,0,1-1.082.6748,3.13312,3.13312,0,0,1-1.11523.19629,2.16782,2.16782,0,0,1-1.51172-.48047,1.58429,1.58429,0,0,1-.52832-1.22754,1.63156,1.63156,0,0,1,.19921-.80078,1.65462,1.65462,0,0,1,.52247-.582,2.45566,2.45566,0,0,1,.72851-.332,7.39016,7.39016,0,0,1,.89844-.15137,9.28364,9.28364,0,0,0,1.80469-.34863c.00293-.13867.00488-.22656.00488-.26367a1.11473,1.11473,0,0,0-.28613-.8711,1.694,1.694,0,0,0-1.15235-.34277,1.78475,1.78475,0,0,0-1.05371.25,1.52874,1.52874,0,0,0-.50293.88476l-.98926-.13476a2.4542,2.4542,0,0,1,.44434-1.02539,1.94451,1.94451,0,0,1,.89355-.60156,3.98124,3.98124,0,0,1,1.3545-.21094,3.61041,3.61041,0,0,1,1.24218.17969,1.64237,1.64237,0,0,1,.70215.45312,1.59089,1.59089,0,0,1,.31446.68848,5.63106,5.63106,0,0,1,.05078.93261v1.34864a14.35017,14.35017,0,0,0,.06445,1.78418,2.26145,2.26145,0,0,0,.25586.71679H120.23A2.16078,2.16078,0,0,1,120.02786,252.08554Zm-.084-2.25879a7.4278,7.4278,0,0,1-1.65235.38183,3.8525,3.8525,0,0,0-.88281.20215.87642.87642,0,0,0-.39844.3291.89383.89383,0,0,0,.165,1.1543,1.31357,1.31357,0,0,0,.89649.27051,2.09407,2.09407,0,0,0,1.04-.25586,1.57859,1.57859,0,0,0,.66894-.7002,2.44472,2.44472,0,0,0,.16309-1.01074Z"/>
        <path d="M124.95755,252.82186l3.16406-8.23828h1.17383l3.37207,8.23828h-1.24219l-.96094-2.49511h-3.44433l-.90528,2.49511Zm2.377-3.38281h2.793l-.85937-2.28223q-.394-1.04-.585-1.708a10.51261,10.51261,0,0,1-.44336,1.57324Z"/>
        <path d="M137.30423,250.63534l.99512.12988a2.58412,2.58412,0,0,1-.835,1.60938,2.42892,2.42892,0,0,1-1.64941.582,2.56141,2.56141,0,0,1-1.96973-.80078,3.24657,3.24657,0,0,1-.74511-2.2959,4.16453,4.16453,0,0,1,.32031-1.69141,2.23219,2.23219,0,0,1,.97558-1.08691,2.88766,2.88766,0,0,1,1.42481-.36328,2.47461,2.47461,0,0,1,1.58984.49219,2.25561,2.25561,0,0,1,.793,1.39648l-.9834.15137a1.63164,1.63164,0,0,0-.498-.9043,1.2865,1.2865,0,0,0-.86231-.30371,1.57021,1.57021,0,0,0-1.24219.54785,2.60161,2.60161,0,0,0-.47753,1.7334,2.68531,2.68531,0,0,0,.46093,1.74805,1.49867,1.49867,0,0,0,1.20215.54492,1.41443,1.41443,0,0,0,.99512-.36524A1.81447,1.81447,0,0,0,137.30423,250.63534Z"/>
        <path d="M143.05813,250.63534l.99512.12988a2.58406,2.58406,0,0,1-.835,1.60938,2.42894,2.42894,0,0,1-1.64941.582,2.56139,2.56139,0,0,1-1.96973-.80078,3.24657,3.24657,0,0,1-.74512-2.2959,4.16436,4.16436,0,0,1,.32032-1.69141,2.23215,2.23215,0,0,1,.97558-1.08691,2.88761,2.88761,0,0,1,1.42481-.36328,2.47461,2.47461,0,0,1,1.58984.49219,2.25561,2.25561,0,0,1,.793,1.39648l-.9834.15137a1.63165,1.63165,0,0,0-.49805-.9043,1.28648,1.28648,0,0,0-.8623-.30371,1.57019,1.57019,0,0,0-1.24219.54785,2.60155,2.60155,0,0,0-.47754,1.7334,2.68524,2.68524,0,0,0,.46094,1.74805,1.49867,1.49867,0,0,0,1.20215.54492,1.41439,1.41439,0,0,0,.99511-.36524A1.81436,1.81436,0,0,0,143.05813,250.63534Z"/>
        <path d="M149.00442,250.9l1.04493.1289a2.55106,2.55106,0,0,1-.916,1.42188,3.10314,3.10314,0,0,1-3.78516-.30078,3.14744,3.14744,0,0,1-.7666-2.26172,3.296,3.296,0,0,1,.77539-2.33789,2.62371,2.62371,0,0,1,2.01172-.832,2.55409,2.55409,0,0,1,1.95606.81543,3.23712,3.23712,0,0,1,.75878,2.293q0,.08936-.00585.26953h-4.45118a2.28948,2.28948,0,0,0,.55664,1.50586,1.65361,1.65361,0,0,0,1.24707.52246,1.54645,1.54645,0,0,0,.9502-.292A1.947,1.947,0,0,0,149.00442,250.9Zm-3.32129-1.63574h3.332a2.01819,2.01819,0,0,0-.38184-1.12891,1.55163,1.55163,0,0,0-1.25391-.585,1.604,1.604,0,0,0-1.1709.4668A1.83842,1.83842,0,0,0,145.68313,249.26425Z"/>
        <path d="M150.91556,251.04061l1-.15722a1.39649,1.39649,0,0,0,.46875.9209,1.6357,1.6357,0,0,0,1.07617.32031,1.57925,1.57925,0,0,0,1.03418-.28321.84748.84748,0,0,0,.33789-.666.61678.61678,0,0,0-.29785-.54,4.39619,4.39619,0,0,0-1.03418-.34277,9.38943,9.38943,0,0,1-1.543-.48535,1.47716,1.47716,0,0,1-.874-1.36915,1.54273,1.54273,0,0,1,.18262-.73828,1.64022,1.64022,0,0,1,.49805-.56543,2.08961,2.08961,0,0,1,.64258-.29492,3.08378,3.08378,0,0,1,.874-.12109,3.4522,3.4522,0,0,1,1.2334.20215,1.67987,1.67987,0,0,1,.78418.54882,2.13233,2.13233,0,0,1,.34863.92383l-.98926.13477a1.079,1.079,0,0,0-.39062-.71875,1.42375,1.42375,0,0,0-.91309-.25879,1.6526,1.6526,0,0,0-.99414.23047.66794.66794,0,0,0-.29785.53906.559.559,0,0,0,.12305.35449.89392.89392,0,0,0,.38769.26953q.15236.05714.89356.25879a12.67308,12.67308,0,0,1,1.498.46875,1.525,1.525,0,0,1,.666.53125,1.4847,1.4847,0,0,1,.24121.86621,1.69315,1.69315,0,0,1-.29492.95215,1.90529,1.90529,0,0,1-.85156.69141,3.09626,3.09626,0,0,1-1.25879.24414,2.80183,2.80183,0,0,1-1.77246-.4834A2.24377,2.24377,0,0,1,150.91556,251.04061Z"/>
        <path d="M156.67044,251.04061l1-.15722a1.39649,1.39649,0,0,0,.46875.9209,1.6357,1.6357,0,0,0,1.07617.32031,1.57925,1.57925,0,0,0,1.03418-.28321.84745.84745,0,0,0,.33789-.666.61678.61678,0,0,0-.29785-.54,4.396,4.396,0,0,0-1.03418-.34277,9.38943,9.38943,0,0,1-1.543-.48535,1.47713,1.47713,0,0,1-.874-1.36915,1.54272,1.54272,0,0,1,.18261-.73828,1.64032,1.64032,0,0,1,.49805-.56543,2.08972,2.08972,0,0,1,.64258-.29492,3.08383,3.08383,0,0,1,.874-.12109,3.45216,3.45216,0,0,1,1.2334.20215,1.67987,1.67987,0,0,1,.78418.54882,2.13208,2.13208,0,0,1,.34863.92383l-.98925.13477a1.079,1.079,0,0,0-.39063-.71875,1.42372,1.42372,0,0,0-.91308-.25879,1.65263,1.65263,0,0,0-.99415.23047.668.668,0,0,0-.29785.53906.559.559,0,0,0,.123.35449.8939.8939,0,0,0,.3877.26953q.15234.05714.89355.25879a12.674,12.674,0,0,1,1.49805.46875,1.52506,1.52506,0,0,1,.666.53125,1.48462,1.48462,0,0,1,.24121.86621,1.69307,1.69307,0,0,1-.29492.95215,1.90529,1.90529,0,0,1-.85156.69141,3.09623,3.09623,0,0,1-1.25879.24414,2.80183,2.80183,0,0,1-1.77246-.4834A2.24377,2.24377,0,0,1,156.67044,251.04061Z"/>
      </g>
      <g>
        <path d="M116.21243,266.48983v-8.23828h1.09082v7.26563h4.05762v.97265Z"/>
        <path d="M126.42435,265.7535a3.79069,3.79069,0,0,1-1.082.67481,3.13312,3.13312,0,0,1-1.11523.19629,2.16782,2.16782,0,0,1-1.51172-.48047,1.58429,1.58429,0,0,1-.52832-1.22754,1.63157,1.63157,0,0,1,.19922-.80078,1.65459,1.65459,0,0,1,.52246-.582,2.45572,2.45572,0,0,1,.72852-.332,7.38992,7.38992,0,0,1,.89843-.15137,9.28348,9.28348,0,0,0,1.80469-.34863c.00293-.13868.00488-.22657.00488-.26368a1.11469,1.11469,0,0,0-.28613-.87109,1.694,1.694,0,0,0-1.15234-.34277,1.78473,1.78473,0,0,0-1.05371.25,1.52863,1.52863,0,0,0-.50293.88476l-.98926-.13476a2.45406,2.45406,0,0,1,.44433-1.02539,1.94456,1.94456,0,0,1,.89356-.60157,3.98143,3.98143,0,0,1,1.35449-.21093,3.61078,3.61078,0,0,1,1.24219.17968,1.64247,1.64247,0,0,1,.70215.45313,1.591,1.591,0,0,1,.31445.68848,5.631,5.631,0,0,1,.05078.93261v1.34864a14.35228,14.35228,0,0,0,.06445,1.78418,2.26145,2.26145,0,0,0,.25586.71679h-1.05664A2.16084,2.16084,0,0,1,126.42435,265.7535Zm-.084-2.25878a7.42782,7.42782,0,0,1-1.65234.38183,3.85262,3.85262,0,0,0-.88282.20215.87628.87628,0,0,0-.39843.3291.8938.8938,0,0,0,.165,1.1543,1.31356,1.31356,0,0,0,.89648.27051,2.094,2.094,0,0,0,1.04-.25586,1.57853,1.57853,0,0,0,.66894-.7002,2.44472,2.44472,0,0,0,.16309-1.01074Z"/>
        <path d="M128.88528,268.78866l-.1123-.95019a2.26862,2.26862,0,0,0,.5791.08984,1.106,1.106,0,0,0,.53906-.11231.91886.91886,0,0,0,.33106-.31445,4.92385,4.92385,0,0,0,.30957-.75293c.01855-.05664.04883-.13867.08984-.24707l-2.26465-5.98047h1.08985l1.24218,3.457q.24171.65625.43262,1.38184a13.60854,13.60854,0,0,1,.416-1.35938l1.27539-3.47949h1.01172l-2.27051,6.07031a11.85939,11.85939,0,0,1-.56738,1.35352,1.989,1.989,0,0,1-.61817.7334,1.45548,1.45548,0,0,1-.832.2334A2.03141,2.03141,0,0,1,128.88528,268.78866Z"/>
        <path d="M138.771,264.568l1.04493.1289a2.5511,2.5511,0,0,1-.916,1.42188,3.10314,3.10314,0,0,1-3.78516-.30078,3.14749,3.14749,0,0,1-.7666-2.26172,3.296,3.296,0,0,1,.77539-2.33789,2.62372,2.62372,0,0,1,2.01172-.832,2.55409,2.55409,0,0,1,1.95606.81543,3.23712,3.23712,0,0,1,.75879,2.293q0,.08936-.00586.26953H135.3931a2.28938,2.28938,0,0,0,.55664,1.50586,1.65358,1.65358,0,0,0,1.24707.52246,1.54636,1.54636,0,0,0,.95019-.292A1.94689,1.94689,0,0,0,138.771,264.568Zm-3.32128-1.63574h3.332a2.01811,2.01811,0,0,0-.38184-1.12891,1.55162,1.55162,0,0,0-1.25391-.585,1.604,1.604,0,0,0-1.17089.46679A1.83837,1.83837,0,0,0,135.44974,262.93222Z"/>
        <path d="M141.07474,266.48983v-5.96875h.91113v.90528a2.45869,2.45869,0,0,1,.64355-.83789,1.12247,1.12247,0,0,1,.64844-.20215,1.98042,1.98042,0,0,1,1.04.32617l-.34863.93848a1.45112,1.45112,0,0,0-.74219-.21875.96634.96634,0,0,0-.5957.19921,1.08179,1.08179,0,0,0-.376.55371,3.94024,3.94024,0,0,0-.16895,1.17969v3.125Z"/>
      </g>
      <g>
        <path d="M145.01907,70.108V62.38436h1.02149v3.17139h4.01562V62.38436h1.02149V70.108h-1.02149V66.46737h-4.01562V70.108Z"/>
        <path d="M154.74466,70.108V63.2955h-2.54492v-.91114h6.12207v.91114h-2.55567V70.108Z"/>
        <path d="M161.33645,70.108V63.2955h-2.54492v-.91114h6.12207v.91114h-2.55566V70.108Z"/>
        <path d="M165.96145,70.108V62.38436h2.91407a7.02057,7.02057,0,0,1,1.1748.07373,2.333,2.333,0,0,1,.9541.36084,1.894,1.894,0,0,1,.61817.74561,2.51067,2.51067,0,0,1-.3916,2.72119,3.01121,3.01121,0,0,1-2.26563.68213h-1.98144V70.108Zm1.02247-4.05176H168.981a2.11514,2.11514,0,0,0,1.40625-.36865,1.31472,1.31472,0,0,0,.417-1.03809,1.39779,1.39779,0,0,0-.24512-.82959,1.149,1.149,0,0,0-.64551-.45557,4.35437,4.35437,0,0,0-.9541-.06884h-1.97558Z"/>
        <path d="M172.32669,70.23983l2.23926-7.9873h.75879l-2.23438,7.9873Z"/>
        <path d="M175.80813,67.62655l.96485-.08447a2.11491,2.11491,0,0,0,.31836.95068,1.73376,1.73376,0,0,0,.77734.60059,2.931,2.931,0,0,0,1.18555.22949,2.8337,2.8337,0,0,0,1.03222-.17383,1.43686,1.43686,0,0,0,.667-.47656,1.10925,1.10925,0,0,0,.21875-.66113,1.00461,1.00461,0,0,0-.21094-.63526,1.569,1.569,0,0,0-.69531-.45556,13.71443,13.71443,0,0,0-1.376-.377,6.97639,6.97639,0,0,1-1.49023-.48193,2.09066,2.09066,0,0,1-.8252-.71924,1.76338,1.76338,0,0,1-.27148-.96142,1.96816,1.96816,0,0,1,.332-1.09327,2.06071,2.06071,0,0,1,.96972-.772,3.683,3.683,0,0,1,1.417-.26318,3.872,3.872,0,0,1,1.51464.27636,2.18919,2.18919,0,0,1,1.00977.814,2.33865,2.33865,0,0,1,.37891,1.21728l-.9795.07374a1.58231,1.58231,0,0,0-.53515-1.10645,2.0808,2.0808,0,0,0-1.34571-.374,2.15781,2.15781,0,0,0-1.35156.33984,1.01849,1.01849,0,0,0-.4248.81934.87929.87929,0,0,0,.30078.68505,4.07316,4.07316,0,0,0,1.541.5503,10.19648,10.19648,0,0,1,1.71.49267,2.33767,2.33767,0,0,1,.99511.7876,1.91409,1.91409,0,0,1,.32129,1.09815,2.10045,2.10045,0,0,1-.35254,1.16211,2.32589,2.32589,0,0,1-1.01465.84863,3.5428,3.5428,0,0,1-1.48828.30273,4.43923,4.43923,0,0,1-1.75683-.30566,2.45947,2.45947,0,0,1-1.11133-.91895A2.6143,2.6143,0,0,1,175.80813,67.62655Z"/>
      </g>
      <g>
        <path d="M145.00345,83.05624V75.33261h3.42382a4.56209,4.56209,0,0,1,1.57032.208,1.71889,1.71889,0,0,1,.85937.73536,2.19386,2.19386,0,0,1,.32129,1.16406,1.94423,1.94423,0,0,1-.53223,1.38574,2.69394,2.69394,0,0,1-1.64453.71582,2.706,2.706,0,0,1,.61719.38477,5.35992,5.35992,0,0,1,.84766,1.02734l1.34375,2.10254h-1.28516l-1.02246-1.60742q-.44824-.69434-.7373-1.06348a2.3159,2.3159,0,0,0-.51954-.5166,1.50429,1.50429,0,0,0-.46582-.20508,3,3,0,0,0-.56933-.03711h-1.18555v3.42969Zm1.02148-4.31543h2.19727a3.2952,3.2952,0,0,0,1.0957-.14453,1.16292,1.16292,0,0,0,.60059-.46387,1.24693,1.24693,0,0,0,.20605-.69238,1.151,1.151,0,0,0-.39844-.90137,1.8585,1.8585,0,0,0-1.25586-.35254h-2.44531Z"/>
        <path d="M156.4888,81.25448l.97949.12109a2.39115,2.39115,0,0,1-.8584,1.333,2.91148,2.91148,0,0,1-3.54883-.28222,2.9532,2.9532,0,0,1-.71875-2.12012,3.0957,3.0957,0,0,1,.72657-2.19238,2.46289,2.46289,0,0,1,1.88672-.7793,2.39194,2.39194,0,0,1,1.833.76367,3.03509,3.03509,0,0,1,.71094,2.14941c0,.05665-.001.14063-.00488.25293h-4.17285a2.14891,2.14891,0,0,0,.52148,1.41211,1.55189,1.55189,0,0,0,1.16992.49024,1.44664,1.44664,0,0,0,.89063-.27442A1.82568,1.82568,0,0,0,156.4888,81.25448Zm-3.11426-1.5332h3.124a1.89476,1.89476,0,0,0-.35839-1.05957,1.45259,1.45259,0,0,0-1.17481-.54785,1.50534,1.50534,0,0,0-1.09766.4375A1.73072,1.73072,0,0,0,153.37454,79.72128Z"/>
        <path d="M162.2261,85.20077V82.46054a1.69124,1.69124,0,0,1-.61914.5166,1.82048,1.82048,0,0,1-.8457.20508,2.23521,2.23521,0,0,1-1.71484-.79493,3.13354,3.13354,0,0,1-.71973-2.18164,3.73423,3.73423,0,0,1,.293-1.51172,2.18158,2.18158,0,0,1,.84765-1.01464,2.27419,2.27419,0,0,1,1.21973-.34473,1.87532,1.87532,0,0,1,1.63379.875v-.749h.85352v7.74023Zm-2.92383-4.958a2.47025,2.47025,0,0,0,.45313,1.62012,1.371,1.371,0,0,0,1.085.54,1.32737,1.32737,0,0,0,1.043-.51367,2.36417,2.36417,0,0,0,.4375-1.5625,2.60947,2.60947,0,0,0-.46094-1.68067,1.36592,1.36592,0,0,0-1.083-.56347,1.30626,1.30626,0,0,0-1.04589.52441A2.5608,2.5608,0,0,0,159.30227,80.24276Z"/>
        <path d="M168.32669,83.05624V82.234a2.04647,2.04647,0,0,1-1.77539.94825,2.25478,2.25478,0,0,1-.92481-.18946,1.51644,1.51644,0,0,1-.63672-.47656,1.78036,1.78036,0,0,1-.293-.70313,4.79123,4.79123,0,0,1-.05762-.88574V77.46054h.94824v3.10351a5.59166,5.59166,0,0,0,.05762,1.001.98854.98854,0,0,0,.37988.58789,1.17619,1.17619,0,0,0,.71582.21289,1.55121,1.55121,0,0,0,.80078-.21875,1.21218,1.21218,0,0,0,.53028-.59473,2.99321,2.99321,0,0,0,.15527-1.09375v-2.998h.94824v5.5957Z"/>
        <path d="M174.49173,81.25448l.97949.12109a2.39115,2.39115,0,0,1-.8584,1.333,2.91148,2.91148,0,0,1-3.54883-.28222,2.9532,2.9532,0,0,1-.71875-2.12012,3.0957,3.0957,0,0,1,.72657-2.19238,2.46288,2.46288,0,0,1,1.88671-.7793,2.392,2.392,0,0,1,1.833.76367,3.03509,3.03509,0,0,1,.71094,2.14941c0,.05665-.001.14063-.00488.25293h-4.17285a2.14891,2.14891,0,0,0,.52148,1.41211,1.55189,1.55189,0,0,0,1.16992.49024,1.44664,1.44664,0,0,0,.89063-.27442A1.82568,1.82568,0,0,0,174.49173,81.25448Zm-3.11426-1.5332h3.124a1.89476,1.89476,0,0,0-.35839-1.05957,1.45259,1.45259,0,0,0-1.17481-.54785,1.50534,1.50534,0,0,0-1.09766.4375A1.73072,1.73072,0,0,0,171.37747,79.72128Z"/>
        <path d="M176.28274,81.38632l.9375-.14746a1.30654,1.30654,0,0,0,.44043.86328,1.52594,1.52594,0,0,0,1.00879.30078,1.48717,1.48717,0,0,0,.96973-.26563.79841.79841,0,0,0,.31543-.625.576.576,0,0,0-.2793-.50586,4.12821,4.12821,0,0,0-.96875-.32129,8.87452,8.87452,0,0,1-1.44629-.45507,1.3801,1.3801,0,0,1-.81933-1.28321,1.441,1.441,0,0,1,.1709-.69336,1.53784,1.53784,0,0,1,.46679-.52929,1.95079,1.95079,0,0,1,.60254-.27637,2.88406,2.88406,0,0,1,.81934-.11328,3.24307,3.24307,0,0,1,1.15625.18945,1.57932,1.57932,0,0,1,.73535.51367,2.01489,2.01489,0,0,1,.32715.86719l-.92774.126a1.0104,1.0104,0,0,0-.36621-.67383,1.33674,1.33674,0,0,0-.85644-.24316,1.54706,1.54706,0,0,0-.93262.21679.62984.62984,0,0,0-.2793.50586.52251.52251,0,0,0,.11621.33106.8268.8268,0,0,0,.36328.25293c.09571.03515.374.11621.8379.24316a11.61908,11.61908,0,0,1,1.40429.43945,1.41868,1.41868,0,0,1,.624.498,1.38766,1.38766,0,0,1,.22656.81152,1.591,1.591,0,0,1-.27637.89258,1.79188,1.79188,0,0,1-.79785.64844,2.91367,2.91367,0,0,1-1.18066.22852,2.63119,2.63119,0,0,1-1.66211-.45215A2.11037,2.11037,0,0,1,176.28274,81.38632Z"/>
        <path d="M184.12845,82.20761l.13672.83789a3.48979,3.48979,0,0,1-.7168.085,1.61644,1.61644,0,0,1-.80078-.16407.91407.91407,0,0,1-.40039-.42871,3.40034,3.40034,0,0,1-.11621-1.12011V78.19882h-.69532v-.73828h.69532V76.07479l.94336-.56836v1.95411h.9541v.73828h-.9541V81.4703a1.65912,1.65912,0,0,0,.0498.52149.39429.39429,0,0,0,.16406.18457.62687.62687,0,0,0,.32324.06836A2.98137,2.98137,0,0,0,184.12845,82.20761Z"/>
        <path d="M184.6763,81.38632l.9375-.14746a1.30649,1.30649,0,0,0,.44043.86328,1.5259,1.5259,0,0,0,1.00879.30078,1.48714,1.48714,0,0,0,.96972-.26563.79841.79841,0,0,0,.31543-.625.576.576,0,0,0-.27929-.50586,4.12858,4.12858,0,0,0-.96875-.32129,8.87418,8.87418,0,0,1-1.44629-.45507,1.38013,1.38013,0,0,1-.81934-1.28321,1.441,1.441,0,0,1,.1709-.69336,1.53787,1.53787,0,0,1,.4668-.52929,1.95068,1.95068,0,0,1,.60254-.27637,2.884,2.884,0,0,1,.81933-.11328,3.243,3.243,0,0,1,1.15625.18945,1.57932,1.57932,0,0,1,.73535.51367,2.01476,2.01476,0,0,1,.32715.86719l-.92773.126a1.01044,1.01044,0,0,0-.36621-.67383,1.33677,1.33677,0,0,0-.85645-.24316,1.54708,1.54708,0,0,0-.93262.21679.62985.62985,0,0,0-.27929.50586.52251.52251,0,0,0,.11621.33106.82674.82674,0,0,0,.36328.25293c.0957.03515.374.11621.83789.24316a11.6194,11.6194,0,0,1,1.4043.43945,1.41865,1.41865,0,0,1,.624.498,1.38759,1.38759,0,0,1,.22656.81152,1.591,1.591,0,0,1-.27636.89258,1.7919,1.7919,0,0,1-.79786.64844,2.91364,2.91364,0,0,1-1.18066.22852,2.63121,2.63121,0,0,1-1.66211-.45215A2.11036,2.11036,0,0,1,184.6763,81.38632Z"/>
        <path d="M197.09915,82.36581a3.5422,3.5422,0,0,1-1.01367.63281,2.93032,2.93032,0,0,1-1.0459.1836,2.03275,2.03275,0,0,1-1.418-.4502,1.48573,1.48573,0,0,1-.49512-1.15137,1.56323,1.56323,0,0,1,.67774-1.2959,2.2985,2.2985,0,0,1,.68164-.31054,6.8788,6.8788,0,0,1,.84277-.14258,8.67,8.67,0,0,0,1.69141-.32617c.0039-.12989.00586-.21289.00586-.24805a1.04565,1.04565,0,0,0-.26953-.81641,1.58747,1.58747,0,0,0-1.08008-.32128,1.6737,1.6737,0,0,0-.98731.23437,1.42784,1.42784,0,0,0-.47168.83008l-.92773-.12695a2.30413,2.30413,0,0,1,.417-.96094,1.81762,1.81762,0,0,1,.83789-.56446,3.73151,3.73151,0,0,1,1.26953-.19726,3.36206,3.36206,0,0,1,1.16407.16894,1.51983,1.51983,0,0,1,.6582.42383,1.49505,1.49505,0,0,1,.2959.64551,5.3937,5.3937,0,0,1,.04687.874v1.26465a13.49526,13.49526,0,0,0,.06055,1.67285,2.08559,2.08559,0,0,0,.24023.67188h-.99121A2.02867,2.02867,0,0,1,197.09915,82.36581Zm-.0791-2.11817a6.90109,6.90109,0,0,1-1.54883.3584,3.591,3.591,0,0,0-.82715.19043.82322.82322,0,0,0-.374.30762.83844.83844,0,0,0,.15527,1.083,1.2394,1.2394,0,0,0,.84082.25293,1.95392,1.95392,0,0,0,.97461-.24024,1.47554,1.47554,0,0,0,.627-.65527,2.3001,2.3001,0,0,0,.15235-.94922Z"/>
        <path d="M199.44876,83.05624v-5.5957h.85351v.79589a2.013,2.013,0,0,1,1.78125-.92187,2.33563,2.33563,0,0,1,.92969.18164,1.46246,1.46246,0,0,1,.63477.47656,1.82546,1.82546,0,0,1,.29492.70117,5.42149,5.42149,0,0,1,.05273.92188v3.44043h-.94824V79.65292a2.57136,2.57136,0,0,0-.11035-.86719.91571.91571,0,0,0-.39258-.458,1.24608,1.24608,0,0,0-.66113-.1709,1.53737,1.53737,0,0,0-1.0459.38379,1.90019,1.90019,0,0,0-.44043,1.46v3.05567Z"/>
        <path d="M209.0806,83.05624v-.70606a1.74233,1.74233,0,0,1-1.56543.832,2.1943,2.1943,0,0,1-1.23047-.36817,2.42772,2.42772,0,0,1-.86914-1.03027,3.56331,3.56331,0,0,1-.30762-1.51953,3.97433,3.97433,0,0,1,.2793-1.52051,2.1971,2.1971,0,0,1,.83691-1.0459,2.24405,2.24405,0,0,1,1.249-.36328,1.861,1.861,0,0,1,1.54395.76953V75.33261h.94336v7.72363Zm-2.99805-2.792a2.42563,2.42563,0,0,0,.45312,1.60644,1.36608,1.36608,0,0,0,1.06934.53223,1.34039,1.34039,0,0,0,1.05664-.50879,2.34566,2.34566,0,0,0,.43457-1.55078,2.63239,2.63239,0,0,0-.44238-1.68653,1.36269,1.36269,0,0,0-1.09082-.5371,1.31339,1.31339,0,0,0-1.05664.5166A2.54435,2.54435,0,0,0,206.08255,80.26425Z"/>
      </g>
      <g>
        <path d="M144.856,96.00448v-5.5957h.85351v.84863a2.32331,2.32331,0,0,1,.60254-.78516,1.05762,1.05762,0,0,1,.6084-.18945,1.84985,1.84985,0,0,1,.97558.30567l-.32714.87988a1.35988,1.35988,0,0,0-.69532-.20606.90234.90234,0,0,0-.55859.1875,1.00985,1.00985,0,0,0-.35254.51856,3.69441,3.69441,0,0,0-.1582,1.10644v2.92969Z"/>
        <path d="M152.28958,94.20272l.97949.1211a2.39116,2.39116,0,0,1-.8584,1.333,2.91146,2.91146,0,0,1-3.54882-.28222,2.95316,2.95316,0,0,1-.71875-2.12012,3.09571,3.09571,0,0,1,.72656-2.19238,2.46292,2.46292,0,0,1,1.88672-.7793,2.39194,2.39194,0,0,1,1.833.76367,3.03511,3.03511,0,0,1,.71094,2.14942c0,.05664-.001.14062-.00488.25293h-4.17285a2.149,2.149,0,0,0,.52148,1.41211,1.55192,1.55192,0,0,0,1.16992.49023,1.4467,1.4467,0,0,0,.89063-.27441A1.82569,1.82569,0,0,0,152.28958,94.20272Zm-3.11426-1.5332h3.124a1.89486,1.89486,0,0,0-.3584-1.05957,1.45262,1.45262,0,0,0-1.17481-.54785,1.50532,1.50532,0,0,0-1.09765.4375A1.73068,1.73068,0,0,0,149.17532,92.66952Z"/>
        <path d="M154.0806,94.33456l.9375-.14746a1.30648,1.30648,0,0,0,.44042.86328,1.52594,1.52594,0,0,0,1.00879.30078,1.48723,1.48723,0,0,0,.96973-.26562.79844.79844,0,0,0,.31543-.625.57594.57594,0,0,0-.2793-.50586,4.12723,4.12723,0,0,0-.96875-.32129,8.87427,8.87427,0,0,1-1.44629-.45508,1.38014,1.38014,0,0,1-.81933-1.2832,1.441,1.441,0,0,1,.1709-.69336,1.53779,1.53779,0,0,1,.46679-.5293,1.95079,1.95079,0,0,1,.60254-.27637,2.88447,2.88447,0,0,1,.81934-.11328,3.24307,3.24307,0,0,1,1.15625.18945,1.57933,1.57933,0,0,1,.73535.51368,2.01484,2.01484,0,0,1,.32715.86718l-.92774.126a1.0104,1.0104,0,0,0-.36621-.67383,1.33674,1.33674,0,0,0-.85644-.24316,1.54706,1.54706,0,0,0-.93262.21679.62984.62984,0,0,0-.2793.50586.52257.52257,0,0,0,.11621.33106.82678.82678,0,0,0,.36329.25293c.0957.03515.374.11621.83789.24316a11.61616,11.61616,0,0,1,1.40429.43946,1.41853,1.41853,0,0,1,.624.498,1.38769,1.38769,0,0,1,.22656.81153,1.59093,1.59093,0,0,1-.27637.89257,1.79188,1.79188,0,0,1-.79785.64844,2.91351,2.91351,0,0,1-1.18066.22852,2.63113,2.63113,0,0,1-1.66211-.45215A2.11032,2.11032,0,0,1,154.0806,94.33456Z"/>
        <path d="M159.855,98.149V90.40878h.86426v.72754a2.13894,2.13894,0,0,1,.69043-.64063,1.90252,1.90252,0,0,1,.93261-.21289,2.21031,2.21031,0,0,1,1.26465.36914,2.26369,2.26369,0,0,1,.82715,1.04,3.81127,3.81127,0,0,1,.2793,1.47266,3.75212,3.75212,0,0,1-.3086,1.54687,2.33959,2.33959,0,0,1-2.13086,1.41895,1.78246,1.78246,0,0,1-.85156-.2002,1.94251,1.94251,0,0,1-.61914-.50488V98.149Zm.85937-4.91015a2.42881,2.42881,0,0,0,.4375,1.5957,1.33886,1.33886,0,0,0,1.0586.5166,1.36937,1.36937,0,0,0,1.083-.53516,2.538,2.538,0,0,0,.45019-1.65625,2.46752,2.46752,0,0,0-.44043-1.60156,1.32174,1.32174,0,0,0-1.05078-.53222,1.36531,1.36531,0,0,0-1.07227.5664A2.53351,2.53351,0,0,0,160.71438,93.23886Z"/>
        <path d="M165.50345,93.20663a2.88128,2.88128,0,0,1,.86425-2.30176,2.59906,2.59906,0,0,1,1.75977-.62207,2.51083,2.51083,0,0,1,1.88574.75586,2.87558,2.87558,0,0,1,.73242,2.08887,3.70067,3.70067,0,0,1-.32421,1.69922,2.29108,2.29108,0,0,1-.94336.96191,2.738,2.738,0,0,1-1.35059.3418,2.51538,2.51538,0,0,1-1.89941-.75293A3.00683,3.00683,0,0,1,165.50345,93.20663Zm.97461,0a2.38264,2.38264,0,0,0,.46875,1.60937,1.56162,1.56162,0,0,0,2.35546-.002,2.44039,2.44039,0,0,0,.46875-1.63867,2.312,2.312,0,0,0-.47167-1.57324,1.564,1.564,0,0,0-2.35254-.002A2.37076,2.37076,0,0,0,166.47806,93.20663Z"/>
        <path d="M171.857,96.00448v-5.5957h.85352v.7959a2.01294,2.01294,0,0,1,1.78125-.92188,2.3357,2.3357,0,0,1,.92969.18164,1.46257,1.46257,0,0,1,.63476.47656,1.82528,1.82528,0,0,1,.29492.70118,5.421,5.421,0,0,1,.05274.92187v3.44043h-.94824V92.60116a2.57106,2.57106,0,0,0-.11036-.86719.91567.91567,0,0,0-.39257-.458,1.246,1.246,0,0,0-.66114-.1709,1.53739,1.53739,0,0,0-1.0459.38379,1.9002,1.9002,0,0,0-.44043,1.46v3.05566Z"/>
        <path d="M177.479,94.33456l.9375-.14746a1.30654,1.30654,0,0,0,.44043.86328,1.52592,1.52592,0,0,0,1.00879.30078,1.48723,1.48723,0,0,0,.96973-.26562.79844.79844,0,0,0,.31543-.625.576.576,0,0,0-.2793-.50586,4.12723,4.12723,0,0,0-.96875-.32129,8.87427,8.87427,0,0,1-1.44629-.45508,1.3801,1.3801,0,0,1-.81933-1.2832,1.44112,1.44112,0,0,1,.17089-.69336,1.53792,1.53792,0,0,1,.4668-.5293,1.95079,1.95079,0,0,1,.60254-.27637,2.88442,2.88442,0,0,1,.81934-.11328,3.24307,3.24307,0,0,1,1.15625.18945,1.57938,1.57938,0,0,1,.73535.51368,2.01484,2.01484,0,0,1,.32715.86718l-.92774.126a1.0104,1.0104,0,0,0-.36621-.67383,1.33674,1.33674,0,0,0-.85644-.24316,1.54706,1.54706,0,0,0-.93262.21679.62984.62984,0,0,0-.2793.50586.52251.52251,0,0,0,.11621.33106.82674.82674,0,0,0,.36328.25293c.09571.03515.374.11621.83789.24316a11.61648,11.61648,0,0,1,1.4043.43946,1.41851,1.41851,0,0,1,.624.498,1.38762,1.38762,0,0,1,.22657.81153,1.59093,1.59093,0,0,1-.27637.89257,1.79193,1.79193,0,0,1-.79785.64844,2.91352,2.91352,0,0,1-1.18067.22852,2.63115,2.63115,0,0,1-1.66211-.45215A2.11041,2.11041,0,0,1,177.479,94.33456Z"/>
        <path d="M187.0845,94.20272l.97949.1211a2.39114,2.39114,0,0,1-.85839,1.333,2.91148,2.91148,0,0,1-3.54883-.28222,2.95316,2.95316,0,0,1-.71875-2.12012,3.09571,3.09571,0,0,1,.72656-2.19238,2.46292,2.46292,0,0,1,1.88672-.7793,2.392,2.392,0,0,1,1.833.76367,3.03511,3.03511,0,0,1,.71093,2.14942c0,.05664-.001.14062-.00488.25293h-4.17285a2.149,2.149,0,0,0,.52148,1.41211,1.55192,1.55192,0,0,0,1.16993.49023,1.44667,1.44667,0,0,0,.89062-.27441A1.82569,1.82569,0,0,0,187.0845,94.20272Zm-3.11426-1.5332h3.124a1.89486,1.89486,0,0,0-.3584-1.05957,1.45262,1.45262,0,0,0-1.17481-.54785,1.50533,1.50533,0,0,0-1.09765.4375A1.73068,1.73068,0,0,0,183.97024,92.66952Z"/>
        <path d="M188.87552,94.33456l.9375-.14746a1.30649,1.30649,0,0,0,.44043.86328,1.5259,1.5259,0,0,0,1.00879.30078,1.48722,1.48722,0,0,0,.96972-.26562.79844.79844,0,0,0,.31543-.625.576.576,0,0,0-.27929-.50586,4.12759,4.12759,0,0,0-.96875-.32129,8.87393,8.87393,0,0,1-1.44629-.45508,1.38013,1.38013,0,0,1-.81934-1.2832,1.441,1.441,0,0,1,.1709-.69336,1.53782,1.53782,0,0,1,.4668-.5293,1.95072,1.95072,0,0,1,.60253-.27637,2.88447,2.88447,0,0,1,.81934-.11328,3.243,3.243,0,0,1,1.15625.18945,1.57933,1.57933,0,0,1,.73535.51368,2.01472,2.01472,0,0,1,.32715.86718l-.92773.126a1.01048,1.01048,0,0,0-.36621-.67383,1.33677,1.33677,0,0,0-.85645-.24316,1.54708,1.54708,0,0,0-.93262.21679.62985.62985,0,0,0-.27929.50586.52251.52251,0,0,0,.11621.33106.82674.82674,0,0,0,.36328.25293c.0957.03515.374.11621.83789.24316a11.61708,11.61708,0,0,1,1.4043.43946,1.41856,1.41856,0,0,1,.624.498,1.38762,1.38762,0,0,1,.22656.81153,1.59093,1.59093,0,0,1-.27637.89257,1.79188,1.79188,0,0,1-.79785.64844,2.91347,2.91347,0,0,1-1.18066.22852,2.63115,2.63115,0,0,1-1.66211-.45215A2.11036,2.11036,0,0,1,188.87552,94.33456Z"/>
      </g>
    </g>
  </g>
</svg>
