<svg id="Layer_1" data-name="Layer 1" xmlns="http://www.w3.org/2000/svg" xmlns:xlink="http://www.w3.org/1999/xlink" width="361.41176" height="397.41176" viewBox="0 0 361.41176 397.41176">
  <defs>
    <style>
      .cls-1, .cls-4, .cls-5 {
        fill: none;
      }

      .cls-2 {
        clip-path: url(#clip-path);
      }

      .cls-3 {
        clip-path: url(#clip-path-2);
      }

      .cls-4, .cls-5 {
        stroke: #000;
        stroke-width: 0.71935px;
      }

      .cls-4 {
        stroke-miterlimit: 10;
      }

      .cls-6 {
        fill: #fff;
      }
    </style>
    <clipPath id="clip-path">
      <rect class="cls-1" x="-218.94118" y="-107.56704" width="792" height="613.91998"/>
    </clipPath>
    <clipPath id="clip-path-2">
      <rect class="cls-1" x="-218.94118" y="-107.56704" width="791.99994" height="612.16351"/>
    </clipPath>
  </defs>
  <g class="cls-2">
    <g class="cls-3">
      <line class="cls-4" x1="76.3503" y1="54.64545" x2="22.3994" y2="54.64545"/>
      <path class="cls-5" d="M22.3994,54.64545a8.63193,8.63193,0,1,1-.16588-1.684A8.61331,8.61331,0,0,1,22.3994,54.64545Z"/>
      <line class="cls-4" x1="292.1541" y1="54.64545" x2="331.71813" y2="54.64545"/>
      <path class="cls-4" d="M342.50835,65.43564q-10.79022,0-10.79022-10.79019t10.79022-10.79019"/>
      <rect class="cls-6" x="76.3503" y="4.29127" width="215.8038" height="100.7084"/>
      <rect class="cls-5" x="76.3503" y="4.29127" width="215.8038" height="100.7084"/>
      <line class="cls-4" x1="76.3503" y1="176.93427" x2="22.3994" y2="176.93427"/>
      <path class="cls-5" d="M22.3994,176.93427a8.63233,8.63233,0,1,1-.16588-1.68408A8.61308,8.61308,0,0,1,22.3994,176.93427Z"/>
      <line class="cls-4" x1="77.78902" y1="215.05961" x2="31.75086" y2="215.05961"/>
      <path class="cls-4" d="M20.24136,203.55005q11.50947,0,11.5095,11.50956t-11.5095,11.50952"/>
      <rect class="cls-6" x="76.3503" y="148.16044" width="215.8038" height="100.70844"/>
      <rect class="cls-5" x="76.3503" y="148.16044" width="215.8038" height="100.70844"/>
      <polyline class="cls-4" points="78.508 342.384 13.767 342.384 13.767 223.692"/>
      <path class="cls-5" d="M22.3994,215.05961a8.63193,8.63193,0,1,1-.16588-1.68412A8.61339,8.61339,0,0,1,22.3994,215.05961Z"/>
      <polyline class="cls-4" points="292.154 342.384 349.702 342.384 349.702 63.637"/>
      <path class="cls-5" d="M358.69365,54.64545a8.99292,8.99292,0,1,1-.17285-1.75421A8.97576,8.97576,0,0,1,358.69365,54.64545Z"/>
      <rect class="cls-6" x="76.3503" y="292.02964" width="215.8038" height="100.70844"/>
      <rect class="cls-5" x="76.3503" y="292.02964" width="215.8038" height="100.70844"/>
      <polygon class="cls-6" points="269.495 11.485 284.961 11.485 284.961 33.065 269.495 33.065 269.495 28.749 263.38 28.749 263.38 24.433 269.495 24.433 269.495 20.117 263.38 20.117 263.38 15.801 269.495 15.801 269.495 11.485"/>
      <polygon class="cls-4" points="269.495 11.485 284.961 11.485 284.961 33.065 269.495 33.065 269.495 28.749 263.38 28.749 263.38 24.433 269.495 24.433 269.495 20.117 263.38 20.117 263.38 15.801 269.495 15.801 269.495 11.485"/>
      <path class="cls-4" d="M269.49474,24.433h6.11444v4.316h-6.11444m0-12.94821h6.11444v4.31607h-6.11444"/>
      <polygon class="cls-6" points="269.495 155.354 284.961 155.354 284.961 176.934 269.495 176.934 269.495 172.618 263.38 172.618 263.38 168.302 269.495 168.302 269.495 163.986 263.38 163.986 263.38 159.67 269.495 159.67 269.495 155.354"/>
      <polygon class="cls-4" points="269.495 155.354 284.961 155.354 284.961 176.934 269.495 176.934 269.495 172.618 263.38 172.618 263.38 168.302 269.495 168.302 269.495 163.986 263.38 163.986 263.38 159.67 269.495 159.67 269.495 155.354"/>
      <path class="cls-4" d="M269.49474,168.3021h6.11444v4.3161h-6.11444m0-12.94824h6.11444V163.986h-6.11444"/>
      <polygon class="cls-6" points="269.495 299.223 284.961 299.223 284.961 320.803 269.495 320.803 269.495 316.487 263.38 316.487 263.38 312.171 269.495 312.171 269.495 307.855 263.38 307.855 263.38 303.539 269.495 303.539 269.495 299.223"/>
      <polygon class="cls-4" points="269.495 299.223 284.961 299.223 284.961 320.803 269.495 320.803 269.495 316.487 263.38 316.487 263.38 312.171 269.495 312.171 269.495 307.855 263.38 307.855 263.38 303.539 269.495 303.539 269.495 299.223"/>
      <path class="cls-4" d="M269.49474,312.17133h6.11444v4.31607h-6.11444m0-12.94824h6.11444v4.3161h-6.11444"/>
      <g>
        <path d="M31.35863,50.32609l.97949.12109a2.38953,2.38953,0,0,1-.8584,1.333,2.91041,2.91041,0,0,1-3.54883-.28174,2.95446,2.95446,0,0,1-.71875-2.12061,3.09282,3.09282,0,0,1,.72657-2.19189,2.46159,2.46159,0,0,1,1.88672-.77979,2.39025,2.39025,0,0,1,1.833.76368,3.03473,3.03473,0,0,1,.71094,2.1499c0,.05615-.001.14062-.00488.25293H28.19164a2.151,2.151,0,0,0,.52148,1.41211,1.55323,1.55323,0,0,0,1.16992.48974,1.45265,1.45265,0,0,0,.89063-.27392A1.82739,1.82739,0,0,0,31.35863,50.32609Zm-3.11426-1.53321h3.124A1.89023,1.89023,0,0,0,31.01,47.7338a1.45262,1.45262,0,0,0-1.17481-.54785,1.503,1.503,0,0,0-1.09766.437A1.73072,1.73072,0,0,0,28.24437,48.79288Z"/>
        <path d="M32.89671,52.12784l2.044-2.9082-1.8916-2.687H34.2346l.85938,1.312q.2417.37353.38965.627.23145-.3479.42676-.6167l.94336-1.32226h1.13281L36.053,49.16691,38.134,52.12784H36.969l-1.14844-1.73877-.30566-.46875-1.46973,2.20752Z"/>
        <path d="M38.92406,54.27237V46.53263h.86426v.72705a2.12635,2.12635,0,0,1,.69043-.64014,1.89713,1.89713,0,0,1,.93261-.21338,2.2136,2.2136,0,0,1,1.26465.36866,2.26749,2.26749,0,0,1,.82715,1.04052,3.81131,3.81131,0,0,1,.2793,1.47266,3.74661,3.74661,0,0,1-.3086,1.54639A2.34269,2.34269,0,0,1,41.343,52.25431a1.78815,1.78815,0,0,1-.85156-.2002,1.94486,1.94486,0,0,1-.61914-.50586v2.72412Zm.85937-4.91064a2.43178,2.43178,0,0,0,.4375,1.59668,1.3398,1.3398,0,0,0,1.0586.51611,1.37175,1.37175,0,0,0,1.083-.53466,2.54006,2.54006,0,0,0,.4502-1.65723,2.46843,2.46843,0,0,0-.44043-1.60156,1.32456,1.32456,0,0,0-1.05078-.53223,1.36672,1.36672,0,0,0-1.07227.56641A2.53714,2.53714,0,0,0,39.78343,49.36173Z"/>
        <path d="M44.5725,49.33a2.8837,2.8837,0,0,1,.86425-2.30224,2.60112,2.60112,0,0,1,1.75977-.62159,2.51087,2.51087,0,0,1,1.88574.75586,2.87759,2.87759,0,0,1,.73242,2.08936,3.70258,3.70258,0,0,1-.32422,1.69873,2.29091,2.29091,0,0,1-.94336.96191,2.7436,2.7436,0,0,1-1.35058.34229,2.514,2.514,0,0,1-1.89942-.75342A3.00765,3.00765,0,0,1,44.5725,49.33Zm.9746,0a2.38411,2.38411,0,0,0,.46875,1.60987,1.56165,1.56165,0,0,0,2.35547-.00293,2.439,2.439,0,0,0,.46875-1.63819,2.31143,2.31143,0,0,0-.47168-1.57275,1.564,1.564,0,0,0-2.35254-.00293A2.37386,2.37386,0,0,0,45.5471,49.33Z"/>
        <path d="M50.5471,50.45792l.9375-.148a1.30894,1.30894,0,0,0,.44043.86426,1.53119,1.53119,0,0,0,1.00879.30029,1.48426,1.48426,0,0,0,.96973-.26611.7968.7968,0,0,0,.31543-.62451.5746.5746,0,0,0-.2793-.50537,4.11954,4.11954,0,0,0-.96875-.32178,8.76431,8.76431,0,0,1-1.44629-.45557,1.38009,1.38009,0,0,1-.81933-1.28271,1.43911,1.43911,0,0,1,.1709-.69287,1.53512,1.53512,0,0,1,.46679-.52979,1.95079,1.95079,0,0,1,.60254-.27636,2.86679,2.86679,0,0,1,.81934-.11329,3.232,3.232,0,0,1,1.15625.18946,1.57578,1.57578,0,0,1,.73535.51367,2.02009,2.02009,0,0,1,.32715.8667l-.92774.12646a1.01377,1.01377,0,0,0-.36621-.67431,1.33961,1.33961,0,0,0-.85644-.24219,1.55135,1.55135,0,0,0-.93262.21582.63118.63118,0,0,0-.2793.50586.5242.5242,0,0,0,.11621.332.83467.83467,0,0,0,.36329.25293c.0957.03516.374.11572.83789.24219a11.68564,11.68564,0,0,1,1.40429.43994,1.41855,1.41855,0,0,1,.624.498,1.38713,1.38713,0,0,1,.22656.811,1.589,1.589,0,0,1-.27637.89307,1.7887,1.7887,0,0,1-.79785.64843,2.90537,2.90537,0,0,1-1.18066.229,2.628,2.628,0,0,1-1.66211-.45313A2.1091,2.1091,0,0,1,50.5471,50.45792Z"/>
        <path d="M60.1516,50.32609l.97949.12109a2.38953,2.38953,0,0,1-.8584,1.333,2.91041,2.91041,0,0,1-3.54883-.28174,2.95446,2.95446,0,0,1-.71875-2.12061,3.09282,3.09282,0,0,1,.72657-2.19189,2.46158,2.46158,0,0,1,1.88671-.77979,2.39025,2.39025,0,0,1,1.833.76368,3.03473,3.03473,0,0,1,.71094,2.1499c0,.05615-.001.14062-.00488.25293H56.9846a2.151,2.151,0,0,0,.52149,1.41211,1.55321,1.55321,0,0,0,1.16992.48974,1.45265,1.45265,0,0,0,.89063-.27392A1.82739,1.82739,0,0,0,60.1516,50.32609Zm-3.11426-1.53321h3.124a1.89016,1.89016,0,0,0-.3584-1.05908,1.4526,1.4526,0,0,0-1.1748-.54785,1.503,1.503,0,0,0-1.09766.437A1.73072,1.73072,0,0,0,57.03734,48.79288Z"/>
        <path d="M65.95238,52.12784v-.706a1.74174,1.74174,0,0,1-1.56543.83252,2.19862,2.19862,0,0,1-1.23047-.36865,2.43074,2.43074,0,0,1-.86914-1.03028,3.564,3.564,0,0,1-.30762-1.52,3.972,3.972,0,0,1,.2793-1.52,2.20174,2.20174,0,0,1,.83691-1.04589,2.2441,2.2441,0,0,1,1.249-.36329,1.8708,1.8708,0,0,1,.90136.21338,1.89019,1.89019,0,0,1,.64258.55567v-2.771h.94336v7.72363Zm-2.99805-2.79248a2.4253,2.4253,0,0,0,.45313,1.60694,1.36456,1.36456,0,0,0,1.06933.53222,1.34283,1.34283,0,0,0,1.05664-.5083,2.34851,2.34851,0,0,0,.43457-1.55176,2.63267,2.63267,0,0,0-.44238-1.686,1.36267,1.36267,0,0,0-1.09082-.53711,1.31435,1.31435,0,0,0-1.05664.51611A2.54535,2.54535,0,0,0,62.95433,49.33536Z"/>
      </g>
      <g>
        <path d="M27.24144,58.44278V57.35245h.94824v1.09033Zm0,6.63331V59.48087h.94824v5.59522Z"/>
        <path d="M29.633,65.07609V59.48087h.85352v.79541a2.01187,2.01187,0,0,1,1.78125-.92187,2.33553,2.33553,0,0,1,.92969.18164,1.45945,1.45945,0,0,1,.63476.477,1.81966,1.81966,0,0,1,.29492.70068,5.425,5.425,0,0,1,.05274.92188v3.44043h-.94824V61.67277a2.56777,2.56777,0,0,0-.11036-.8667.91674.91674,0,0,0-.39257-.4585,1.24625,1.24625,0,0,0-.66114-.17139,1.53586,1.53586,0,0,0-1.0459.38477,1.8982,1.8982,0,0,0-.44043,1.45947v3.05567Z"/>
        <path d="M37.70531,64.22794l.13672.8374a3.51991,3.51991,0,0,1-.7168.08448,1.62822,1.62822,0,0,1-.80078-.16309.91615.91615,0,0,1-.40039-.42969,3.39474,3.39474,0,0,1-.11621-1.11963V60.21818h-.69532v-.73731h.69532V58.09513l.94336-.56885v1.95459h.9541v.73731h-.9541v3.272a1.659,1.659,0,0,0,.0498.52148.38972.38972,0,0,0,.16406.18457.62678.62678,0,0,0,.32325.06836A3.12374,3.12374,0,0,0,37.70531,64.22794Z"/>
        <path d="M42.46312,63.27433l.97949.12109a2.38944,2.38944,0,0,1-.8584,1.333,2.91039,2.91039,0,0,1-3.54882-.28174,2.95439,2.95439,0,0,1-.71875-2.1206,3.09283,3.09283,0,0,1,.72656-2.1919,2.46158,2.46158,0,0,1,1.88672-.77978,2.39028,2.39028,0,0,1,1.833.76367,3.03477,3.03477,0,0,1,.71093,2.1499c0,.05615-.001.14063-.00488.25293H39.29613a2.151,2.151,0,0,0,.52148,1.41211,1.55324,1.55324,0,0,0,1.16992.48975,1.45257,1.45257,0,0,0,.89063-.27393A1.82732,1.82732,0,0,0,42.46312,63.27433Zm-3.11426-1.53321h3.124a1.89031,1.89031,0,0,0-.3584-1.05908,1.45262,1.45262,0,0,0-1.17481-.54785,1.503,1.503,0,0,0-1.09765.437A1.7307,1.7307,0,0,0,39.34886,61.74112Z"/>
        <path d="M44.62328,65.07609V59.48087h.85351V60.329a2.313,2.313,0,0,1,.60254-.78516,1.054,1.054,0,0,1,.6084-.18945,1.85435,1.85435,0,0,1,.97559.30566l-.32715.87988a1.35451,1.35451,0,0,0-.69532-.20556.90489.90489,0,0,0-.55859.187,1.0072,1.0072,0,0,0-.35254.519,3.68991,3.68991,0,0,0-.1582,1.10645v2.9292Z"/>
        <path d="M48.45238,65.07609V60.21818h-.83692v-.73731h.83692v-.59521a2.5865,2.5865,0,0,1,.10058-.83789,1.21129,1.21129,0,0,1,.48145-.59815,1.73893,1.73893,0,0,1,.9668-.229,4.66262,4.66262,0,0,1,.88574.09472l-.14258.82715a3.17642,3.17642,0,0,0-.55859-.05273.832.832,0,0,0-.61133.18457,1.00117,1.00117,0,0,0-.17871.68994v.5166h1.09082v.73731H49.39574v4.85791Z"/>
        <path d="M54.87523,64.38566a3.529,3.529,0,0,1-1.01367.63232,2.93075,2.93075,0,0,1-1.0459.18457,2.03522,2.03522,0,0,1-1.418-.45068,1.48616,1.48616,0,0,1-.49512-1.15088,1.56147,1.56147,0,0,1,.67774-1.29639,2.29852,2.29852,0,0,1,.68164-.31055,6.78452,6.78452,0,0,1,.84277-.14257,8.66258,8.66258,0,0,0,1.69141-.32666q.00585-.19483.00586-.24756a1.04424,1.04424,0,0,0-.26953-.81641,1.585,1.585,0,0,0-1.08008-.32129,1.67369,1.67369,0,0,0-.98731.23438,1.42794,1.42794,0,0,0-.47168.82959l-.92773-.12647a2.30352,2.30352,0,0,1,.417-.96142,1.81694,1.81694,0,0,1,.83789-.564,3.7433,3.7433,0,0,1,1.26953-.19726,3.36324,3.36324,0,0,1,1.16407.16845,1.52469,1.52469,0,0,1,.6582.42432,1.49505,1.49505,0,0,1,.2959.64551,5.40086,5.40086,0,0,1,.04687.87451v1.26416a13.49537,13.49537,0,0,0,.06055,1.67285,2.08559,2.08559,0,0,0,.24023.67188h-.99121A2.03183,2.03183,0,0,1,54.87523,64.38566Zm-.0791-2.11768a6.956,6.956,0,0,1-1.54883.3584,3.57644,3.57644,0,0,0-.82715.18945.82717.82717,0,0,0-.374.30811.83844.83844,0,0,0,.15527,1.083,1.23692,1.23692,0,0,0,.84082.25292,1.95881,1.95881,0,0,0,.97461-.23974,1.48019,1.48019,0,0,0,.627-.65625,2.295,2.295,0,0,0,.15235-.94824Z"/>
        <path d="M60.87621,63.02677l.93261.12109a2.41542,2.41542,0,0,1-.78222,1.50928,2.27963,2.27963,0,0,1-1.54688.54541,2.40341,2.40341,0,0,1-1.84668-.751,3.04777,3.04777,0,0,1-.69726-2.15185,3.89446,3.89446,0,0,1,.2998-1.58594,2.09388,2.09388,0,0,1,.91406-1.01953,2.71267,2.71267,0,0,1,1.33594-.33984,2.32459,2.32459,0,0,1,1.49121.46093,2.11436,2.11436,0,0,1,.74219,1.30909l-.92188.14257a1.535,1.535,0,0,0-.46582-.84863,1.20936,1.20936,0,0,0-.80859-.28418,1.47162,1.47162,0,0,0-1.165.51367,2.44251,2.44251,0,0,0-.44726,1.62549,2.519,2.519,0,0,0,.43164,1.63818,1.40636,1.40636,0,0,0,1.12793.51124,1.33156,1.33156,0,0,0,.93261-.34229A1.7,1.7,0,0,0,60.87621,63.02677Z"/>
        <path d="M66.45043,63.27433l.97949.12109a2.38949,2.38949,0,0,1-.8584,1.333,2.91041,2.91041,0,0,1-3.54883-.28174,2.95443,2.95443,0,0,1-.71875-2.1206,3.09287,3.09287,0,0,1,.72656-2.1919,2.46158,2.46158,0,0,1,1.88672-.77978,2.39025,2.39025,0,0,1,1.833.76367,3.03473,3.03473,0,0,1,.71094,2.1499c0,.05615-.001.14063-.00489.25293H63.28343a2.151,2.151,0,0,0,.52149,1.41211,1.55322,1.55322,0,0,0,1.16992.48975,1.45254,1.45254,0,0,0,.89062-.27393A1.8274,1.8274,0,0,0,66.45043,63.27433Zm-3.11426-1.53321h3.124a1.89016,1.89016,0,0,0-.3584-1.05908,1.45261,1.45261,0,0,0-1.1748-.54785,1.503,1.503,0,0,0-1.09766.437A1.73074,1.73074,0,0,0,63.33617,61.74112Z"/>
      </g>
      <g>
        <path d="M31.35863,171.89493l.97949.1211a2.39116,2.39116,0,0,1-.8584,1.333,2.91148,2.91148,0,0,1-3.54883-.28222,2.9532,2.9532,0,0,1-.71875-2.12012,3.09571,3.09571,0,0,1,.72657-2.19238,2.46292,2.46292,0,0,1,1.88672-.7793,2.39194,2.39194,0,0,1,1.833.76367,3.03511,3.03511,0,0,1,.71094,2.14942c0,.05664-.001.14062-.00488.25293H28.19164a2.149,2.149,0,0,0,.52148,1.41211,1.55192,1.55192,0,0,0,1.16992.49023,1.4467,1.4467,0,0,0,.89063-.27441A1.82576,1.82576,0,0,0,31.35863,171.89493Zm-3.11426-1.5332h3.124a1.89479,1.89479,0,0,0-.35839-1.05957,1.45262,1.45262,0,0,0-1.17481-.54785,1.50534,1.50534,0,0,0-1.09766.4375A1.73072,1.73072,0,0,0,28.24437,170.36173Z"/>
        <path d="M32.89671,173.69669l2.044-2.9082-1.8916-2.6875H34.2346l.85938,1.3125q.2417.37353.38965.62695.23145-.34863.42676-.61621l.94336-1.32324h1.13281l-1.9336,2.63476,2.08106,2.96094H36.969l-1.14844-1.73828-.30566-.46973-1.46973,2.208Z"/>
        <path d="M38.92406,175.84122V168.101h.86426v.72754a2.13894,2.13894,0,0,1,.69043-.64063,1.90249,1.90249,0,0,1,.93261-.21289,2.21031,2.21031,0,0,1,1.26465.36914,2.26369,2.26369,0,0,1,.82715,1.04,3.81127,3.81127,0,0,1,.2793,1.47266,3.75212,3.75212,0,0,1-.3086,1.54687,2.33961,2.33961,0,0,1-2.13086,1.41895,1.78246,1.78246,0,0,1-.85156-.2002,1.9424,1.9424,0,0,1-.61914-.50488v2.72363Zm.85937-4.91015a2.42881,2.42881,0,0,0,.4375,1.5957,1.33885,1.33885,0,0,0,1.0586.5166,1.36934,1.36934,0,0,0,1.083-.53516,2.53792,2.53792,0,0,0,.4502-1.65625,2.46752,2.46752,0,0,0-.44043-1.60156,1.32174,1.32174,0,0,0-1.05078-.53222,1.36531,1.36531,0,0,0-1.07227.5664A2.53351,2.53351,0,0,0,39.78343,170.93107Z"/>
        <path d="M44.5725,170.89884a2.88128,2.88128,0,0,1,.86425-2.30176,2.59906,2.59906,0,0,1,1.75977-.62207,2.51083,2.51083,0,0,1,1.88574.75586,2.87558,2.87558,0,0,1,.73242,2.08887,3.70066,3.70066,0,0,1-.32422,1.69922,2.291,2.291,0,0,1-.94336.96191,2.738,2.738,0,0,1-1.35058.3418,2.51542,2.51542,0,0,1-1.89942-.75293A3.00687,3.00687,0,0,1,44.5725,170.89884Zm.9746,0a2.38264,2.38264,0,0,0,.46875,1.60937,1.56163,1.56163,0,0,0,2.35547-.00195,2.44039,2.44039,0,0,0,.46875-1.63867,2.312,2.312,0,0,0-.47168-1.57324,1.564,1.564,0,0,0-2.35254-.002A2.37076,2.37076,0,0,0,45.5471,170.89884Z"/>
        <path d="M50.5471,172.02677l.9375-.14746a1.30654,1.30654,0,0,0,.44043.86328,1.52594,1.52594,0,0,0,1.00879.30078,1.48723,1.48723,0,0,0,.96973-.26562.79844.79844,0,0,0,.31543-.625.57594.57594,0,0,0-.2793-.50586,4.12723,4.12723,0,0,0-.96875-.32129,8.87427,8.87427,0,0,1-1.44629-.45508,1.38014,1.38014,0,0,1-.81933-1.2832,1.441,1.441,0,0,1,.1709-.69336,1.53779,1.53779,0,0,1,.46679-.5293,1.95079,1.95079,0,0,1,.60254-.27637,2.88447,2.88447,0,0,1,.81934-.11328,3.24307,3.24307,0,0,1,1.15625.18945,1.57933,1.57933,0,0,1,.73535.51368,2.01484,2.01484,0,0,1,.32715.86718l-.92774.126a1.01043,1.01043,0,0,0-.36621-.67383,1.33674,1.33674,0,0,0-.85644-.24316,1.547,1.547,0,0,0-.93262.2168.62982.62982,0,0,0-.2793.50585.52257.52257,0,0,0,.11621.33106.82678.82678,0,0,0,.36329.25293c.0957.03516.374.11621.83789.24316a11.61677,11.61677,0,0,1,1.40429.43946,1.41853,1.41853,0,0,1,.624.498,1.38769,1.38769,0,0,1,.22656.81153,1.59093,1.59093,0,0,1-.27637.89257,1.79188,1.79188,0,0,1-.79785.64844,2.91351,2.91351,0,0,1-1.18066.22852,2.63113,2.63113,0,0,1-1.66211-.45215A2.11037,2.11037,0,0,1,50.5471,172.02677Z"/>
        <path d="M60.1516,171.89493l.97949.1211a2.39116,2.39116,0,0,1-.8584,1.333,2.91148,2.91148,0,0,1-3.54883-.28222,2.9532,2.9532,0,0,1-.71875-2.12012,3.09571,3.09571,0,0,1,.72657-2.19238,2.46291,2.46291,0,0,1,1.88671-.7793,2.392,2.392,0,0,1,1.833.76367,3.03511,3.03511,0,0,1,.71094,2.14942c0,.05664-.001.14062-.00488.25293H56.9846a2.149,2.149,0,0,0,.52149,1.41211,1.5519,1.5519,0,0,0,1.16992.49023,1.4467,1.4467,0,0,0,.89063-.27441A1.82576,1.82576,0,0,0,60.1516,171.89493Zm-3.11426-1.5332h3.124a1.89471,1.89471,0,0,0-.3584-1.05957,1.4526,1.4526,0,0,0-1.1748-.54785,1.50534,1.50534,0,0,0-1.09766.4375A1.73072,1.73072,0,0,0,57.03734,170.36173Z"/>
        <path d="M65.95238,173.69669v-.706a1.74233,1.74233,0,0,1-1.56543.832,2.19422,2.19422,0,0,1-1.23047-.36817,2.42773,2.42773,0,0,1-.86914-1.03027,3.56331,3.56331,0,0,1-.30762-1.51953,3.97456,3.97456,0,0,1,.2793-1.52051,2.19716,2.19716,0,0,1,.83691-1.0459,2.24417,2.24417,0,0,1,1.249-.36328,1.861,1.861,0,0,1,1.54394.76953v-2.77148h.94336v7.72363Zm-2.99805-2.792a2.42557,2.42557,0,0,0,.45313,1.60644,1.366,1.366,0,0,0,1.06933.53223,1.34036,1.34036,0,0,0,1.05664-.50879,2.34561,2.34561,0,0,0,.43457-1.55078,2.63236,2.63236,0,0,0-.44238-1.68652,1.36267,1.36267,0,0,0-1.09082-.53711,1.3134,1.3134,0,0,0-1.05664.5166A2.54442,2.54442,0,0,0,62.95433,170.9047Z"/>
      </g>
      <g>
        <path d="M27.24144,180.01212V178.9213h.94824v1.09082Zm0,6.63281v-5.5957h.94824v5.5957Z"/>
        <path d="M29.633,186.64493v-5.5957h.85352v.7959a2.01294,2.01294,0,0,1,1.78125-.92188,2.3357,2.3357,0,0,1,.92969.18164,1.46251,1.46251,0,0,1,.63476.47657,1.82517,1.82517,0,0,1,.29492.70117,5.421,5.421,0,0,1,.05274.92187v3.44043h-.94824v-3.40332a2.571,2.571,0,0,0-.11036-.86718.91569.91569,0,0,0-.39257-.458,1.246,1.246,0,0,0-.66114-.1709,1.53739,1.53739,0,0,0-1.0459.38379,1.9002,1.9002,0,0,0-.44043,1.46v3.05566Z"/>
        <path d="M37.70531,185.7963l.13672.83789a3.48971,3.48971,0,0,1-.7168.085,1.61656,1.61656,0,0,1-.80078-.16406.91416.91416,0,0,1-.40039-.42871,3.40041,3.40041,0,0,1-.11621-1.12012v-3.21875h-.69532v-.73828h.69532v-1.38574l.94336-.56836v1.9541h.9541v.73828h-.9541V185.059a1.65909,1.65909,0,0,0,.0498.52148.39424.39424,0,0,0,.16406.18457.62678.62678,0,0,0,.32325.06836A2.98137,2.98137,0,0,0,37.70531,185.7963Z"/>
        <path d="M42.46312,184.84318l.97949.12109a2.39117,2.39117,0,0,1-.8584,1.333,2.91149,2.91149,0,0,1-3.54882-.28223,2.95316,2.95316,0,0,1-.71875-2.12012,3.09573,3.09573,0,0,1,.72656-2.19238,2.46292,2.46292,0,0,1,1.88672-.7793,2.392,2.392,0,0,1,1.833.76368,3.03511,3.03511,0,0,1,.71093,2.14941c0,.05664-.001.14062-.00488.25293H39.29613a2.14893,2.14893,0,0,0,.52148,1.41211,1.55188,1.55188,0,0,0,1.16992.49023,1.44667,1.44667,0,0,0,.89063-.27441A1.82566,1.82566,0,0,0,42.46312,184.84318ZM39.34886,183.31h3.124a1.89486,1.89486,0,0,0-.3584-1.05957,1.45262,1.45262,0,0,0-1.17481-.54785,1.50533,1.50533,0,0,0-1.09765.4375A1.73068,1.73068,0,0,0,39.34886,183.31Z"/>
        <path d="M44.62328,186.64493v-5.5957h.85351v.84863a2.32327,2.32327,0,0,1,.60254-.78515,1.05755,1.05755,0,0,1,.6084-.18946,1.85,1.85,0,0,1,.97559.30567l-.32715.87988a1.35986,1.35986,0,0,0-.69532-.20605.90234.90234,0,0,0-.55859.1875,1.00987,1.00987,0,0,0-.35254.51855,3.69448,3.69448,0,0,0-.1582,1.10645v2.92968Z"/>
        <path d="M48.45238,186.64493v-4.85742h-.83692v-.73828h.83692v-.59473a2.58658,2.58658,0,0,1,.10058-.83789,1.20807,1.20807,0,0,1,.48145-.59765,1.73463,1.73463,0,0,1,.9668-.2295,4.62233,4.62233,0,0,1,.88574.09473l-.14258.82715a3.17547,3.17547,0,0,0-.55859-.05273.832.832,0,0,0-.61133.18457,1.00094,1.00094,0,0,0-.17871.69043v.51562h1.09082v.73828H49.39574v4.85742Z"/>
        <path d="M54.87523,185.9545a3.54225,3.54225,0,0,1-1.01367.63282,2.93054,2.93054,0,0,1-1.0459.18359,2.03271,2.03271,0,0,1-1.418-.4502,1.48572,1.48572,0,0,1-.49512-1.15136,1.56323,1.56323,0,0,1,.67774-1.2959,2.29826,2.29826,0,0,1,.68164-.31055,6.8788,6.8788,0,0,1,.84277-.14258,8.66927,8.66927,0,0,0,1.69141-.32617c.0039-.12988.00586-.21289.00586-.248a1.04563,1.04563,0,0,0-.26953-.81641,1.58742,1.58742,0,0,0-1.08008-.32129,1.6737,1.6737,0,0,0-.98731.23437,1.42784,1.42784,0,0,0-.47168.83008l-.92773-.127a2.30419,2.30419,0,0,1,.417-.96094,1.81761,1.81761,0,0,1,.83789-.56445,3.73126,3.73126,0,0,1,1.26953-.19727,3.3618,3.3618,0,0,1,1.16407.16895,1.51974,1.51974,0,0,1,.6582.42383,1.49507,1.49507,0,0,1,.2959.6455,5.39385,5.39385,0,0,1,.04687.874v1.26465a13.49549,13.49549,0,0,0,.06055,1.67285,2.08545,2.08545,0,0,0,.24023.67187h-.99121A2.02861,2.02861,0,0,1,54.87523,185.9545Zm-.0791-2.11816a6.9022,6.9022,0,0,1-1.54883.3584,3.591,3.591,0,0,0-.82715.19043.8232.8232,0,0,0-.374.30761.83844.83844,0,0,0,.15527,1.083,1.2394,1.2394,0,0,0,.84082.25293,1.954,1.954,0,0,0,.97461-.24023,1.47551,1.47551,0,0,0,.627-.65528,2.30007,2.30007,0,0,0,.15235-.94921Z"/>
        <path d="M60.87621,184.59513l.93261.12109a2.41414,2.41414,0,0,1-.78222,1.50977,2.28168,2.28168,0,0,1-1.54688.54492,2.40442,2.40442,0,0,1-1.84668-.75,3.04909,3.04909,0,0,1-.69726-2.15234,3.8944,3.8944,0,0,1,.2998-1.58594,2.09384,2.09384,0,0,1,.91406-1.01953,2.71257,2.71257,0,0,1,1.33594-.33985,2.32176,2.32176,0,0,1,1.49121.46094,2.11557,2.11557,0,0,1,.74219,1.30957l-.92188.1416a1.53371,1.53371,0,0,0-.46582-.84765,1.21007,1.21007,0,0,0-.80859-.28516,1.4747,1.4747,0,0,0-1.165.51367,2.44487,2.44487,0,0,0-.44726,1.626,2.52055,2.52055,0,0,0,.43164,1.63867,1.406,1.406,0,0,0,1.12793.51074,1.32971,1.32971,0,0,0,.93261-.34277A1.69617,1.69617,0,0,0,60.87621,184.59513Z"/>
        <path d="M66.45043,184.84318l.97949.12109a2.39122,2.39122,0,0,1-.8584,1.333,2.9115,2.9115,0,0,1-3.54883-.28223,2.9532,2.9532,0,0,1-.71875-2.12012,3.09577,3.09577,0,0,1,.72656-2.19238,2.46292,2.46292,0,0,1,1.88672-.7793,2.392,2.392,0,0,1,1.833.76368,3.03507,3.03507,0,0,1,.71094,2.14941c0,.05664-.001.14062-.00489.25293H63.28343a2.149,2.149,0,0,0,.52149,1.41211,1.55187,1.55187,0,0,0,1.16992.49023,1.44665,1.44665,0,0,0,.89062-.27441A1.82574,1.82574,0,0,0,66.45043,184.84318ZM63.33617,183.31h3.124a1.89471,1.89471,0,0,0-.3584-1.05957,1.45261,1.45261,0,0,0-1.1748-.54785,1.50534,1.50534,0,0,0-1.09766.4375A1.73072,1.73072,0,0,0,63.33617,183.31Z"/>
      </g>
      <g>
        <path d="M124.54125,35.43986V34.08243l7.84375-3.312v1.4458L126.16429,34.769l6.22071,2.57715v1.44628Z"/>
        <path d="M134.20335,35.43986V34.08243l7.84375-3.312v1.4458L135.8264,34.769l6.2207,2.57715v1.44628Z"/>
        <path d="M149.64964,37.4755l1.42969.186a3.71052,3.71052,0,0,1-1.20019,2.31446,3.49554,3.49554,0,0,1-2.3711.83594,3.683,3.683,0,0,1-2.83105-1.15137,4.66813,4.66813,0,0,1-1.07031-3.29981,5.97823,5.97823,0,0,1,.46-2.43164,3.21405,3.21405,0,0,1,1.40234-1.56347,4.158,4.158,0,0,1,2.04785-.521,3.561,3.561,0,0,1,2.28613.707,3.24444,3.24444,0,0,1,1.13868,2.00733l-1.41309.21826a2.34585,2.34585,0,0,0-.71582-1.30078,1.84954,1.84954,0,0,0-1.23926-.436,2.25961,2.25961,0,0,0-1.78613.7876,3.74316,3.74316,0,0,0-.68652,2.49219,3.8609,3.8609,0,0,0,.66308,2.51269,2.15435,2.15435,0,0,0,1.72852.7832,2.03837,2.03837,0,0,0,1.42968-.5249A2.60511,2.60511,0,0,0,149.64964,37.4755Z"/>
        <path d="M151.78246,36.32853a4.42463,4.42463,0,0,1,1.32422-3.53076,3.9949,3.9949,0,0,1,2.69824-.95313,3.852,3.852,0,0,1,2.89258,1.15918,4.41345,4.41345,0,0,1,1.123,3.20313,5.67684,5.67684,0,0,1-.49707,2.60546,3.5173,3.5173,0,0,1-1.44629,1.47461,4.20888,4.20888,0,0,1-2.07226.52491,3.854,3.854,0,0,1-2.91211-1.15528A4.61472,4.61472,0,0,1,151.78246,36.32853Zm1.49414,0a3.65238,3.65238,0,0,0,.71875,2.46777,2.39465,2.39465,0,0,0,3.61133-.00391,3.74005,3.74005,0,0,0,.71875-2.51269,3.547,3.547,0,0,0-.72266-2.41113,2.39736,2.39736,0,0,0-3.60742-.0044A3.639,3.639,0,0,0,153.2766,36.32853Z"/>
        <path d="M161.52464,40.61808V32.03849h1.30079V33.2421a3.05024,3.05024,0,0,1,1.07421-1.01367,3.01869,3.01869,0,0,1,1.52637-.38379,2.82371,2.82371,0,0,1,1.56348.396,2.11932,2.11932,0,0,1,.86035,1.10693,3.08,3.08,0,0,1,2.65039-1.50293,2.61242,2.61242,0,0,1,1.96289.707,3.024,3.024,0,0,1,.68652,2.17725v5.88916h-1.44629V35.21329a3.96152,3.96152,0,0,0-.1416-1.25586,1.21274,1.21274,0,0,0-.51269-.61816,1.6023,1.6023,0,0,0-.87207-.23438,2.03018,2.03018,0,0,0-1.50293.60206,2.65134,2.65134,0,0,0-.59766,1.92675v4.98438h-1.4541V35.04386a2.45692,2.45692,0,0,0-.35547-1.4541,1.34718,1.34718,0,0,0-1.16406-.48487,2.11412,2.11412,0,0,0-1.13477.32325,1.83165,1.83165,0,0,0-.75488.94531,5.31865,5.31865,0,0,0-.23437,1.79346v4.45117Z"/>
        <path d="M175.30687,43.90616V32.03849h1.32422v1.11474a3.27705,3.27705,0,0,1,1.05859-.98144,2.91336,2.91336,0,0,1,1.42969-.32715,3.39343,3.39343,0,0,1,1.93945.56543,3.48245,3.48245,0,0,1,1.26856,1.5957,5.83046,5.83046,0,0,1,.42773,2.25782,5.72856,5.72856,0,0,1-.47265,2.37109,3.59193,3.59193,0,0,1-3.26758,2.17725,2.73743,2.73743,0,0,1-1.30469-.30713,2.95374,2.95374,0,0,1-.94922-.77539v4.17675Zm1.31641-7.52929a3.73039,3.73039,0,0,0,.6709,2.44775,2.05638,2.05638,0,0,0,1.624.7915,2.10305,2.10305,0,0,0,1.66015-.81982,3.89262,3.89262,0,0,0,.69043-2.54053,3.78807,3.78807,0,0,0-.6748-2.456,2.0305,2.0305,0,0,0-1.61133-.81592,2.09362,2.09362,0,0,0-1.64453.86865A3.885,3.885,0,0,0,176.62328,36.37687Z"/>
        <path d="M183.967,36.32853a4.42463,4.42463,0,0,1,1.32422-3.53076,3.9949,3.9949,0,0,1,2.69824-.95313,3.85194,3.85194,0,0,1,2.89258,1.15918,4.41345,4.41345,0,0,1,1.123,3.20313,5.67684,5.67684,0,0,1-.49707,2.60546,3.5173,3.5173,0,0,1-1.44629,1.47461,4.20888,4.20888,0,0,1-2.07226.52491,3.854,3.854,0,0,1-2.91211-1.15528A4.61472,4.61472,0,0,1,183.967,36.32853Zm1.49414,0a3.65243,3.65243,0,0,0,.71875,2.46777,2.39465,2.39465,0,0,0,3.61133-.00391A3.74005,3.74005,0,0,0,190.51,36.2797a3.547,3.547,0,0,0-.72266-2.41113,2.39736,2.39736,0,0,0-3.60742-.0044A3.63909,3.63909,0,0,0,185.46117,36.32853Z"/>
        <path d="M193.71019,40.61808V32.03849h1.30859V33.2587a3.08287,3.08287,0,0,1,2.73047-1.41406,3.57928,3.57928,0,0,1,1.42578.27881,2.24942,2.24942,0,0,1,.97364.731,2.81477,2.81477,0,0,1,.45215,1.0747,8.32917,8.32917,0,0,1,.08105,1.41358v5.27539h-1.4541V35.39933a3.915,3.915,0,0,0-.16992-1.3291,1.39722,1.39722,0,0,0-.60157-.70264,1.91588,1.91588,0,0,0-1.01367-.2627,2.354,2.354,0,0,0-1.60351.58985,2.90726,2.90726,0,0,0-.67481,2.23779v4.68555Z"/>
        <path d="M208.78441,37.85538l1.50293.18555A3.6706,3.6706,0,0,1,208.97,40.08487a4.46051,4.46051,0,0,1-5.44043-.43212,4.52956,4.52956,0,0,1-1.10352-3.25147,4.74117,4.74117,0,0,1,1.11524-3.36084,3.77443,3.77443,0,0,1,2.89257-1.1958,3.667,3.667,0,0,1,2.81055,1.17139,4.65347,4.65347,0,0,1,1.09082,3.29638c0,.08594-.00293.21534-.00781.3877h-6.39844a3.29569,3.29569,0,0,0,.79981,2.165,2.38033,2.38033,0,0,0,1.79394.751,2.22333,2.22333,0,0,0,1.36524-.41992A2.78672,2.78672,0,0,0,208.78441,37.85538ZM204.01,35.50431h4.79a2.90307,2.90307,0,0,0-.54882-1.62354,2.227,2.227,0,0,0-1.80176-.84033,2.31107,2.31107,0,0,0-1.68457.67041A2.65138,2.65138,0,0,0,204.01,35.50431Z"/>
        <path d="M212.11253,40.61808V32.03849h1.3086V33.2587a3.08286,3.08286,0,0,1,2.73047-1.41406,3.57931,3.57931,0,0,1,1.42578.27881,2.24945,2.24945,0,0,1,.97363.731,2.81477,2.81477,0,0,1,.45215,1.0747,8.32917,8.32917,0,0,1,.08105,1.41358v5.27539h-1.4541V35.39933a3.915,3.915,0,0,0-.16992-1.3291,1.39725,1.39725,0,0,0-.60156-.70264,1.91593,1.91593,0,0,0-1.01367-.2627,2.354,2.354,0,0,0-1.60352.58985,2.9073,2.9073,0,0,0-.6748,2.23779v4.68555Z"/>
        <path d="M224.48949,39.3173l.21,1.28466a5.40891,5.40891,0,0,1-1.09863.1294,2.494,2.494,0,0,1-1.22852-.25049,1.40376,1.40376,0,0,1-.61328-.65869,5.18675,5.18675,0,0,1-.17774-1.71631v-4.936h-1.0664V32.03849h1.0664V29.914l1.44629-.87256v2.99707h1.46192v1.13135h-1.46192v5.0166a2.55361,2.55361,0,0,0,.07618.7998.60081.60081,0,0,0,.251.28272.96647.96647,0,0,0,.4961.105A4.66683,4.66683,0,0,0,224.48949,39.3173Z"/>
        <path d="M233.56957,35.43986l-7.84375,3.35253V37.34611l6.21191-2.57715-6.21191-2.55274v-1.4458l7.84375,3.312Z"/>
        <path d="M243.23168,35.43986l-7.84375,3.35253V37.34611l6.21191-2.57715-6.21191-2.55274v-1.4458l7.84375,3.312Z"/>
      </g>
      <g>
        <path d="M140.04418,60.04044V48.19718h1.56738V58.643h5.832v1.39746Z"/>
        <path d="M149.13207,49.86954V48.19718h1.4541v1.67236Zm0,10.1709V51.46085h1.4541v8.57959Z"/>
        <path d="M154.14085,60.04044h-1.34863V48.19718h1.4541v4.2251a2.87651,2.87651,0,0,1,2.35059-1.15528,3.5956,3.5956,0,0,1,1.498.31934,3.06671,3.06671,0,0,1,1.16406.89648,4.35835,4.35835,0,0,1,.71484,1.39356,5.76163,5.76163,0,0,1,.25782,1.74512,4.903,4.903,0,0,1-1.08985,3.40918,3.41133,3.41133,0,0,1-2.61816,1.20361,2.7315,2.7315,0,0,1-2.38282-1.26807Zm-.0166-4.35449a4.45063,4.45063,0,0,0,.4209,2.23,2.0787,2.0787,0,0,0,3.50586.29492,3.76559,3.76559,0,0,0,.69434-2.46826,3.82769,3.82769,0,0,0-.666-2.48,2.02985,2.02985,0,0,0-1.6123-.79981,2.09048,2.09048,0,0,0-1.64746.82813A3.63608,3.63608,0,0,0,154.12425,55.686Z"/>
        <path d="M161.98558,60.04044V51.46085h1.3086v1.30078A3.5452,3.5452,0,0,1,164.22,51.558a1.61347,1.61347,0,0,1,.93261-.291,2.83284,2.83284,0,0,1,1.49414.46875l-.5,1.34912a2.08128,2.08128,0,0,0-1.0664-.31494,1.38209,1.38209,0,0,0-.85645.28662,1.55526,1.55526,0,0,0-.542.7959,5.6758,5.6758,0,0,0-.24219,1.69629v4.4917Z"/>
        <path d="M173.1096,58.98234a5.42916,5.42916,0,0,1-1.55566.96923,4.49152,4.49152,0,0,1-1.60351.28272,3.11578,3.11578,0,0,1-2.17286-.69092,2.27812,2.27812,0,0,1-.75976-1.76514,2.34409,2.34409,0,0,1,.28711-1.15087,2.37834,2.37834,0,0,1,.751-.83643,3.53779,3.53779,0,0,1,1.0459-.47656,10.51739,10.51739,0,0,1,1.293-.21826,13.29777,13.29777,0,0,0,2.59375-.50049c.00488-.19922.00781-.32617.00781-.37989a1.60576,1.60576,0,0,0-.41211-1.252,2.43447,2.43447,0,0,0-1.65625-.49316,2.56843,2.56843,0,0,0-1.51464.35986,2.18933,2.18933,0,0,0-.72266,1.272l-1.42188-.19384a3.52363,3.52363,0,0,1,.6377-1.47413,2.79348,2.79348,0,0,1,1.28418-.86425,5.7264,5.7264,0,0,1,1.94727-.30323,5.148,5.148,0,0,1,1.78515.25879,2.35129,2.35129,0,0,1,1.00977.64991,2.2957,2.2957,0,0,1,.45312.98974,8.28032,8.28032,0,0,1,.07227,1.34131v1.93848a20.68754,20.68754,0,0,0,.09277,2.56543,3.24073,3.24073,0,0,0,.36817,1.02978h-1.51954A3.0904,3.0904,0,0,1,173.1096,58.98234Zm-.12109-3.24756a10.69545,10.69545,0,0,1-2.376.54931,5.48481,5.48481,0,0,0-1.26757.29053,1.26851,1.26851,0,0,0-.57422.47266,1.28477,1.28477,0,0,0,.23828,1.66015,1.89527,1.89527,0,0,0,1.28906.3877,2.99882,2.99882,0,0,0,1.49414-.36768,2.26339,2.26339,0,0,0,.96192-1.00537,3.51234,3.51234,0,0,0,.23437-1.4541Z"/>
        <path d="M176.69652,60.04044V51.46085h1.30859v1.30078a3.54545,3.54545,0,0,1,.92578-1.20361,1.6135,1.6135,0,0,1,.93262-.291,2.83284,2.83284,0,0,1,1.49414.46875l-.5,1.34912a2.08133,2.08133,0,0,0-1.0664-.31494,1.38209,1.38209,0,0,0-.85645.28662,1.5552,1.5552,0,0,0-.542.7959,5.6758,5.6758,0,0,0-.24219,1.69629v4.4917Z"/>
        <path d="M182.15843,63.34464l-.16211-1.36523a3.247,3.247,0,0,0,.832.12939,1.59771,1.59771,0,0,0,.7754-.16162,1.3134,1.3134,0,0,0,.47656-.45264,7.05523,7.05523,0,0,0,.44433-1.08252c.02735-.08056.07032-.19922.12989-.35547l-3.25586-8.5957h1.56738l1.78516,4.96826q.34716.94555.62207,1.98731a19.61029,19.61029,0,0,1,.59765-1.95459l1.834-5.001h1.4541l-3.26367,8.7251a17.35548,17.35548,0,0,1-.81543,1.94678,2.88269,2.88269,0,0,1-.88867,1.0542,2.10112,2.10112,0,0,1-1.19629.33544A2.91223,2.91223,0,0,1,182.15843,63.34464Z"/>
        <path d="M195.27757,60.04044V48.19718h4.08008a9.88373,9.88373,0,0,1,2.1084.16992,4.01157,4.01157,0,0,1,1.73633.84815,4.82485,4.82485,0,0,1,1.40234,2.02343,7.94647,7.94647,0,0,1,.46387,2.81543,8.273,8.273,0,0,1-.31445,2.39112,5.78651,5.78651,0,0,1-.8086,1.72509,4.28081,4.28081,0,0,1-1.07812,1.07422,4.38356,4.38356,0,0,1-1.41407.59375,8.0554,8.0554,0,0,1-1.90234.20215ZM196.845,58.643h2.52832a6.13114,6.13114,0,0,0,1.83789-.21826,2.63183,2.63183,0,0,0,1.0625-.61377,3.72613,3.72613,0,0,0,.86816-1.49854,7.30608,7.30608,0,0,0,.31152-2.28222,5.505,5.505,0,0,0-.61035-2.856,3.06615,3.06615,0,0,0-1.48242-1.33691,6.12144,6.12144,0,0,0-2.02734-.24268H196.845Z"/>
        <path d="M212.6389,58.98234a5.42929,5.42929,0,0,1-1.55566.96923,4.49154,4.49154,0,0,1-1.60352.28272,3.11577,3.11577,0,0,1-2.17285-.69092,2.27809,2.27809,0,0,1-.75977-1.76514,2.3442,2.3442,0,0,1,.28711-1.15087,2.37846,2.37846,0,0,1,.751-.83643,3.53767,3.53767,0,0,1,1.0459-.47656,10.517,10.517,0,0,1,1.293-.21826,13.29793,13.29793,0,0,0,2.59375-.50049c.00488-.19922.00781-.32617.00781-.37989a1.60576,1.60576,0,0,0-.41211-1.252,2.43449,2.43449,0,0,0-1.65625-.49316,2.56846,2.56846,0,0,0-1.51465.35986,2.18937,2.18937,0,0,0-.72265,1.272l-1.42188-.19384a3.52363,3.52363,0,0,1,.6377-1.47413,2.79348,2.79348,0,0,1,1.28418-.86425,5.72635,5.72635,0,0,1,1.94726-.30323,5.148,5.148,0,0,1,1.78516.25879,2.35118,2.35118,0,0,1,1.00976.64991,2.29583,2.29583,0,0,1,.45313.98974,8.28066,8.28066,0,0,1,.07226,1.34131v1.93848a20.68462,20.68462,0,0,0,.09278,2.56543,3.241,3.241,0,0,0,.36816,1.02978h-1.51953A3.0904,3.0904,0,0,1,212.6389,58.98234Zm-.12109-3.24756a10.69545,10.69545,0,0,1-2.376.54931,5.48493,5.48493,0,0,0-1.26758.29053,1.26861,1.26861,0,0,0-.57422.47266,1.28479,1.28479,0,0,0,.23829,1.66015,1.89527,1.89527,0,0,0,1.28906.3877,2.99882,2.99882,0,0,0,1.49414-.36768,2.26342,2.26342,0,0,0,.96191-1.00537,3.51232,3.51232,0,0,0,.23438-1.4541Z"/>
        <path d="M219.41625,58.73966l.21,1.28467a5.40885,5.40885,0,0,1-1.09864.12939,2.49377,2.49377,0,0,1-1.22851-.25049,1.40372,1.40372,0,0,1-.61328-.65869,5.18675,5.18675,0,0,1-.17774-1.71631v-4.936h-1.0664V51.46085h1.0664V49.33634l1.44629-.87256v2.99707h1.46192V52.5922h-1.46192v5.0166a2.55415,2.55415,0,0,0,.07617.79981.60076.60076,0,0,0,.251.28271.96643.96643,0,0,0,.49609.105A4.66548,4.66548,0,0,0,219.41625,58.73966Z"/>
        <path d="M226.43675,58.98234a5.42916,5.42916,0,0,1-1.55566.96923,4.49154,4.49154,0,0,1-1.60352.28272,3.11577,3.11577,0,0,1-2.17285-.69092,2.27812,2.27812,0,0,1-.75976-1.76514,2.34409,2.34409,0,0,1,.28711-1.15087,2.37834,2.37834,0,0,1,.751-.83643,3.53779,3.53779,0,0,1,1.0459-.47656,10.517,10.517,0,0,1,1.293-.21826,13.29777,13.29777,0,0,0,2.59375-.50049c.00488-.19922.00781-.32617.00781-.37989a1.60576,1.60576,0,0,0-.41211-1.252,2.43449,2.43449,0,0,0-1.65625-.49316,2.56848,2.56848,0,0,0-1.51465.35986,2.18937,2.18937,0,0,0-.72265,1.272l-1.42188-.19384a3.52363,3.52363,0,0,1,.6377-1.47413,2.79348,2.79348,0,0,1,1.28418-.86425,5.72635,5.72635,0,0,1,1.94726-.30323,5.148,5.148,0,0,1,1.78516.25879,2.35129,2.35129,0,0,1,1.00977.64991,2.2957,2.2957,0,0,1,.45312.98974,8.28032,8.28032,0,0,1,.07227,1.34131v1.93848a20.68754,20.68754,0,0,0,.09277,2.56543,3.241,3.241,0,0,0,.36816,1.02978h-1.51953A3.0904,3.0904,0,0,1,226.43675,58.98234Zm-.12109-3.24756a10.69545,10.69545,0,0,1-2.376.54931,5.48506,5.48506,0,0,0-1.26758.29053,1.26853,1.26853,0,0,0-.57421.47266,1.28477,1.28477,0,0,0,.23828,1.66015,1.89527,1.89527,0,0,0,1.28906.3877,2.99882,2.99882,0,0,0,1.49414-.36768,2.26337,2.26337,0,0,0,.96191-1.00537,3.51232,3.51232,0,0,0,.23438-1.4541Z"/>
      </g>
      <g>
        <path d="M136.83421,79.4628V67.61954h2.35938l2.80371,8.38574q.38672,1.17115.56543,1.75293.20069-.646.62988-1.89843l2.835-8.24024H148.137V79.4628h-1.51074V69.55021L143.1848,79.4628h-1.41406l-3.42578-10.082v10.082Z"/>
        <path d="M156.07835,78.4047a5.42943,5.42943,0,0,1-1.55566.96924,4.49174,4.49174,0,0,1-1.60351.28271,3.11578,3.11578,0,0,1-2.17286-.69092,2.2781,2.2781,0,0,1-.75976-1.76513,2.34415,2.34415,0,0,1,.28711-1.15088,2.37834,2.37834,0,0,1,.751-.83643,3.53779,3.53779,0,0,1,1.0459-.47656,10.51739,10.51739,0,0,1,1.293-.21826,13.297,13.297,0,0,0,2.59375-.50049c.00488-.19922.00781-.32617.00781-.37988a1.60577,1.60577,0,0,0-.41211-1.252,2.43447,2.43447,0,0,0-1.65625-.49316,2.5685,2.5685,0,0,0-1.51464.35986,2.18936,2.18936,0,0,0-.72266,1.272l-1.42188-.19385a3.52353,3.52353,0,0,1,.6377-1.47412,2.79349,2.79349,0,0,1,1.28418-.86426,5.72641,5.72641,0,0,1,1.94727-.30322,5.14771,5.14771,0,0,1,1.78515.25879,2.35128,2.35128,0,0,1,1.00977.6499,2.29581,2.29581,0,0,1,.45312.98974,8.28032,8.28032,0,0,1,.07227,1.34131v1.93848a20.68754,20.68754,0,0,0,.09277,2.56543,3.24073,3.24073,0,0,0,.36817,1.02978h-1.51954A3.09027,3.09027,0,0,1,156.07835,78.4047Zm-.12109-3.24756a10.69535,10.69535,0,0,1-2.376.54932,5.4844,5.4844,0,0,0-1.26757.29052,1.26851,1.26851,0,0,0-.57422.47266,1.28479,1.28479,0,0,0,.23828,1.66016,1.89527,1.89527,0,0,0,1.28906.38769,2.99892,2.99892,0,0,0,1.49414-.36767,2.26339,2.26339,0,0,0,.96192-1.00537,3.51243,3.51243,0,0,0,.23437-1.45411Z"/>
        <path d="M159.68089,79.4628V70.88321h1.3086v1.22022A3.08286,3.08286,0,0,1,163.72,70.68937a3.57931,3.57931,0,0,1,1.42578.27881,2.24943,2.24943,0,0,1,.97363.73095,2.81489,2.81489,0,0,1,.45215,1.07471,8.329,8.329,0,0,1,.08105,1.41357V79.4628h-1.4541V74.24405a3.9151,3.9151,0,0,0-.16992-1.3291,1.39727,1.39727,0,0,0-.60156-.70263,1.91593,1.91593,0,0,0-1.01367-.2627,2.35406,2.35406,0,0,0-1.60352.58984,2.90728,2.90728,0,0,0-.6748,2.2378V79.4628Z"/>
        <path d="M174.48168,78.4047a5.42961,5.42961,0,0,1-1.55567.96924,4.49174,4.49174,0,0,1-1.60351.28271,3.11578,3.11578,0,0,1-2.17286-.69092,2.2781,2.2781,0,0,1-.75976-1.76513,2.34415,2.34415,0,0,1,.28711-1.15088,2.37834,2.37834,0,0,1,.751-.83643,3.53779,3.53779,0,0,1,1.0459-.47656,10.51739,10.51739,0,0,1,1.293-.21826,13.297,13.297,0,0,0,2.59375-.50049c.00488-.19922.00781-.32617.00781-.37988a1.60577,1.60577,0,0,0-.41211-1.252A2.43447,2.43447,0,0,0,172.3,71.893a2.5685,2.5685,0,0,0-1.51464.35986,2.18936,2.18936,0,0,0-.72266,1.272l-1.42188-.19385a3.52353,3.52353,0,0,1,.6377-1.47412,2.79349,2.79349,0,0,1,1.28418-.86426,5.72641,5.72641,0,0,1,1.94727-.30322,5.14771,5.14771,0,0,1,1.78515.25879,2.35128,2.35128,0,0,1,1.00977.6499,2.29581,2.29581,0,0,1,.45312.98974,8.28032,8.28032,0,0,1,.07227,1.34131v1.93848a20.68754,20.68754,0,0,0,.09277,2.56543,3.24073,3.24073,0,0,0,.36817,1.02978h-1.51954A3.09,3.09,0,0,1,174.48168,78.4047Zm-.1211-3.24756a10.69535,10.69535,0,0,1-2.376.54932,5.4844,5.4844,0,0,0-1.26757.29052,1.26851,1.26851,0,0,0-.57422.47266,1.28479,1.28479,0,0,0,.23828,1.66016,1.89527,1.89527,0,0,0,1.28906.38769,2.99892,2.99892,0,0,0,1.49414-.36767,2.26339,2.26339,0,0,0,.96192-1.00537,3.51243,3.51243,0,0,0,.23437-1.45411Z"/>
        <path d="M177.81761,80.17374l1.41309.21a1.34678,1.34678,0,0,0,.49316.95313,2.42024,2.42024,0,0,0,1.47852.40429,2.59863,2.59863,0,0,0,1.55957-.40429,1.98927,1.98927,0,0,0,.74316-1.13086,9.27967,9.27967,0,0,0,.10449-1.86621,2.98944,2.98944,0,0,1-2.375,1.123,3.23576,3.23576,0,0,1-2.73828-1.27636,4.915,4.915,0,0,1-.96972-3.062,5.70651,5.70651,0,0,1,.44433-2.26612A3.557,3.557,0,0,1,179.259,71.2548a3.48275,3.48275,0,0,1,1.9834-.56543,3.07739,3.07739,0,0,1,2.50488,1.228V70.88321h1.34082v7.41651a7.024,7.024,0,0,1-.4082,2.83935,2.9788,2.9788,0,0,1-1.292,1.3208,4.47939,4.47939,0,0,1-2.17774.48487,4.103,4.103,0,0,1-2.47949-.69092A2.334,2.334,0,0,1,177.81761,80.17374Zm1.20313-5.15429a3.71868,3.71868,0,0,0,.6709,2.46386,2.21123,2.21123,0,0,0,3.36035.0044,3.59653,3.59653,0,0,0,.67871-2.41944,3.5193,3.5193,0,0,0-.69824-2.37549,2.16088,2.16088,0,0,0-1.68457-.7998,2.10009,2.10009,0,0,0-1.64844.78809A3.49848,3.49848,0,0,0,179.02074,75.01945Z"/>
        <path d="M193.15843,76.70011l1.50293.18555A3.67055,3.67055,0,0,1,193.344,78.9296a4.46053,4.46053,0,0,1-5.44043-.43213A4.52953,4.52953,0,0,1,186.8,75.246a4.74115,4.74115,0,0,1,1.11524-3.36084,3.7744,3.7744,0,0,1,2.89258-1.1958,3.667,3.667,0,0,1,2.81054,1.17138,4.6535,4.6535,0,0,1,1.09082,3.29639c0,.08594-.00293.21533-.00781.3877H188.303a3.29574,3.29574,0,0,0,.79981,2.165,2.38032,2.38032,0,0,0,1.79394.751,2.22336,2.22336,0,0,0,1.36524-.41992A2.78677,2.78677,0,0,0,193.15843,76.70011ZM188.384,74.349h4.79a2.90306,2.90306,0,0,0-.54883-1.62353,2.227,2.227,0,0,0-1.80176-.84033,2.31107,2.31107,0,0,0-1.68457.67041A2.65135,2.65135,0,0,0,188.384,74.349Z"/>
        <path d="M196.48753,79.4628V70.88321h1.30079v1.20362a3.05024,3.05024,0,0,1,1.07421-1.01367,3.01869,3.01869,0,0,1,1.52637-.38379,2.8238,2.8238,0,0,1,1.56348.396,2.11935,2.11935,0,0,1,.86035,1.10694,3.08,3.08,0,0,1,2.65039-1.50293,2.61242,2.61242,0,0,1,1.96289.707,3.024,3.024,0,0,1,.68652,2.17724V79.4628h-1.44628V74.058a3.96146,3.96146,0,0,0-.14161-1.25586,1.21269,1.21269,0,0,0-.51269-.61816,1.6023,1.6023,0,0,0-.87207-.23438,2.03017,2.03017,0,0,0-1.50293.60205,2.65138,2.65138,0,0,0-.59766,1.92676V79.4628h-1.4541V73.88859a2.457,2.457,0,0,0-.35547-1.45411,1.34718,1.34718,0,0,0-1.16406-.48486,2.1142,2.1142,0,0,0-1.13477.32324,1.83168,1.83168,0,0,0-.75488.94532,5.31863,5.31863,0,0,0-.23437,1.79345V79.4628Z"/>
        <path d="M216.14183,76.70011l1.50293.18555a3.67055,3.67055,0,0,1-1.31738,2.04394,4.46053,4.46053,0,0,1-5.44043-.43213,4.52953,4.52953,0,0,1-1.10352-3.25146,4.74115,4.74115,0,0,1,1.11524-3.36084,3.7744,3.7744,0,0,1,2.89258-1.1958,3.667,3.667,0,0,1,2.81054,1.17138,4.6535,4.6535,0,0,1,1.09082,3.29639c0,.08594-.00293.21533-.00781.3877h-6.39844a3.29569,3.29569,0,0,0,.79981,2.165,2.38032,2.38032,0,0,0,1.79394.751,2.22338,2.22338,0,0,0,1.36524-.41992A2.78677,2.78677,0,0,0,216.14183,76.70011ZM211.36742,74.349h4.79a2.90306,2.90306,0,0,0-.54883-1.62353,2.227,2.227,0,0,0-1.80176-.84033,2.31107,2.31107,0,0,0-1.68457.67041A2.65135,2.65135,0,0,0,211.36742,74.349Z"/>
        <path d="M219.47093,79.4628V70.88321h1.3086v1.22022A3.08286,3.08286,0,0,1,223.51,70.68937a3.57931,3.57931,0,0,1,1.42578.27881,2.24943,2.24943,0,0,1,.97363.73095,2.81489,2.81489,0,0,1,.45215,1.07471,8.329,8.329,0,0,1,.08105,1.41357V79.4628h-1.4541V74.24405a3.9151,3.9151,0,0,0-.16992-1.3291,1.39727,1.39727,0,0,0-.60156-.70263,1.91594,1.91594,0,0,0-1.01368-.2627,2.354,2.354,0,0,0-1.60351.58984,2.90728,2.90728,0,0,0-.67481,2.2378V79.4628Z"/>
        <path d="M231.84691,78.162l.21,1.28467a5.40891,5.40891,0,0,1-1.09863.1294,2.494,2.494,0,0,1-1.22852-.25049,1.40376,1.40376,0,0,1-.61328-.65869,5.18688,5.18688,0,0,1-.17773-1.71631v-4.936H227.8723V70.88321h1.06641V68.7587l1.44629-.87256v2.99707h1.46191v1.13135H230.385v5.0166a2.55411,2.55411,0,0,0,.07617.79981.60074.60074,0,0,0,.251.28271.96637.96637,0,0,0,.4961.105A4.66522,4.66522,0,0,0,231.84691,78.162Z"/>
      </g>
      <g>
        <path d="M124.54125,189.37931v-1.35645l7.84375-3.3125v1.44629l-6.22071,2.55274,6.22071,2.57714v1.44532Z"/>
        <path d="M134.20335,189.37931v-1.35645l7.84375-3.3125v1.44629l-6.2207,2.55274,6.2207,2.57714v1.44532Z"/>
        <path d="M149.64964,191.41544l1.42969.18555a3.7054,3.7054,0,0,1-1.20019,2.31445,3.49385,3.49385,0,0,1-2.3711.83692A3.683,3.683,0,0,1,144.677,193.601a4.67154,4.67154,0,0,1-1.07031-3.30078,5.98146,5.98146,0,0,1,.46-2.43164,3.20969,3.20969,0,0,1,1.40234-1.5625,4.15321,4.15321,0,0,1,2.04785-.52149,3.55814,3.55814,0,0,1,2.28613.707,3.24567,3.24567,0,0,1,1.13868,2.00782l-1.41309.21777a2.34585,2.34585,0,0,0-.71582-1.30078,1.84744,1.84744,0,0,0-1.23926-.43653,2.25848,2.25848,0,0,0-1.78613.78809,3.74316,3.74316,0,0,0-.68652,2.49219,3.86181,3.86181,0,0,0,.66308,2.51269,2.15436,2.15436,0,0,0,1.72852.78321,2.04023,2.04023,0,0,0,1.42968-.52442A2.60652,2.60652,0,0,0,149.64964,191.41544Z"/>
        <path d="M151.78246,190.268a4.42286,4.42286,0,0,1,1.32422-3.53027,3.99733,3.99733,0,0,1,2.69824-.95313,3.852,3.852,0,0,1,2.89258,1.15918,4.41424,4.41424,0,0,1,1.123,3.20313,5.67692,5.67692,0,0,1-.49707,2.60547,3.52013,3.52013,0,0,1-1.44629,1.4746,4.21454,4.21454,0,0,1-2.07226.5254,3.85762,3.85762,0,0,1-2.91211-1.15528A4.61724,4.61724,0,0,1,151.78246,190.268Zm1.49414,0a3.65607,3.65607,0,0,0,.71875,2.46875,2.39464,2.39464,0,0,0,3.61133-.00488,3.7381,3.7381,0,0,0,.71875-2.51172,3.549,3.549,0,0,0-.72266-2.41211,2.39878,2.39878,0,0,0-3.60742-.00391A3.63678,3.63678,0,0,0,153.2766,190.268Z"/>
        <path d="M161.52464,194.558v-8.5791h1.30079V187.182a3.05024,3.05024,0,0,1,1.07421-1.01367,3.01869,3.01869,0,0,1,1.52637-.38379,2.82377,2.82377,0,0,1,1.56348.39551,2.1262,2.1262,0,0,1,.86035,1.10742,3.08,3.08,0,0,1,2.65039-1.50293,2.61053,2.61053,0,0,1,1.96289.707,3.02509,3.02509,0,0,1,.68652,2.17676V194.558h-1.44629v-5.4043a3.96646,3.96646,0,0,0-.1416-1.25683,1.21666,1.21666,0,0,0-.51269-.61817,1.61022,1.61022,0,0,0-.87207-.2334,2.02978,2.02978,0,0,0-1.50293.60157,2.65057,2.65057,0,0,0-.59766,1.92675V194.558h-1.4541V188.9838a2.45694,2.45694,0,0,0-.35547-1.4541,1.34694,1.34694,0,0,0-1.16406-.48438,2.11755,2.11755,0,0,0-1.13477.32227,1.83556,1.83556,0,0,0-.75488.94531,5.3219,5.3219,0,0,0-.23437,1.79395V194.558Z"/>
        <path d="M175.30687,197.84611V185.97892h1.32422v1.11426a3.277,3.277,0,0,1,1.05859-.98145,2.91336,2.91336,0,0,1,1.42969-.32715,3.39343,3.39343,0,0,1,1.93945.56543,3.47993,3.47993,0,0,1,1.26856,1.5957,5.83046,5.83046,0,0,1,.42773,2.25782,5.73014,5.73014,0,0,1-.47265,2.37109,3.567,3.567,0,0,1-1.373,1.61621,3.53009,3.53009,0,0,1-1.89453.56153,2.732,2.732,0,0,1-1.30469-.30762,2.94738,2.94738,0,0,1-.94922-.77539v4.17676Zm1.31641-7.5293a3.73188,3.73188,0,0,0,.6709,2.44824,2.05735,2.05735,0,0,0,1.624.791,2.10546,2.10546,0,0,0,1.66015-.81934,3.89411,3.89411,0,0,0,.69043-2.541,3.78718,3.78718,0,0,0-.6748-2.45605,2.03,2.03,0,0,0-1.61133-.81543,2.093,2.093,0,0,0-1.64453.86816A3.885,3.885,0,0,0,176.62328,190.31681Z"/>
        <path d="M183.967,190.268a4.42286,4.42286,0,0,1,1.32422-3.53027,3.99733,3.99733,0,0,1,2.69824-.95313,3.85194,3.85194,0,0,1,2.89258,1.15918,4.41424,4.41424,0,0,1,1.123,3.20313,5.67692,5.67692,0,0,1-.49707,2.60547,3.52013,3.52013,0,0,1-1.44629,1.4746,4.21454,4.21454,0,0,1-2.07226.5254,3.85762,3.85762,0,0,1-2.91211-1.15528A4.61724,4.61724,0,0,1,183.967,190.268Zm1.49414,0a3.65612,3.65612,0,0,0,.71875,2.46875,2.39464,2.39464,0,0,0,3.61133-.00488,3.7381,3.7381,0,0,0,.71875-2.51172,3.549,3.549,0,0,0-.72266-2.41211,2.39878,2.39878,0,0,0-3.60742-.00391A3.63683,3.63683,0,0,0,185.46117,190.268Z"/>
        <path d="M193.71019,194.558v-8.5791h1.30859v1.21972a3.08393,3.08393,0,0,1,2.73047-1.41406,3.58776,3.58776,0,0,1,1.42578.27832,2.25026,2.25026,0,0,1,.97364.73145,2.81579,2.81579,0,0,1,.45215,1.07422,8.3438,8.3438,0,0,1,.08105,1.41406V194.558h-1.4541v-5.21875a3.91313,3.91313,0,0,0-.16992-1.3291,1.40426,1.40426,0,0,0-.60157-.70313,1.91553,1.91553,0,0,0-1.01367-.26172,2.35553,2.35553,0,0,0-1.60351.58887,2.90928,2.90928,0,0,0-.67481,2.23828V194.558Z"/>
        <path d="M208.78441,191.79532l1.50293.18555a3.669,3.669,0,0,1-1.31738,2.04395,4.45786,4.45786,0,0,1-5.44043-.43262,4.5275,4.5275,0,0,1-1.10352-3.251,4.74408,4.74408,0,0,1,1.11524-3.36133,3.77405,3.77405,0,0,1,2.89257-1.19531,3.66566,3.66566,0,0,1,2.81055,1.17188,4.64975,4.64975,0,0,1,1.09082,3.2959c0,.08593-.00293.21484-.00781.38769h-6.39844a3.29569,3.29569,0,0,0,.79981,2.165,2.38031,2.38031,0,0,0,1.79394.751,2.22334,2.22334,0,0,0,1.36524-.41993A2.78672,2.78672,0,0,0,208.78441,191.79532ZM204.01,189.44474h4.79a2.90343,2.90343,0,0,0-.54882-1.624,2.22746,2.22746,0,0,0-1.80176-.84082,2.30957,2.30957,0,0,0-1.68457.6709A2.65163,2.65163,0,0,0,204.01,189.44474Z"/>
        <path d="M212.11253,194.558v-8.5791h1.3086v1.21972a3.08392,3.08392,0,0,1,2.73047-1.41406,3.5878,3.5878,0,0,1,1.42578.27832,2.25028,2.25028,0,0,1,.97363.73145,2.81579,2.81579,0,0,1,.45215,1.07422,8.3438,8.3438,0,0,1,.08105,1.41406V194.558h-1.4541v-5.21875a3.91313,3.91313,0,0,0-.16992-1.3291,1.40429,1.40429,0,0,0-.60156-.70313,1.91558,1.91558,0,0,0-1.01367-.26172,2.35554,2.35554,0,0,0-1.60352.58887,2.90932,2.90932,0,0,0-.6748,2.23828V194.558Z"/>
        <path d="M224.48949,193.25724l.21,1.28418a5.34429,5.34429,0,0,1-1.09863.12988,2.48793,2.48793,0,0,1-1.22852-.251,1.40055,1.40055,0,0,1-.61328-.6582,5.18429,5.18429,0,0,1-.17774-1.7168v-4.93554h-1.0664v-1.13086h1.0664v-2.125l1.44629-.87207v2.99707h1.46192v1.13086h-1.46192v5.0166a2.5493,2.5493,0,0,0,.07618.7998.59967.59967,0,0,0,.251.28223.96111.96111,0,0,0,.4961.10547A4.66683,4.66683,0,0,0,224.48949,193.25724Z"/>
        <path d="M233.56957,189.37931l-7.84375,3.35254v-1.44532l6.21191-2.57714-6.21191-2.55274v-1.44629l7.84375,3.3125Z"/>
        <path d="M243.23168,189.37931l-7.84375,3.35254v-1.44532l6.21191-2.57714-6.21191-2.55274v-1.44629l7.84375,3.3125Z"/>
      </g>
      <g>
        <path d="M156.22875,213.98087V202.1381h5.251a7.00828,7.00828,0,0,1,2.40723.31836,2.63734,2.63734,0,0,1,1.31738,1.12695,3.36742,3.36742,0,0,1,.49219,1.78613,2.977,2.977,0,0,1-.81543,2.124,4.13185,4.13185,0,0,1-2.52051,1.09863,4.10386,4.10386,0,0,1,.94531.58984,8.16489,8.16489,0,0,1,1.29981,1.5752l2.06055,3.22363h-1.97168l-1.56641-2.46387q-.687-1.06639-1.13184-1.63183a3.58264,3.58264,0,0,0-.79492-.792,2.34105,2.34105,0,0,0-.71582-.31446,4.66466,4.66466,0,0,0-.87207-.05664h-1.81738v5.25879Zm1.56738-6.61621h3.36816a5.04333,5.04333,0,0,0,1.68067-.22266,1.78122,1.78122,0,0,0,.92089-.71093,1.921,1.921,0,0,0,.31543-1.06153,1.76573,1.76573,0,0,0-.61035-1.38183,2.85568,2.85568,0,0,0-1.92675-.541h-3.74805Z"/>
        <path d="M173.84007,211.21818l1.50293.18554a3.66886,3.66886,0,0,1-1.31738,2.04395,4.45786,4.45786,0,0,1-5.44043-.43262,4.52748,4.52748,0,0,1-1.10351-3.251,4.74408,4.74408,0,0,1,1.11523-3.36132,3.774,3.774,0,0,1,2.89258-1.19532A3.66565,3.66565,0,0,1,174.3,206.37931a4.64975,4.64975,0,0,1,1.09082,3.2959c0,.08593-.00292.21484-.00781.38769H168.9846a3.29579,3.29579,0,0,0,.79981,2.165,2.38032,2.38032,0,0,0,1.79394.751,2.22336,2.22336,0,0,0,1.36524-.41992A2.78682,2.78682,0,0,0,173.84007,211.21818Zm-4.77441-2.35059h4.79a2.90329,2.90329,0,0,0-.54883-1.624,2.22743,2.22743,0,0,0-1.80176-.84082,2.30956,2.30956,0,0,0-1.68457.67089A2.65165,2.65165,0,0,0,169.06566,208.86759Z"/>
        <path d="M177.1682,217.269V205.40177h1.32422V206.516a3.27709,3.27709,0,0,1,1.05859-.98145,2.91336,2.91336,0,0,1,1.42969-.32715,3.39345,3.39345,0,0,1,1.93945.56543,3.48,3.48,0,0,1,1.26856,1.59571,5.83037,5.83037,0,0,1,.42773,2.25781,5.73014,5.73014,0,0,1-.47266,2.37109,3.56706,3.56706,0,0,1-1.373,1.61621,3.53009,3.53009,0,0,1-1.89453.56153,2.732,2.732,0,0,1-1.30469-.30762,2.94738,2.94738,0,0,1-.94922-.77539V217.269Zm1.3164-7.5293a3.73194,3.73194,0,0,0,.6709,2.44824,2.05734,2.05734,0,0,0,1.624.791,2.10548,2.10548,0,0,0,1.66015-.81934,3.89416,3.89416,0,0,0,.69043-2.541,3.78726,3.78726,0,0,0-.6748-2.45606,2.03,2.03,0,0,0-1.61133-.81543,2.093,2.093,0,0,0-1.64453.86817A3.885,3.885,0,0,0,178.4846,209.73966Z"/>
        <path d="M185.82933,209.69083a4.42289,4.42289,0,0,1,1.32422-3.53027,3.99735,3.99735,0,0,1,2.69824-.95313,3.85193,3.85193,0,0,1,2.89258,1.15918,4.4142,4.4142,0,0,1,1.12305,3.20313,5.677,5.677,0,0,1-.49707,2.60547,3.52032,3.52032,0,0,1-1.44629,1.47461,4.21454,4.21454,0,0,1-2.07227.52539,3.85763,3.85763,0,0,1-2.91211-1.15528A4.61727,4.61727,0,0,1,185.82933,209.69083Zm1.49414,0a3.65612,3.65612,0,0,0,.71875,2.46875,2.39464,2.39464,0,0,0,3.61133-.00488,3.7381,3.7381,0,0,0,.71875-2.51172,3.54894,3.54894,0,0,0-.72266-2.41211,2.39878,2.39878,0,0,0-3.60742-.00391A3.63683,3.63683,0,0,0,187.32347,209.69083Z"/>
        <path d="M195.55492,213.98087v-8.5791h1.30859v1.2998a3.53748,3.53748,0,0,1,.92578-1.20312,1.60994,1.60994,0,0,1,.93262-.291,2.83287,2.83287,0,0,1,1.49414.46875l-.5,1.34864a2.0806,2.0806,0,0,0-1.06641-.31446,1.38758,1.38758,0,0,0-.85644.28614,1.55711,1.55711,0,0,0-.542.79589,5.68439,5.68439,0,0,0-.24219,1.69727v4.49121Z"/>
        <path d="M204.25609,212.68009l.21,1.28418a5.34429,5.34429,0,0,1-1.09863.12988,2.488,2.488,0,0,1-1.22852-.251,1.40061,1.40061,0,0,1-.61328-.65821,5.18434,5.18434,0,0,1-.17773-1.71679v-4.93555h-1.06641v-1.13086h1.06641v-2.125l1.44629-.87207v2.99707h1.46191v1.13086h-1.46191v5.0166a2.54972,2.54972,0,0,0,.07617.7998.59962.59962,0,0,0,.251.28223.96111.96111,0,0,0,.4961.10547A4.66522,4.66522,0,0,0,204.25609,212.68009Z"/>
        <path d="M205.09593,211.42032l1.43848-.22656a2.01188,2.01188,0,0,0,.67383,1.3252,2.35449,2.35449,0,0,0,1.54785.46,2.27129,2.27129,0,0,0,1.48633-.40821,1.21817,1.21817,0,0,0,.48437-.957.88359.88359,0,0,0-.42773-.77539,6.3255,6.3255,0,0,0-1.48633-.49316,13.54022,13.54022,0,0,1-2.21777-.69824,2.11812,2.11812,0,0,1-1.25684-1.96778,2.20887,2.20887,0,0,1,.2627-1.06152,2.35234,2.35234,0,0,1,.71484-.8125,3.014,3.014,0,0,1,.92578-.42383,4.37616,4.37616,0,0,1,1.25586-.17383,4.95735,4.95735,0,0,1,1.77344.291,2.40848,2.40848,0,0,1,1.127.78711,3.08817,3.08817,0,0,1,.501,1.3291l-1.42188.19434a1.5604,1.5604,0,0,0-.56152-1.03418,2.05391,2.05391,0,0,0-1.31348-.37207,2.37784,2.37784,0,0,0-1.42969.332.96457.96457,0,0,0-.42773.77539.79777.79777,0,0,0,.17773.50879,1.27767,1.27767,0,0,0,.55762.38769q.21679.08056,1.28418.37207a17.89249,17.89249,0,0,1,2.15235.67383,2.18733,2.18733,0,0,1,.958.76367,2.13281,2.13281,0,0,1,.34668,1.24414,2.43666,2.43666,0,0,1-.42383,1.36914,2.73537,2.73537,0,0,1-1.22363.99414,4.45444,4.45444,0,0,1-1.80957.35157,4.03162,4.03162,0,0,1-2.54883-.69532A3.229,3.229,0,0,1,205.09593,211.42032Z"/>
      </g>
      <g>
        <path d="M124.54125,323.17814v-1.35645l7.84375-3.3125v1.44629l-6.22071,2.55273,6.22071,2.57715v1.44532Z"/>
        <path d="M134.20335,323.17814v-1.35645l7.84375-3.3125v1.44629l-6.2207,2.55273,6.2207,2.57715v1.44532Z"/>
        <path d="M149.64964,325.21427l1.42969.18555a3.70543,3.70543,0,0,1-1.20019,2.31445,3.49384,3.49384,0,0,1-2.3711.83691,3.683,3.683,0,0,1-2.83105-1.15136,4.67155,4.67155,0,0,1-1.07031-3.30079,5.9815,5.9815,0,0,1,.46-2.43164,3.20974,3.20974,0,0,1,1.40234-1.5625,4.15331,4.15331,0,0,1,2.04785-.52148,3.55814,3.55814,0,0,1,2.28613.707,3.24568,3.24568,0,0,1,1.13868,2.00781l-1.41309.21778a2.34585,2.34585,0,0,0-.71582-1.30078,1.84744,1.84744,0,0,0-1.23926-.43653,2.25848,2.25848,0,0,0-1.78613.78809,3.74316,3.74316,0,0,0-.68652,2.49219,3.86181,3.86181,0,0,0,.66308,2.51269,2.15435,2.15435,0,0,0,1.72852.7832,2.04022,2.04022,0,0,0,1.42968-.52441A2.60655,2.60655,0,0,0,149.64964,325.21427Z"/>
        <path d="M151.78246,324.06681a4.42288,4.42288,0,0,1,1.32422-3.53028,3.99738,3.99738,0,0,1,2.69824-.95312,3.852,3.852,0,0,1,2.89258,1.15918,4.41423,4.41423,0,0,1,1.123,3.20312,5.67686,5.67686,0,0,1-.49707,2.60547,3.52009,3.52009,0,0,1-1.44629,1.47461,4.21453,4.21453,0,0,1-2.07226.52539,3.85761,3.85761,0,0,1-2.91211-1.15527A4.61724,4.61724,0,0,1,151.78246,324.06681Zm1.49414,0a3.65609,3.65609,0,0,0,.71875,2.46875,2.39466,2.39466,0,0,0,3.61133-.00488,3.7381,3.7381,0,0,0,.71875-2.51172,3.549,3.549,0,0,0-.72266-2.41211,2.39878,2.39878,0,0,0-3.60742-.00391A3.63678,3.63678,0,0,0,153.2766,324.06681Z"/>
        <path d="M161.52464,328.35685v-8.5791h1.30079v1.20312a3.05024,3.05024,0,0,1,1.07421-1.01367,3.01869,3.01869,0,0,1,1.52637-.38379,2.82377,2.82377,0,0,1,1.56348.39551,2.1262,2.1262,0,0,1,.86035,1.10742,3.08,3.08,0,0,1,2.65039-1.50293,2.61053,2.61053,0,0,1,1.96289.707,3.02509,3.02509,0,0,1,.68652,2.17676v5.88965h-1.44629v-5.4043a3.96653,3.96653,0,0,0-.1416-1.25684,1.21668,1.21668,0,0,0-.51269-.61816,1.61022,1.61022,0,0,0-.87207-.2334,2.02981,2.02981,0,0,0-1.50293.60156,2.6506,2.6506,0,0,0-.59766,1.92676v4.98438h-1.4541v-5.57422a2.45692,2.45692,0,0,0-.35547-1.4541,1.34692,1.34692,0,0,0-1.16406-.48438,2.11746,2.11746,0,0,0-1.13477.32227,1.83556,1.83556,0,0,0-.75488.94531,5.3219,5.3219,0,0,0-.23437,1.79395v4.45117Z"/>
        <path d="M175.30687,331.64493V319.77775h1.32422V320.892a3.27705,3.27705,0,0,1,1.05859-.98144,2.91325,2.91325,0,0,1,1.42969-.32715,3.39343,3.39343,0,0,1,1.93945.56543,3.47993,3.47993,0,0,1,1.26856,1.5957,5.83046,5.83046,0,0,1,.42773,2.25782,5.73021,5.73021,0,0,1-.47265,2.37109,3.56707,3.56707,0,0,1-1.373,1.61621,3.53016,3.53016,0,0,1-1.89453.56152,2.73211,2.73211,0,0,1-1.30469-.30761,2.94751,2.94751,0,0,1-.94922-.77539v4.17675Zm1.31641-7.52929a3.73188,3.73188,0,0,0,.6709,2.44824,2.05734,2.05734,0,0,0,1.624.791,2.10545,2.10545,0,0,0,1.66015-.81933,3.89415,3.89415,0,0,0,.69043-2.541,3.78716,3.78716,0,0,0-.6748-2.456,2.03,2.03,0,0,0-1.61133-.81543,2.093,2.093,0,0,0-1.64453.86816A3.885,3.885,0,0,0,176.62328,324.11564Z"/>
        <path d="M183.967,324.06681a4.42288,4.42288,0,0,1,1.32422-3.53028,3.99738,3.99738,0,0,1,2.69824-.95312,3.85194,3.85194,0,0,1,2.89258,1.15918,4.41423,4.41423,0,0,1,1.123,3.20312,5.67686,5.67686,0,0,1-.49707,2.60547,3.52009,3.52009,0,0,1-1.44629,1.47461,4.21453,4.21453,0,0,1-2.07226.52539,3.85761,3.85761,0,0,1-2.91211-1.15527A4.61724,4.61724,0,0,1,183.967,324.06681Zm1.49414,0a3.65614,3.65614,0,0,0,.71875,2.46875,2.39466,2.39466,0,0,0,3.61133-.00488A3.7381,3.7381,0,0,0,190.51,324.019a3.549,3.549,0,0,0-.72266-2.41211,2.39878,2.39878,0,0,0-3.60742-.00391A3.63683,3.63683,0,0,0,185.46117,324.06681Z"/>
        <path d="M193.71019,328.35685v-8.5791h1.30859v1.21972a3.08393,3.08393,0,0,1,2.73047-1.41406,3.58759,3.58759,0,0,1,1.42578.27832,2.25018,2.25018,0,0,1,.97364.73145,2.81575,2.81575,0,0,1,.45215,1.07421,8.344,8.344,0,0,1,.08105,1.41407v5.27539h-1.4541V323.1381a3.91309,3.91309,0,0,0-.16992-1.3291,1.40426,1.40426,0,0,0-.60157-.70313,1.91553,1.91553,0,0,0-1.01367-.26172,2.35553,2.35553,0,0,0-1.60351.58887,2.90926,2.90926,0,0,0-.67481,2.23828v4.68555Z"/>
        <path d="M208.78441,325.59415l1.50293.18555a3.66891,3.66891,0,0,1-1.31738,2.04394,4.45788,4.45788,0,0,1-5.44043-.43261,4.5275,4.5275,0,0,1-1.10352-3.251,4.74406,4.74406,0,0,1,1.11524-3.36133,3.77405,3.77405,0,0,1,2.89257-1.19531,3.66565,3.66565,0,0,1,2.81055,1.17187,4.64979,4.64979,0,0,1,1.09082,3.2959c0,.08594-.00293.21485-.00781.3877h-6.39844a3.29569,3.29569,0,0,0,.79981,2.165,2.38033,2.38033,0,0,0,1.79394.751,2.22333,2.22333,0,0,0,1.36524-.41992A2.78672,2.78672,0,0,0,208.78441,325.59415ZM204.01,323.24357h4.79a2.90341,2.90341,0,0,0-.54882-1.624,2.22746,2.22746,0,0,0-1.80176-.84082,2.30957,2.30957,0,0,0-1.68457.6709A2.65163,2.65163,0,0,0,204.01,323.24357Z"/>
        <path d="M212.11253,328.35685v-8.5791h1.3086v1.21972a3.08392,3.08392,0,0,1,2.73047-1.41406,3.58762,3.58762,0,0,1,1.42578.27832,2.2502,2.2502,0,0,1,.97363.73145,2.81575,2.81575,0,0,1,.45215,1.07421,8.344,8.344,0,0,1,.08105,1.41407v5.27539h-1.4541V323.1381a3.91309,3.91309,0,0,0-.16992-1.3291,1.40429,1.40429,0,0,0-.60156-.70313,1.91558,1.91558,0,0,0-1.01367-.26172,2.35554,2.35554,0,0,0-1.60352.58887,2.9093,2.9093,0,0,0-.6748,2.23828v4.68555Z"/>
        <path d="M224.48949,327.05607l.21,1.28418a5.34429,5.34429,0,0,1-1.09863.12988,2.488,2.488,0,0,1-1.22852-.251,1.40055,1.40055,0,0,1-.61328-.6582,5.18433,5.18433,0,0,1-.17774-1.7168v-4.93554h-1.0664v-1.13086h1.0664v-2.125l1.44629-.87207v2.99707h1.46192v1.13086h-1.46192v5.0166a2.5493,2.5493,0,0,0,.07618.7998.59967.59967,0,0,0,.251.28223.96111.96111,0,0,0,.4961.10547A4.66683,4.66683,0,0,0,224.48949,327.05607Z"/>
        <path d="M233.56957,323.17814l-7.84375,3.35254v-1.44532l6.21191-2.57715-6.21191-2.55273v-1.44629l7.84375,3.3125Z"/>
        <path d="M243.23168,323.17814l-7.84375,3.35254v-1.44532l6.21191-2.57715-6.21191-2.55273v-1.44629l7.84375,3.3125Z"/>
      </g>
      <g>
        <path d="M156.12035,343.974l1.47851-.12988a3.262,3.262,0,0,0,.48828,1.458,2.66878,2.66878,0,0,0,1.19239.92187,4.52219,4.52219,0,0,0,1.81738.35059,4.35109,4.35109,0,0,0,1.583-.2666,2.19747,2.19747,0,0,0,1.02246-.73047,1.69393,1.69393,0,0,0,.335-1.01367,1.53853,1.53853,0,0,0-.32324-.97363,2.38716,2.38716,0,0,0-1.06641-.69922,20.67855,20.67855,0,0,0-2.1084-.57715,10.81541,10.81541,0,0,1-2.28613-.73926,3.21545,3.21545,0,0,1-1.26465-1.10254,2.70492,2.70492,0,0,1-.416-1.47461,3.017,3.017,0,0,1,.50878-1.67676,3.156,3.156,0,0,1,1.48731-1.18359,5.65115,5.65115,0,0,1,2.17285-.40332,5.94235,5.94235,0,0,1,2.32227.42383,3.35069,3.35069,0,0,1,1.54687,1.24805,3.58718,3.58718,0,0,1,.582,1.86621l-1.50293.11328a2.41893,2.41893,0,0,0-.81933-1.69629,3.19029,3.19029,0,0,0-2.06446-.57422,3.31017,3.31017,0,0,0-2.07226.52148,1.56219,1.56219,0,0,0-.65039,1.25586,1.34683,1.34683,0,0,0,.46094,1.05078,6.24346,6.24346,0,0,0,2.36328.84375,15.56572,15.56572,0,0,1,2.62109.75586,3.58275,3.58275,0,0,1,1.52637,1.207,2.9425,2.9425,0,0,1,.49316,1.68457,3.226,3.226,0,0,1-.541,1.78125,3.56719,3.56719,0,0,1-1.55567,1.30078,5.41881,5.41881,0,0,1-2.28222.46484,6.815,6.815,0,0,1-2.69434-.46875,3.775,3.775,0,0,1-1.7041-1.41016A3.99346,3.99346,0,0,1,156.12035,343.974Z"/>
        <path d="M170.678,346.47794l.21,1.28418a5.34438,5.34438,0,0,1-1.09864.12988,2.488,2.488,0,0,1-1.22851-.251,1.40061,1.40061,0,0,1-.61328-.65821,5.184,5.184,0,0,1-.17774-1.71679v-4.93555h-1.06641v-1.13086h1.06641v-2.125l1.44629-.87207v2.99707H170.678v1.13086h-1.46191v5.0166a2.54985,2.54985,0,0,0,.07617.79981.59967.59967,0,0,0,.251.28222.961.961,0,0,0,.49609.10547A4.66522,4.66522,0,0,0,170.678,346.47794Z"/>
        <path d="M177.72191,347.77872V346.518a3.1389,3.1389,0,0,1-2.72168,1.45508,3.47536,3.47536,0,0,1-1.418-.291,2.33372,2.33372,0,0,1-.97754-.73144,2.73323,2.73323,0,0,1-.44824-1.07813,7.36379,7.36379,0,0,1-.08887-1.35742v-5.31543h1.4541v4.75781a8.44646,8.44646,0,0,0,.08887,1.53516,1.51066,1.51066,0,0,0,.58106.90039,1.80061,1.80061,0,0,0,1.09863.32715,2.39417,2.39417,0,0,0,1.22851-.335,1.86565,1.86565,0,0,0,.81153-.91309,4.57022,4.57022,0,0,0,.23828-1.67578v-4.59668h1.4541v8.5791Z"/>
        <path d="M186.86839,347.77872v-1.083a2.67015,2.67015,0,0,1-2.39941,1.27735,3.36463,3.36463,0,0,1-1.88672-.56641,3.71766,3.71766,0,0,1-1.333-1.5791,5.44985,5.44985,0,0,1-.47265-2.33008,6.08812,6.08812,0,0,1,.42871-2.33105,3.37052,3.37052,0,0,1,1.28418-1.60352,3.42854,3.42854,0,0,1,1.91406-.55762,2.85942,2.85942,0,0,1,2.36719,1.17969v-4.249H188.217v11.84277Zm-4.59765-4.28125a3.72727,3.72727,0,0,0,.69531,2.46387,2.09378,2.09378,0,0,0,1.63965.81543,2.05725,2.05725,0,0,0,1.62012-.7793,3.59306,3.59306,0,0,0,.666-2.3789,4.03208,4.03208,0,0,0-.67871-2.58594,2.08731,2.08731,0,0,0-1.67187-.82324,2.01586,2.01586,0,0,0-1.62012.791A3.91007,3.91007,0,0,0,182.27074,343.49747Z"/>
        <path d="M196.37621,345.016l1.50293.18554a3.66893,3.66893,0,0,1-1.31739,2.04395,4.45786,4.45786,0,0,1-5.44043-.43262,4.52747,4.52747,0,0,1-1.10351-3.251,4.74411,4.74411,0,0,1,1.11523-3.36133,3.774,3.774,0,0,1,2.89258-1.19532,3.66569,3.66569,0,0,1,2.81055,1.17188,4.64977,4.64977,0,0,1,1.09082,3.2959c0,.08594-.00293.21484-.00781.38769h-6.39844a3.29569,3.29569,0,0,0,.7998,2.165,2.38033,2.38033,0,0,0,1.79395.751,2.22335,2.22335,0,0,0,1.36523-.41992A2.78683,2.78683,0,0,0,196.37621,345.016Zm-4.77442-2.35059h4.79a2.90329,2.90329,0,0,0-.54883-1.624,2.22741,2.22741,0,0,0-1.80175-.84082,2.30951,2.30951,0,0,0-1.68457.6709A2.65161,2.65161,0,0,0,191.60179,342.66544Z"/>
        <path d="M199.70433,347.77872v-8.5791h1.3086v1.21973a3.08389,3.08389,0,0,1,2.73046-1.41407,3.58764,3.58764,0,0,1,1.42579.27833,2.25019,2.25019,0,0,1,.97363.73144,2.81586,2.81586,0,0,1,.45215,1.07422,8.3438,8.3438,0,0,1,.08105,1.41406v5.27539h-1.4541V342.56a3.91317,3.91317,0,0,0-.16992-1.3291,1.40427,1.40427,0,0,0-.60156-.70312,1.9155,1.9155,0,0,0-1.01368-.26172,2.35557,2.35557,0,0,0-1.60351.58886,2.90929,2.90929,0,0,0-.67481,2.23829v4.68554Z"/>
        <path d="M212.08128,346.47794l.21,1.28418a5.34438,5.34438,0,0,1-1.09864.12988,2.488,2.488,0,0,1-1.22851-.251,1.40061,1.40061,0,0,1-.61328-.65821,5.18426,5.18426,0,0,1-.17774-1.71679v-4.93555h-1.0664v-1.13086h1.0664v-2.125l1.44629-.87207v2.99707h1.46191v1.13086h-1.46191v5.0166a2.54985,2.54985,0,0,0,.07617.79981.59967.59967,0,0,0,.251.28222.961.961,0,0,0,.49609.10547A4.66522,4.66522,0,0,0,212.08128,346.47794Z"/>
      </g>
      <g>
        <path d="M136.83421,367.20157V355.3588h2.35938l2.80371,8.38477q.38672,1.17188.56543,1.7539.20069-.64746.62988-1.89941l2.835-8.23926H148.137v11.84277h-1.51074v-9.91211l-3.44141,9.91211h-1.41406l-3.42578-10.082v10.082Z"/>
        <path d="M156.07835,366.143a5.42116,5.42116,0,0,1-1.55566.96973,4.492,4.492,0,0,1-1.60351.2832,3.1159,3.1159,0,0,1-2.17286-.69141,2.27707,2.27707,0,0,1-.75976-1.76464,2.34732,2.34732,0,0,1,.28711-1.15137,2.37252,2.37252,0,0,1,.751-.83594,3.52542,3.52542,0,0,1,1.0459-.47656,10.31335,10.31335,0,0,1,1.293-.21875,13.25248,13.25248,0,0,0,2.59375-.501c.00488-.19922.00781-.32519.00781-.3789a1.60743,1.60743,0,0,0-.41211-1.25293,2.43687,2.43687,0,0,0-1.65625-.49219,2.56514,2.56514,0,0,0-1.51464.35937,2.18923,2.18923,0,0,0-.72266,1.27246l-1.42188-.19433a3.52855,3.52855,0,0,1,.6377-1.47461,2.80094,2.80094,0,0,1,1.28418-.86426,5.72685,5.72685,0,0,1,1.94727-.30273,5.13607,5.13607,0,0,1,1.78515.25879,2.3384,2.3384,0,0,1,1.00977.65039,2.28845,2.28845,0,0,1,.45312.98925,8.28144,8.28144,0,0,1,.07227,1.34082v1.93946a20.66184,20.66184,0,0,0,.09277,2.56445,3.235,3.235,0,0,0,.36817,1.03027h-1.51954A3.09,3.09,0,0,1,156.07835,366.143Zm-.12109-3.24707a10.7,10.7,0,0,1-2.376.54883,5.53111,5.53111,0,0,0-1.26757.291,1.26551,1.26551,0,0,0-.57422.47266,1.28478,1.28478,0,0,0,.23828,1.66016,1.89527,1.89527,0,0,0,1.28906.38769,2.99857,2.99857,0,0,0,1.49414-.36719,2.26436,2.26436,0,0,0,.96192-1.00586,3.5139,3.5139,0,0,0,.23437-1.4541Z"/>
        <path d="M159.68089,367.20157v-8.5791h1.3086v1.21973a3.08392,3.08392,0,0,1,2.73047-1.41406,3.58762,3.58762,0,0,1,1.42578.27832,2.25019,2.25019,0,0,1,.97363.73144,2.81586,2.81586,0,0,1,.45215,1.07422,8.3438,8.3438,0,0,1,.08105,1.41406v5.27539h-1.4541v-5.21875a3.91317,3.91317,0,0,0-.16992-1.3291,1.40427,1.40427,0,0,0-.60156-.70312,1.91549,1.91549,0,0,0-1.01367-.26172,2.35554,2.35554,0,0,0-1.60352.58887,2.90925,2.90925,0,0,0-.6748,2.23828v4.68554Z"/>
        <path d="M174.48168,366.143a5.42133,5.42133,0,0,1-1.55567.96973,4.492,4.492,0,0,1-1.60351.2832,3.1159,3.1159,0,0,1-2.17286-.69141,2.27707,2.27707,0,0,1-.75976-1.76464,2.34732,2.34732,0,0,1,.28711-1.15137,2.37252,2.37252,0,0,1,.751-.83594,3.52542,3.52542,0,0,1,1.0459-.47656,10.31335,10.31335,0,0,1,1.293-.21875,13.25248,13.25248,0,0,0,2.59375-.501c.00488-.19922.00781-.32519.00781-.3789a1.60743,1.60743,0,0,0-.41211-1.25293,2.43687,2.43687,0,0,0-1.65625-.49219,2.56514,2.56514,0,0,0-1.51464.35937,2.18923,2.18923,0,0,0-.72266,1.27246l-1.42188-.19433a3.52855,3.52855,0,0,1,.6377-1.47461,2.80094,2.80094,0,0,1,1.28418-.86426,5.72685,5.72685,0,0,1,1.94727-.30273,5.13607,5.13607,0,0,1,1.78515.25879,2.3384,2.3384,0,0,1,1.00977.65039,2.28845,2.28845,0,0,1,.45312.98925,8.28144,8.28144,0,0,1,.07227,1.34082v1.93946a20.66184,20.66184,0,0,0,.09277,2.56445,3.235,3.235,0,0,0,.36817,1.03027h-1.51954A3.08977,3.08977,0,0,1,174.48168,366.143Zm-.1211-3.24707a10.7,10.7,0,0,1-2.376.54883,5.53111,5.53111,0,0,0-1.26757.291,1.26551,1.26551,0,0,0-.57422.47266,1.28478,1.28478,0,0,0,.23828,1.66016,1.89527,1.89527,0,0,0,1.28906.38769,2.99857,2.99857,0,0,0,1.49414-.36719,2.26436,2.26436,0,0,0,.96192-1.00586,3.5139,3.5139,0,0,0,.23437-1.4541Z"/>
        <path d="M177.81761,367.91251l1.41309.21a1.34678,1.34678,0,0,0,.49316.95313,2.42024,2.42024,0,0,0,1.47852.40429,2.59863,2.59863,0,0,0,1.55957-.40429,1.99248,1.99248,0,0,0,.74316-1.13086,9.27651,9.27651,0,0,0,.10449-1.86621,2.98944,2.98944,0,0,1-2.375,1.123,3.237,3.237,0,0,1-2.73828-1.27636,4.91257,4.91257,0,0,1-.96972-3.06153,5.70544,5.70544,0,0,1,.44433-2.2666,3.557,3.557,0,0,1,1.28809-1.60351,3.48275,3.48275,0,0,1,1.9834-.56543,3.07518,3.07518,0,0,1,2.50488,1.22851v-1.03418h1.34082v7.416a7.02843,7.02843,0,0,1-.4082,2.83984,2.9827,2.9827,0,0,1-1.292,1.32031,4.47944,4.47944,0,0,1-2.17774.48438,4.09958,4.09958,0,0,1-2.47949-.69043A2.334,2.334,0,0,1,177.81761,367.91251Zm1.20313-5.1543a3.7187,3.7187,0,0,0,.6709,2.46387,2.21169,2.21169,0,0,0,3.36035.00391,3.5942,3.5942,0,0,0,.67871-2.419,3.517,3.517,0,0,0-.69824-2.375,2.16088,2.16088,0,0,0-1.68457-.7998,2.10207,2.10207,0,0,0-1.64844.78711A3.4999,3.4999,0,0,0,179.02074,362.75821Z"/>
        <path d="M193.15843,364.43888l1.50293.18555a3.66885,3.66885,0,0,1-1.31738,2.04394,4.45786,4.45786,0,0,1-5.44043-.43262,4.52748,4.52748,0,0,1-1.10352-3.251,4.74406,4.74406,0,0,1,1.11524-3.36133,3.774,3.774,0,0,1,2.89258-1.19531A3.66565,3.66565,0,0,1,193.61839,359.6a4.64977,4.64977,0,0,1,1.09082,3.2959c0,.08594-.00293.21484-.00781.3877H188.303a3.29574,3.29574,0,0,0,.79981,2.165,2.38032,2.38032,0,0,0,1.79394.751,2.22336,2.22336,0,0,0,1.36524-.41992A2.78672,2.78672,0,0,0,193.15843,364.43888Zm-4.77441-2.35059h4.79a2.90337,2.90337,0,0,0-.54883-1.624,2.22743,2.22743,0,0,0-1.80176-.84082,2.30953,2.30953,0,0,0-1.68457.6709A2.65161,2.65161,0,0,0,188.384,362.08829Z"/>
        <path d="M196.48753,367.20157v-8.5791h1.30079v1.20313a3.05015,3.05015,0,0,1,1.07421-1.01367,3.01869,3.01869,0,0,1,1.52637-.38379,2.82377,2.82377,0,0,1,1.56348.3955,2.12618,2.12618,0,0,1,.86035,1.10743,3.08,3.08,0,0,1,2.65039-1.50293,2.61053,2.61053,0,0,1,1.96289.707,3.02507,3.02507,0,0,1,.68652,2.17676v5.88964h-1.44628v-5.40429a3.96647,3.96647,0,0,0-.14161-1.25684,1.21655,1.21655,0,0,0-.51269-.61816,1.61014,1.61014,0,0,0-.87207-.2334,2.02978,2.02978,0,0,0-1.50293.60156,2.6506,2.6506,0,0,0-.59766,1.92676v4.98437h-1.4541v-5.57421a2.457,2.457,0,0,0-.35547-1.45411,1.34694,1.34694,0,0,0-1.16406-.48437,2.11754,2.11754,0,0,0-1.13477.32226,1.83554,1.83554,0,0,0-.75488.94532,5.32183,5.32183,0,0,0-.23437,1.79394v4.45117Z"/>
        <path d="M216.14183,364.43888l1.50293.18555a3.66885,3.66885,0,0,1-1.31738,2.04394,4.45786,4.45786,0,0,1-5.44043-.43262,4.52748,4.52748,0,0,1-1.10352-3.251,4.74406,4.74406,0,0,1,1.11524-3.36133,3.774,3.774,0,0,1,2.89258-1.19531A3.66565,3.66565,0,0,1,216.60179,359.6a4.64977,4.64977,0,0,1,1.09082,3.2959c0,.08594-.00293.21484-.00781.3877h-6.39844a3.29569,3.29569,0,0,0,.79981,2.165,2.38032,2.38032,0,0,0,1.79394.751,2.22338,2.22338,0,0,0,1.36524-.41992A2.78672,2.78672,0,0,0,216.14183,364.43888Zm-4.77441-2.35059h4.79a2.90337,2.90337,0,0,0-.54883-1.624,2.22743,2.22743,0,0,0-1.80176-.84082,2.30953,2.30953,0,0,0-1.68457.6709A2.65161,2.65161,0,0,0,211.36742,362.08829Z"/>
        <path d="M219.47093,367.20157v-8.5791h1.3086v1.21973a3.08392,3.08392,0,0,1,2.73047-1.41406,3.58762,3.58762,0,0,1,1.42578.27832,2.25019,2.25019,0,0,1,.97363.73144,2.81586,2.81586,0,0,1,.45215,1.07422,8.3438,8.3438,0,0,1,.08105,1.41406v5.27539h-1.4541v-5.21875a3.91317,3.91317,0,0,0-.16992-1.3291,1.40427,1.40427,0,0,0-.60156-.70312,1.9155,1.9155,0,0,0-1.01368-.26172,2.35553,2.35553,0,0,0-1.60351.58887,2.90925,2.90925,0,0,0-.67481,2.23828v4.68554Z"/>
        <path d="M231.84691,365.90079l.21,1.28418a5.34367,5.34367,0,0,1-1.09863.12989,2.488,2.488,0,0,1-1.22852-.251,1.40055,1.40055,0,0,1-.61328-.6582,5.18442,5.18442,0,0,1-.17773-1.7168v-4.93555H227.8723v-1.13086h1.06641v-2.125l1.44629-.87207v2.99707h1.46191v1.13086H230.385v5.0166a2.54985,2.54985,0,0,0,.07617.79981.59965.59965,0,0,0,.251.28222.961.961,0,0,0,.4961.10547A4.66522,4.66522,0,0,0,231.84691,365.90079Z"/>
      </g>
    </g>
  </g>
</svg>
